<svg xmlns="http://www.w3.org/2000/svg" width="800" height="600"><style></style><rect class="boundary" x="0" y="0" fill="#000" width="800" height="600" data-type="pcb_background" data-pcb-layer="global"/><rect class="pcb-boundary" fill="none" stroke="#fff" stroke-width="0.3" x="236.60150659863314" y="58.095062887905556" width="326.7969868027337" height="483.8098742241889" data-type="pcb_boundary" data-pcb-layer="global"/><rect class="pcb-pad" fill="rgb(200, 52, 52)" x="271.60013361864327" y="440.44167739811576" width="19.926699522652235" height="101.46325971397864" rx="9.963349761326118" ry="9.963349761326118" data-type="pcb_smtpad" data-pcb-layer="top"/><rect class="pcb-pad" fill="rgb(200, 52, 52)" x="309.36111116490144" y="440.44167739811576" width="19.926699522652235" height="101.46325971397864" rx="9.963349761326118" ry="9.963349761326118" data-type="pcb_smtpad" data-pcb-layer="top"/><rect class="pcb-pad" fill="rgb(200, 52, 52)" x="347.1220887111596" y="440.44167739811576" width="19.926699522652235" height="101.46325971397864" rx="9.963349761326118" ry="9.963349761326118" data-type="pcb_smtpad" data-pcb-layer="top"/><rect class="pcb-pad" fill="rgb(200, 52, 52)" x="384.8978224033914" y="440.44167739811576" width="19.926699522652235" height="101.46325971397864" rx="9.963349761326118" ry="9.963349761326118" data-type="pcb_smtpad" data-pcb-layer="top"/><rect class="pcb-pad" fill="rgb(200, 52, 52)" x="422.65879994964956" y="440.44167739811576" width="19.926699522652235" height="101.46325971397864" rx="9.963349761326118" ry="9.963349761326118" data-type="pcb_smtpad" data-pcb-layer="top"/><rect class="pcb-pad" fill="rgb(200, 52, 52)" x="460.4197774959078" y="440.44167739811576" width="19.926699522652235" height="101.46325971397864" rx="9.963349761326118" ry="9.963349761326118" data-type="pcb_smtpad" data-pcb-layer="top"/><rect class="pcb-pad" fill="rgb(200, 52, 52)" x="498.18075504216597" y="440.44167739811576" width="19.926699522652235" height="101.46325971397864" rx="9.963349761326118" ry="9.963349761326118" data-type="pcb_smtpad" data-pcb-layer="top"/><rect class="pcb-pad" fill="rgb(200, 52, 52)" x="535.9417325884242" y="440.44167739811576" width="19.926699522652235" height="101.46325971397864" rx="9.963349761326118" ry="9.963349761326118" data-type="pcb_smtpad" data-pcb-layer="top"/><rect class="pcb-pad" fill="rgb(200, 52, 52)" x="271.60013361864327" y="106.59863089301794" width="19.926699522652235" height="101.46325971397864" rx="9.963349761326118" ry="9.963349761326118" data-type="pcb_smtpad" data-pcb-layer="top"/><rect class="pcb-pad" fill="rgb(200, 52, 52)" x="309.36111116490144" y="106.59863089301794" width="19.926699522652235" height="101.46325971397864" rx="9.963349761326118" ry="9.963349761326118" data-type="pcb_smtpad" data-pcb-layer="top"/><rect class="pcb-pad" fill="rgb(200, 52, 52)" x="347.1220887111596" y="106.59863089301794" width="19.926699522652235" height="101.46325971397864" rx="9.963349761326118" ry="9.963349761326118" data-type="pcb_smtpad" data-pcb-layer="top"/><rect class="pcb-pad" fill="rgb(200, 52, 52)" x="384.8978224033914" y="106.59863089301794" width="19.926699522652235" height="101.46325971397864" rx="9.963349761326118" ry="9.963349761326118" data-type="pcb_smtpad" data-pcb-layer="top"/><rect class="pcb-pad" fill="rgb(200, 52, 52)" x="422.65879994964956" y="106.59863089301794" width="19.926699522652235" height="101.46325971397864" rx="9.963349761326118" ry="9.963349761326118" data-type="pcb_smtpad" data-pcb-layer="top"/><rect class="pcb-pad" fill="rgb(200, 52, 52)" x="460.4197774959078" y="106.59863089301794" width="19.926699522652235" height="101.46325971397864" rx="9.963349761326118" ry="9.963349761326118" data-type="pcb_smtpad" data-pcb-layer="top"/><rect class="pcb-pad" fill="rgb(200, 52, 52)" x="498.18075504216597" y="106.59863089301794" width="19.926699522652235" height="101.46325971397864" rx="9.963349761326118" ry="9.963349761326118" data-type="pcb_smtpad" data-pcb-layer="top"/><rect class="pcb-pad" fill="rgb(200, 52, 52)" x="535.9417325884242" y="106.59863089301794" width="19.926699522652235" height="101.46325971397864" rx="9.963349761326118" ry="9.963349761326118" data-type="pcb_smtpad" data-pcb-layer="top"/><rect class="pcb-pad" fill="rgb(200, 52, 52)" x="310.61538357265135" y="252.79514712574678" width="206.23779858441696" height="142.91327375361882" data-type="pcb_smtpad" data-pcb-layer="top"/><path class="pcb-silkscreen pcb-silkscreen-top" d="M 264.0700723283528 427.1611460219461 L 264.0700723283528 221.34242198317287 L 563.3984934013669 221.34242198317287 L 563.3984934013669 427.1611460219461 L 264.0700723283528 427.1611460219461 Z" fill="none" stroke="#f2eda1" stroke-width="5.809506288790558" stroke-linecap="round" stroke-linejoin="round" data-pcb-component-id="pcb_component_4" data-pcb-silkscreen-path-id="pcb_silkscreen_path_0" data-type="pcb_silkscreen_path" data-pcb-layer="top"/><path class="pcb-silkscreen pcb-silkscreen-top" d="M 290.28436565032575 383.45344164835046 L 289.98720879293325 385.71057207001303 L 289.1159889695047 387.81388278353546 L 287.7300783712641 389.6200366396522 L 285.92392451515394 391.0059472378928 L 283.8206138016381 391.87716706131476 L 281.56348337996894 392.1743239187007 L 279.3063529583064 391.87716706131476 L 277.20304224479054 391.0059472378928 L 275.3968883886672 389.6200366396522 L 274.0109777904266 387.81388278353546 L 273.1397579670113 385.71057207001303 L 272.8426011096187 383.45344164835046 L 273.1397579670113 381.1963112266813 L 274.0109777904266 379.09300051316546 L 275.3968883886672 377.2868466570553 L 277.20304224479054 375.9009360588147 L 279.3063529583064 375.02971623538616 L 281.56348337996894 374.73255937800025 L 283.8206138016381 375.02971623538616 L 285.92392451515394 375.9009360588147 L 287.7300783712641 377.2868466570553 L 289.1159889695047 379.09300051316546 L 289.98720879293325 381.1963112266813 L 290.28436565032575 383.45344164835046 Z" fill="none" stroke="#f2eda1" stroke-width="5.809506288790558" stroke-linecap="round" stroke-linejoin="round" data-pcb-component-id="pcb_component_4" data-pcb-silkscreen-path-id="pcb_silkscreen_path_1" data-type="pcb_silkscreen_path" data-pcb-layer="top"/><path class="pcb-silkscreen pcb-silkscreen-top" d="M 254.0432711393402 491.17330725510453 L 253.74611428194106 493.43043767676704 L 252.87489445851912 495.5337483902763 L 251.4889838602785 497.3399022463996 L 249.6828300041618 498.72581284464025 L 247.5795192906525 499.5970326680556 L 245.32238886897676 499.89418952545475 L 243.06525844732082 499.5970326680556 L 240.96194773380495 498.72581284464025 L 239.15579387768162 497.3399022463996 L 237.769883279441 495.5337483902763 L 236.89866345602567 493.43043767676704 L 236.60150659863314 491.17330725510453 L 236.89866345602567 488.9161768334287 L 237.769883279441 486.8128661199195 L 239.15579387768162 485.0067122638028 L 240.96194773380495 483.6208016655621 L 243.06525844732082 482.7495818421402 L 245.32238886897676 482.45242498474107 L 247.5795192906525 482.7495818421402 L 249.6828300041618 483.6208016655621 L 251.4889838602785 485.0067122638028 L 252.87489445851912 486.8128661199195 L 253.74611428194106 488.9161768334287 L 254.0432711393402 491.17330725510453 Z" fill="none" stroke="#f2eda1" stroke-width="5.809506288790558" stroke-linecap="round" stroke-linejoin="round" data-pcb-component-id="pcb_component_4" data-pcb-silkscreen-path-id="pcb_silkscreen_path_2" data-type="pcb_silkscreen_path" data-pcb-layer="top"/><text x="0" y="0" dx="0" dy="0" fill="#f2eda1" font-family="Arial, sans-serif" font-size="58.09506288790558" text-anchor="middle" dominant-baseline="central" transform="matrix(1,0,0,1,399.7159441900082,58.095062887905556)" class="pcb-silkscreen-text pcb-silkscreen-top" data-pcb-silkscreen-text-id="pcb_silkscreen_text_0" stroke="none" data-type="pcb_silkscreen_text" data-pcb-layer="top">unnamed_chip1</text><g data-type="pcb_via" data-pcb-layer="through"><circle class="pcb-hole-outer" fill="rgb(200, 52, 52)" cx="384.6941875889567" cy="295.21168872665305" r="17.70737516823362" data-type="pcb_via" data-pcb-layer="top"/><circle class="pcb-hole-inner" fill="#FF26E2" cx="384.6941875889567" cy="295.21168872665305" r="8.85368758411681" data-type="pcb_via" data-pcb-layer="drill"/></g><g data-type="pcb_via" data-pcb-layer="through"><circle class="pcb-hole-outer" fill="rgb(200, 52, 52)" cx="442.7891342867365" cy="295.21168872665305" r="17.70737516823362" data-type="pcb_via" data-pcb-layer="top"/><circle class="pcb-hole-inner" fill="#FF26E2" cx="442.7891342867365" cy="295.21168872665305" r="8.85368758411681" data-type="pcb_via" data-pcb-layer="drill"/></g><g data-type="pcb_via" data-pcb-layer="through"><circle class="pcb-hole-outer" fill="rgb(200, 52, 52)" cx="384.6941875889567" cy="353.30663542443284" r="17.70737516823362" data-type="pcb_via" data-pcb-layer="top"/><circle class="pcb-hole-inner" fill="#FF26E2" cx="384.6941875889567" cy="353.30663542443284" r="8.85368758411681" data-type="pcb_via" data-pcb-layer="drill"/></g><g data-type="pcb_via" data-pcb-layer="through"><circle class="pcb-hole-outer" fill="rgb(200, 52, 52)" cx="442.7891342867365" cy="353.30663542443284" r="17.70737516823362" data-type="pcb_via" data-pcb-layer="top"/><circle class="pcb-hole-inner" fill="#FF26E2" cx="442.7891342867365" cy="353.30663542443284" r="8.85368758411681" data-type="pcb_via" data-pcb-layer="drill"/></g></svg>