<svg xmlns="http://www.w3.org/2000/svg" width="1200" height="600" style="background-color: rgb(245, 241, 237)" data-real-to-screen-transform="matrix(72.0288115246,0,0,-72.0288115246,552.4609843938,344.2977190876)"><style>
              .boundary { fill: rgb(245, 241, 237); }
              .schematic-boundary { fill: none; stroke: #fff; }
              .component { fill: none; stroke: rgb(132, 0, 0); }
              .chip { fill: rgb(255, 255, 194); stroke: rgb(132, 0, 0); }
              .component-pin { fill: none; stroke: rgb(132, 0, 0); }
              /* Basic per-trace hover fallback */
              .trace:hover {
                filter: invert(1);
              }
              .trace:hover .trace-crossing-outline {
                opacity: 0;
              }
              .trace:hover .trace-junction {
                filter: invert(1);
              }
              /* Net-hover highlighting: when a trace or its overlays are hovered,
                 invert color for all traces (base + overlays) sharing the same
                 subcircuit connectivity key. Also hide crossing outline during hover. */
              svg:has(:is(g.trace[data-subcircuit-connectivity-map-key="TPS63802_3V3_BuckBoost_connectivity_net0"], g.trace-overlays[data-subcircuit-connectivity-map-key="TPS63802_3V3_BuckBoost_connectivity_net0"]):hover) :is(g.trace[data-subcircuit-connectivity-map-key="TPS63802_3V3_BuckBoost_connectivity_net0"], g.trace-overlays[data-subcircuit-connectivity-map-key="TPS63802_3V3_BuckBoost_connectivity_net0"]) { filter: invert(1); }
svg:has(:is(g.trace[data-subcircuit-connectivity-map-key="TPS63802_3V3_BuckBoost_connectivity_net0"], g.trace-overlays[data-subcircuit-connectivity-map-key="TPS63802_3V3_BuckBoost_connectivity_net0"]):hover) g.trace-overlays[data-subcircuit-connectivity-map-key="TPS63802_3V3_BuckBoost_connectivity_net0"] .trace-crossing-outline { opacity: 0; }
svg:has(:is(g.trace[data-subcircuit-connectivity-map-key="TPS63802_3V3_BuckBoost_connectivity_net1"], g.trace-overlays[data-subcircuit-connectivity-map-key="TPS63802_3V3_BuckBoost_connectivity_net1"]):hover) :is(g.trace[data-subcircuit-connectivity-map-key="TPS63802_3V3_BuckBoost_connectivity_net1"], g.trace-overlays[data-subcircuit-connectivity-map-key="TPS63802_3V3_BuckBoost_connectivity_net1"]) { filter: invert(1); }
svg:has(:is(g.trace[data-subcircuit-connectivity-map-key="TPS63802_3V3_BuckBoost_connectivity_net1"], g.trace-overlays[data-subcircuit-connectivity-map-key="TPS63802_3V3_BuckBoost_connectivity_net1"]):hover) g.trace-overlays[data-subcircuit-connectivity-map-key="TPS63802_3V3_BuckBoost_connectivity_net1"] .trace-crossing-outline { opacity: 0; }
svg:has(:is(g.trace[data-subcircuit-connectivity-map-key="TPS63802_3V3_BuckBoost_connectivity_net2"], g.trace-overlays[data-subcircuit-connectivity-map-key="TPS63802_3V3_BuckBoost_connectivity_net2"]):hover) :is(g.trace[data-subcircuit-connectivity-map-key="TPS63802_3V3_BuckBoost_connectivity_net2"], g.trace-overlays[data-subcircuit-connectivity-map-key="TPS63802_3V3_BuckBoost_connectivity_net2"]) { filter: invert(1); }
svg:has(:is(g.trace[data-subcircuit-connectivity-map-key="TPS63802_3V3_BuckBoost_connectivity_net2"], g.trace-overlays[data-subcircuit-connectivity-map-key="TPS63802_3V3_BuckBoost_connectivity_net2"]):hover) g.trace-overlays[data-subcircuit-connectivity-map-key="TPS63802_3V3_BuckBoost_connectivity_net2"] .trace-crossing-outline { opacity: 0; }
svg:has(:is(g.trace[data-subcircuit-connectivity-map-key="TPS63802_3V3_BuckBoost_connectivity_net3"], g.trace-overlays[data-subcircuit-connectivity-map-key="TPS63802_3V3_BuckBoost_connectivity_net3"]):hover) :is(g.trace[data-subcircuit-connectivity-map-key="TPS63802_3V3_BuckBoost_connectivity_net3"], g.trace-overlays[data-subcircuit-connectivity-map-key="TPS63802_3V3_BuckBoost_connectivity_net3"]) { filter: invert(1); }
svg:has(:is(g.trace[data-subcircuit-connectivity-map-key="TPS63802_3V3_BuckBoost_connectivity_net3"], g.trace-overlays[data-subcircuit-connectivity-map-key="TPS63802_3V3_BuckBoost_connectivity_net3"]):hover) g.trace-overlays[data-subcircuit-connectivity-map-key="TPS63802_3V3_BuckBoost_connectivity_net3"] .trace-crossing-outline { opacity: 0; }
svg:has(:is(g.trace[data-subcircuit-connectivity-map-key="TPS63802_3V3_BuckBoost_connectivity_net4"], g.trace-overlays[data-subcircuit-connectivity-map-key="TPS63802_3V3_BuckBoost_connectivity_net4"]):hover) :is(g.trace[data-subcircuit-connectivity-map-key="TPS63802_3V3_BuckBoost_connectivity_net4"], g.trace-overlays[data-subcircuit-connectivity-map-key="TPS63802_3V3_BuckBoost_connectivity_net4"]) { filter: invert(1); }
svg:has(:is(g.trace[data-subcircuit-connectivity-map-key="TPS63802_3V3_BuckBoost_connectivity_net4"], g.trace-overlays[data-subcircuit-connectivity-map-key="TPS63802_3V3_BuckBoost_connectivity_net4"]):hover) g.trace-overlays[data-subcircuit-connectivity-map-key="TPS63802_3V3_BuckBoost_connectivity_net4"] .trace-crossing-outline { opacity: 0; }
svg:has(:is(g.trace[data-subcircuit-connectivity-map-key="TPS63802_3V3_BuckBoost_connectivity_net5"], g.trace-overlays[data-subcircuit-connectivity-map-key="TPS63802_3V3_BuckBoost_connectivity_net5"]):hover) :is(g.trace[data-subcircuit-connectivity-map-key="TPS63802_3V3_BuckBoost_connectivity_net5"], g.trace-overlays[data-subcircuit-connectivity-map-key="TPS63802_3V3_BuckBoost_connectivity_net5"]) { filter: invert(1); }
svg:has(:is(g.trace[data-subcircuit-connectivity-map-key="TPS63802_3V3_BuckBoost_connectivity_net5"], g.trace-overlays[data-subcircuit-connectivity-map-key="TPS63802_3V3_BuckBoost_connectivity_net5"]):hover) g.trace-overlays[data-subcircuit-connectivity-map-key="TPS63802_3V3_BuckBoost_connectivity_net5"] .trace-crossing-outline { opacity: 0; }
svg:has(:is(g.trace[data-subcircuit-connectivity-map-key="TPS63802_3V3_BuckBoost_connectivity_net6"], g.trace-overlays[data-subcircuit-connectivity-map-key="TPS63802_3V3_BuckBoost_connectivity_net6"]):hover) :is(g.trace[data-subcircuit-connectivity-map-key="TPS63802_3V3_BuckBoost_connectivity_net6"], g.trace-overlays[data-subcircuit-connectivity-map-key="TPS63802_3V3_BuckBoost_connectivity_net6"]) { filter: invert(1); }
svg:has(:is(g.trace[data-subcircuit-connectivity-map-key="TPS63802_3V3_BuckBoost_connectivity_net6"], g.trace-overlays[data-subcircuit-connectivity-map-key="TPS63802_3V3_BuckBoost_connectivity_net6"]):hover) g.trace-overlays[data-subcircuit-connectivity-map-key="TPS63802_3V3_BuckBoost_connectivity_net6"] .trace-crossing-outline { opacity: 0; }
svg:has(:is(g.trace[data-subcircuit-connectivity-map-key="undefined"], g.trace-overlays[data-subcircuit-connectivity-map-key="undefined"]):hover) :is(g.trace[data-subcircuit-connectivity-map-key="undefined"], g.trace-overlays[data-subcircuit-connectivity-map-key="undefined"]) { filter: invert(1); }
svg:has(:is(g.trace[data-subcircuit-connectivity-map-key="undefined"], g.trace-overlays[data-subcircuit-connectivity-map-key="undefined"]):hover) g.trace-overlays[data-subcircuit-connectivity-map-key="undefined"] .trace-crossing-outline { opacity: 0; }
              .text { font-family: sans-serif; fill: rgb(0, 150, 0); }
              .pin-number { fill: rgb(169, 0, 0); }
              .port-label { fill: rgb(0, 100, 100); }
              .component-name { fill: rgb(0, 100, 100); }
            </style><rect class="boundary" x="0" y="0" width="1200" height="600"/><g class="trace" data-layer="base" data-circuit-json-type="schematic_trace" data-schematic-trace-id="schematic_trace_0" data-subcircuit-connectivity-map-key="TPS63802_3V3_BuckBoost_connectivity_net0"><path d="M 433.61344537821003 214.64585834332 L 141.89675870357996 214.64585834332" class="trace-invisible-hover-outline" stroke="rgb(0, 150, 0)" fill="none" stroke-width="11.524609843936px" stroke-linecap="round" opacity="0" stroke-linejoin="round"/><path d="M 433.61344537821003 214.64585834332 L 141.89675870357996 214.64585834332" stroke="rgb(0, 150, 0)" fill="none" stroke-width="1.440576230492px" stroke-linecap="round" stroke-linejoin="round"/></g><g class="trace" data-layer="base" data-circuit-json-type="schematic_trace" data-schematic-trace-id="schematic_trace_1" data-subcircuit-connectivity-map-key="TPS63802_3V3_BuckBoost_connectivity_net1"><path d="M 671.30852340939 214.64585834332 L 1056.662665066 214.64585834332" class="trace-invisible-hover-outline" stroke="rgb(0, 150, 0)" fill="none" stroke-width="11.524609843936px" stroke-linecap="round" opacity="0" stroke-linejoin="round"/><path d="M 671.30852340939 214.64585834332 L 1056.662665066 214.64585834332" stroke="rgb(0, 150, 0)" fill="none" stroke-width="1.440576230492px" stroke-linecap="round" stroke-linejoin="round"/></g><g class="trace" data-layer="base" data-circuit-json-type="schematic_trace" data-schematic-trace-id="schematic_trace_2" data-subcircuit-connectivity-map-key="TPS63802_3V3_BuckBoost_connectivity_net2"><path d="M 509.24369747904 99.39975990395999 L 509.24369747904 57.62304921969201 L 510.684273709532 57.62304921969201" class="trace-invisible-hover-outline" stroke="rgb(0, 150, 0)" fill="none" stroke-width="11.524609843936px" stroke-linecap="round" opacity="0" stroke-linejoin="round"/><path d="M 509.24369747904 99.39975990395999 L 509.24369747904 57.62304921969201 L 510.684273709532 57.62304921969201" stroke="rgb(0, 150, 0)" fill="none" stroke-width="1.440576230492px" stroke-linecap="round" stroke-linejoin="round"/></g><g class="trace" data-layer="base" data-circuit-json-type="schematic_trace" data-schematic-trace-id="schematic_trace_3" data-subcircuit-connectivity-map-key="TPS63802_3V3_BuckBoost_connectivity_net3"><path d="M 595.67827130856 99.39975990395999 L 595.67827130856 58.343337334937985 L 594.237695078068 58.343337334937985" class="trace-invisible-hover-outline" stroke="rgb(0, 150, 0)" fill="none" stroke-width="11.524609843936px" stroke-linecap="round" opacity="0" stroke-linejoin="round"/><path d="M 595.67827130856 99.39975990395999 L 595.67827130856 58.343337334937985 L 594.237695078068 58.343337334937985" stroke="rgb(0, 150, 0)" fill="none" stroke-width="1.440576230492px" stroke-linecap="round" stroke-linejoin="round"/></g><g class="trace" data-layer="base" data-circuit-json-type="schematic_trace" data-schematic-trace-id="schematic_trace_4" data-subcircuit-connectivity-map-key="TPS63802_3V3_BuckBoost_connectivity_net0"><path d="M 433.61344537821003 214.64585834332 L 419.20768307329 214.64585834332 L 419.20768307329 301.08043217284 L 433.61344537821003 301.08043217284" class="trace-invisible-hover-outline" stroke="rgb(0, 150, 0)" fill="none" stroke-width="11.524609843936px" stroke-linecap="round" opacity="0" stroke-linejoin="round"/><path d="M 433.61344537821003 214.64585834332 L 419.20768307329 214.64585834332 L 419.20768307329 301.08043217284 L 433.61344537821003 301.08043217284" stroke="rgb(0, 150, 0)" fill="none" stroke-width="1.440576230492px" stroke-linecap="round" stroke-linejoin="round"/></g><g class="trace" data-layer="base" data-circuit-json-type="schematic_trace" data-schematic-trace-id="schematic_trace_5" data-subcircuit-connectivity-map-key="TPS63802_3V3_BuckBoost_connectivity_net4"><path d="M 671.30852340939 301.08043217284 L 746.93877551022 301.08043217284 L 746.93877551022 283.07322929169004" class="trace-invisible-hover-outline" stroke="rgb(0, 150, 0)" fill="none" stroke-width="11.524609843936px" stroke-linecap="round" opacity="0" stroke-linejoin="round"/><path d="M 671.30852340939 301.08043217284 L 746.93877551022 301.08043217284 L 746.93877551022 283.07322929169004" stroke="rgb(0, 150, 0)" fill="none" stroke-width="1.440576230492px" stroke-linecap="round" stroke-linejoin="round"/></g><g class="trace" data-layer="base" data-circuit-json-type="schematic_trace" data-schematic-trace-id="schematic_trace_6" data-subcircuit-connectivity-map-key="TPS63802_3V3_BuckBoost_connectivity_net5"><path d="M 826.17046818728 391.11644657859 L 826.17046818728 311.88475390153" class="trace-invisible-hover-outline" stroke="rgb(0, 150, 0)" fill="none" stroke-width="11.524609843936px" stroke-linecap="round" opacity="0" stroke-linejoin="round"/><path d="M 826.17046818728 391.11644657859 L 826.17046818728 311.88475390153" stroke="rgb(0, 150, 0)" fill="none" stroke-width="1.440576230492px" stroke-linecap="round" stroke-linejoin="round"/></g><g class="trace" data-layer="base" data-circuit-json-type="schematic_trace" data-schematic-trace-id="schematic_trace_7" data-subcircuit-connectivity-map-key="TPS63802_3V3_BuckBoost_connectivity_net5"><path d="M 671.30852340939 387.51500600236 L 826.17046818728 387.51500600236 L 826.17046818728 391.11644657859" class="trace-invisible-hover-outline" stroke="rgb(0, 150, 0)" fill="none" stroke-width="11.524609843936px" stroke-linecap="round" opacity="0" stroke-linejoin="round"/><path d="M 671.30852340939 387.51500600236 L 826.17046818728 387.51500600236 L 826.17046818728 391.11644657859" stroke="rgb(0, 150, 0)" fill="none" stroke-width="1.440576230492px" stroke-linecap="round" stroke-linejoin="round"/></g><g class="trace" data-layer="base" data-circuit-json-type="schematic_trace" data-schematic-trace-id="schematic_trace_8" data-subcircuit-connectivity-map-key="TPS63802_3V3_BuckBoost_connectivity_net6"><path d="M 671.30852340939 473.94957983188 L 826.17046818728 473.94957983188 L 826.17046818728 470.34813925565004" class="trace-invisible-hover-outline" stroke="rgb(0, 150, 0)" fill="none" stroke-width="11.524609843936px" stroke-linecap="round" opacity="0" stroke-linejoin="round"/><path d="M 671.30852340939 473.94957983188 L 826.17046818728 473.94957983188 L 826.17046818728 470.34813925565004" stroke="rgb(0, 150, 0)" fill="none" stroke-width="1.440576230492px" stroke-linecap="round" stroke-linejoin="round"/></g><g class="trace" data-layer="base" data-circuit-json-type="schematic_trace" data-schematic-trace-id="schematic_trace_9" data-subcircuit-connectivity-map-key="TPS63802_3V3_BuckBoost_connectivity_net6"><path d="M 433.61344537821003 473.94957983188 L 419.20768307329 473.94957983188 L 419.20768307329 387.51500600236 L 433.61344537821003 387.51500600236" class="trace-invisible-hover-outline" stroke="rgb(0, 150, 0)" fill="none" stroke-width="11.524609843936px" stroke-linecap="round" opacity="0" stroke-linejoin="round"/><path d="M 433.61344537821003 473.94957983188 L 419.20768307329 473.94957983188 L 419.20768307329 387.51500600236 L 433.61344537821003 387.51500600236" stroke="rgb(0, 150, 0)" fill="none" stroke-width="1.440576230492px" stroke-linecap="round" stroke-linejoin="round"/></g><g class="trace" data-layer="base" data-circuit-json-type="schematic_trace" data-schematic-trace-id="schematic_trace_10"><path d="M 264.3457382954 225.45018007200997 L 264.3457382954 214.64585834331996 L 433.61344537821003 214.64585834331996" class="trace-invisible-hover-outline" stroke="rgb(0, 150, 0)" fill="none" stroke-width="11.524609843936px" stroke-linecap="round" opacity="0" stroke-linejoin="round"/><path d="M 264.3457382954 225.45018007200997 L 264.3457382954 214.64585834331996 L 433.61344537821003 214.64585834331996" stroke="rgb(0, 150, 0)" fill="none" stroke-width="1.440576230492px" stroke-linecap="round" stroke-linejoin="round"/></g><g class="trace" data-layer="base" data-circuit-json-type="schematic_trace" data-schematic-trace-id="schematic_trace_11"><path d="M 984.6338535414 268.66746698677 L 984.6338535414 218.24729891954996 L 826.17046818728 218.24729891954996 L 826.17046818728 232.65306122446998" class="trace-invisible-hover-outline" stroke="rgb(0, 150, 0)" fill="none" stroke-width="11.524609843936px" stroke-linecap="round" opacity="0" stroke-linejoin="round"/><path d="M 984.6338535414 268.66746698677 L 984.6338535414 218.24729891954996 L 826.17046818728 218.24729891954996 L 826.17046818728 232.65306122446998" stroke="rgb(0, 150, 0)" fill="none" stroke-width="1.440576230492px" stroke-linecap="round" stroke-linejoin="round"/></g><g class="trace" data-layer="base" data-circuit-json-type="schematic_trace" data-schematic-trace-id="schematic_trace_12"><path d="M 264.3457382954 304.68187274907 L 264.3457382954 473.94957983188004 L 433.61344537821003 473.94957983188004" class="trace-invisible-hover-outline" stroke="rgb(0, 150, 0)" fill="none" stroke-width="11.524609843936px" stroke-linecap="round" opacity="0" stroke-linejoin="round"/><path d="M 264.3457382954 304.68187274907 L 264.3457382954 473.94957983188004 L 433.61344537821003 473.94957983188004" stroke="rgb(0, 150, 0)" fill="none" stroke-width="1.440576230492px" stroke-linecap="round" stroke-linejoin="round"/></g><g class="trace-overlays" data-layer="overlay" data-circuit-json-type="schematic_trace" data-schematic-trace-id="schematic_trace_0" data-subcircuit-connectivity-map-key="TPS63802_3V3_BuckBoost_connectivity_net0"/><g class="trace-overlays" data-layer="overlay" data-circuit-json-type="schematic_trace" data-schematic-trace-id="schematic_trace_1" data-subcircuit-connectivity-map-key="TPS63802_3V3_BuckBoost_connectivity_net1"/><g class="trace-overlays" data-layer="overlay" data-circuit-json-type="schematic_trace" data-schematic-trace-id="schematic_trace_2" data-subcircuit-connectivity-map-key="TPS63802_3V3_BuckBoost_connectivity_net2"/><g class="trace-overlays" data-layer="overlay" data-circuit-json-type="schematic_trace" data-schematic-trace-id="schematic_trace_3" data-subcircuit-connectivity-map-key="TPS63802_3V3_BuckBoost_connectivity_net3"/><g class="trace-overlays" data-layer="overlay" data-circuit-json-type="schematic_trace" data-schematic-trace-id="schematic_trace_4" data-subcircuit-connectivity-map-key="TPS63802_3V3_BuckBoost_connectivity_net0"><circle cx="419.20768307329" cy="214.64585834332" r="2.160864345738" class="trace-junction" fill="rgb(0, 150, 0)"/></g><g class="trace-overlays" data-layer="overlay" data-circuit-json-type="schematic_trace" data-schematic-trace-id="schematic_trace_5" data-subcircuit-connectivity-map-key="TPS63802_3V3_BuckBoost_connectivity_net4"/><g class="trace-overlays" data-layer="overlay" data-circuit-json-type="schematic_trace" data-schematic-trace-id="schematic_trace_6" data-subcircuit-connectivity-map-key="TPS63802_3V3_BuckBoost_connectivity_net5"><circle cx="826.17046818728" cy="387.51500600236" r="2.160864345738" class="trace-junction" fill="rgb(0, 150, 0)"/></g><g class="trace-overlays" data-layer="overlay" data-circuit-json-type="schematic_trace" data-schematic-trace-id="schematic_trace_7" data-subcircuit-connectivity-map-key="TPS63802_3V3_BuckBoost_connectivity_net5"><circle cx="826.17046818728" cy="387.51500600236" r="2.160864345738" class="trace-junction" fill="rgb(0, 150, 0)"/></g><g class="trace-overlays" data-layer="overlay" data-circuit-json-type="schematic_trace" data-schematic-trace-id="schematic_trace_8" data-subcircuit-connectivity-map-key="TPS63802_3V3_BuckBoost_connectivity_net6"/><g class="trace-overlays" data-layer="overlay" data-circuit-json-type="schematic_trace" data-schematic-trace-id="schematic_trace_9" data-subcircuit-connectivity-map-key="TPS63802_3V3_BuckBoost_connectivity_net6"><circle cx="419.20768307329" cy="473.94957983188" r="2.160864345738" class="trace-junction" fill="rgb(0, 150, 0)"/></g><g class="trace-overlays" data-layer="overlay" data-circuit-json-type="schematic_trace" data-schematic-trace-id="schematic_trace_10"><circle cx="419.20768307329" cy="214.64585834332" r="2.160864345738" class="trace-junction" fill="rgb(0, 150, 0)"/></g><g class="trace-overlays" data-layer="overlay" data-circuit-json-type="schematic_trace" data-schematic-trace-id="schematic_trace_11"/><g class="trace-overlays" data-layer="overlay" data-circuit-json-type="schematic_trace" data-schematic-trace-id="schematic_trace_12"><circle cx="419.20768307329" cy="473.94957983188" r="2.160864345738" class="trace-junction" fill="rgb(0, 150, 0)"/></g><g data-circuit-json-type="schematic_component" data-schematic-component-id="schematic_component_0"><rect class="component chip" x="462.42496998805" y="128.2112845138" width="180.07202881150005" height="432.17286914759995" stroke-width="1.440576230492px" fill="rgb(255, 255, 194)" stroke="rgb(132, 0, 0)"/><rect class="component-overlay" x="462.42496998805" y="128.2112845138" width="180.07202881150005" height="432.17286914759995" fill="transparent"/><text x="649.69987995201" y="103.00120048019" fill="#006464" text-anchor="start" dominant-baseline="middle" font-family="sans-serif" font-size="12.965186074427999px" transform="rotate(0, 649.69987995201, 103.00120048019)">TPS63802DLAR</text><text x="649.69987995201" y="88.59543817527" fill="#006464" text-anchor="start" dominant-baseline="middle" font-family="sans-serif" font-size="12.965186074427999px" transform="rotate(0, 649.69987995201, 88.59543817527)">U1</text><line class="component-pin" x1="462.42496998805" y1="301.08043217284" x2="433.61344537821003" y2="301.08043217284" stroke-width="1.440576230492px"/><g data-schematic-port-id="source_port_0"><rect x="432.172869147718" y="299.639855942348" width="2.881152460984" height="2.881152460984" opacity="0"/></g><text class="pin-number" x="448.01920768313" y="299.639855942348" style="font-family: sans-serif;" fill="rgb(169, 0, 0)" text-anchor="middle" dominant-baseline="auto" font-size="10.80432172869px" transform="">1</text><text class="pin-number" x="469.62785114051" y="301.08043217284" style="font-family: sans-serif;" fill="rgb(169, 0, 0)" text-anchor="start" dominant-baseline="middle" font-size="10.80432172869px" transform="">EN</text><line class="component-pin" x1="462.42496998805" y1="387.51500600236" x2="433.61344537821003" y2="387.51500600236" stroke-width="1.440576230492px"/><g data-schematic-port-id="source_port_1"><rect x="432.172869147718" y="386.074429771868" width="2.881152460984" height="2.881152460984" opacity="0"/></g><text class="pin-number" x="448.01920768313" y="386.074429771868" style="font-family: sans-serif;" fill="rgb(169, 0, 0)" text-anchor="middle" dominant-baseline="auto" font-size="10.80432172869px" transform="">2</text><text class="pin-number" x="469.62785114051" y="387.51500600236" style="font-family: sans-serif;" fill="rgb(169, 0, 0)" text-anchor="start" dominant-baseline="middle" font-size="10.80432172869px" transform="">MODE</text><line class="component-pin" x1="642.49699879955" y1="473.94957983188" x2="671.30852340939" y2="473.94957983188" stroke-width="1.440576230492px"/><g data-schematic-port-id="source_port_2"><rect x="669.867947178898" y="472.509003601388" width="2.881152460984" height="2.881152460984" opacity="0"/></g><text class="pin-number" x="656.90276110447" y="472.50900360138803" style="font-family: sans-serif;" fill="rgb(169, 0, 0)" text-anchor="middle" dominant-baseline="auto" font-size="10.80432172869px" transform="">3</text><text class="pin-number" x="635.29411764709" y="473.94957983188" style="font-family: sans-serif;" fill="rgb(169, 0, 0)" text-anchor="end" dominant-baseline="middle" font-size="10.80432172869px" transform="">AGND</text><line class="component-pin" x1="642.49699879955" y1="387.51500600236" x2="671.30852340939" y2="387.51500600236" stroke-width="1.440576230492px"/><g data-schematic-port-id="source_port_3"><rect x="669.867947178898" y="386.074429771868" width="2.881152460984" height="2.881152460984" opacity="0"/></g><text class="pin-number" x="656.90276110447" y="386.074429771868" style="font-family: sans-serif;" fill="rgb(169, 0, 0)" text-anchor="middle" dominant-baseline="auto" font-size="10.80432172869px" transform="">4</text><text class="pin-number" x="635.29411764709" y="387.51500600236" style="font-family: sans-serif;" fill="rgb(169, 0, 0)" text-anchor="end" dominant-baseline="middle" font-size="10.80432172869px" transform="">FB</text><line class="component-pin" x1="642.49699879955" y1="301.08043217284" x2="671.30852340939" y2="301.08043217284" stroke-width="1.440576230492px"/><g data-schematic-port-id="source_port_4"><rect x="669.867947178898" y="299.639855942348" width="2.881152460984" height="2.881152460984" opacity="0"/></g><text class="pin-number" x="656.90276110447" y="299.639855942348" style="font-family: sans-serif;" fill="rgb(169, 0, 0)" text-anchor="middle" dominant-baseline="auto" font-size="10.80432172869px" transform="">5</text><text class="pin-number" x="635.29411764709" y="301.08043217284" style="font-family: sans-serif;" fill="rgb(169, 0, 0)" text-anchor="end" dominant-baseline="middle" font-size="10.80432172869px" transform="">PG</text><line class="component-pin" x1="642.49699879955" y1="214.64585834332" x2="671.30852340939" y2="214.64585834332" stroke-width="1.440576230492px"/><g data-schematic-port-id="source_port_5"><rect x="669.867947178898" y="213.20528211282797" width="2.881152460984" height="2.881152460984" opacity="0"/></g><text class="pin-number" x="656.90276110447" y="213.205282112828" style="font-family: sans-serif;" fill="rgb(169, 0, 0)" text-anchor="middle" dominant-baseline="auto" font-size="10.80432172869px" transform="">6</text><text class="pin-number" x="635.29411764709" y="214.64585834332" style="font-family: sans-serif;" fill="rgb(169, 0, 0)" text-anchor="end" dominant-baseline="middle" font-size="10.80432172869px" transform="">VOUT</text><line class="component-pin" x1="595.67827130856" y1="128.2112845138" x2="595.67827130856" y2="99.39975990395999" stroke-width="1.440576230492px"/><g data-schematic-port-id="source_port_6"><rect x="594.2376950780681" y="97.95918367346799" width="2.881152460984" height="2.881152460984" opacity="0"/></g><text class="pin-number" x="594.237695078068" y="113.80552220888" style="font-family: sans-serif;" fill="rgb(169, 0, 0)" text-anchor="middle" dominant-baseline="auto" font-size="10.80432172869px" transform="rotate(-90 594.237695078068 113.80552220888)">7</text><text class="pin-number" x="595.67827130856" y="135.41416566626" style="font-family: sans-serif;" fill="rgb(169, 0, 0)" text-anchor="end" dominant-baseline="middle" font-size="10.80432172869px" transform="rotate(-90 595.67827130856 135.41416566626)">L2</text><line class="component-pin" x1="462.42496998805" y1="473.94957983188" x2="433.61344537821003" y2="473.94957983188" stroke-width="1.440576230492px"/><g data-schematic-port-id="source_port_7"><rect x="432.172869147718" y="472.509003601388" width="2.881152460984" height="2.881152460984" opacity="0"/></g><text class="pin-number" x="448.01920768313" y="472.50900360138803" style="font-family: sans-serif;" fill="rgb(169, 0, 0)" text-anchor="middle" dominant-baseline="auto" font-size="10.80432172869px" transform="">8</text><text class="pin-number" x="469.62785114051" y="473.94957983188" style="font-family: sans-serif;" fill="rgb(169, 0, 0)" text-anchor="start" dominant-baseline="middle" font-size="10.80432172869px" transform="">GND</text><line class="component-pin" x1="509.24369747904" y1="128.2112845138" x2="509.24369747904" y2="99.39975990395999" stroke-width="1.440576230492px"/><g data-schematic-port-id="source_port_8"><rect x="507.803121248548" y="97.95918367346799" width="2.881152460984" height="2.881152460984" opacity="0"/></g><text class="pin-number" x="507.803121248548" y="113.80552220888" style="font-family: sans-serif;" fill="rgb(169, 0, 0)" text-anchor="middle" dominant-baseline="auto" font-size="10.80432172869px" transform="rotate(-90 507.803121248548 113.80552220888)">9</text><text class="pin-number" x="509.24369747904" y="135.41416566626" style="font-family: sans-serif;" fill="rgb(169, 0, 0)" text-anchor="end" dominant-baseline="middle" font-size="10.80432172869px" transform="rotate(-90 509.24369747904 135.41416566626)">L1</text><line class="component-pin" x1="462.42496998805" y1="214.64585834332" x2="433.61344537821003" y2="214.64585834332" stroke-width="1.440576230492px"/><g data-schematic-port-id="source_port_9"><rect x="432.172869147718" y="213.20528211282797" width="2.881152460984" height="2.881152460984" opacity="0"/></g><text class="pin-number" x="448.01920768313" y="213.20528211282797" style="font-family: sans-serif;" fill="rgb(169, 0, 0)" text-anchor="middle" dominant-baseline="auto" font-size="10.80432172869px" transform="">10</text><text class="pin-number" x="469.62785114051" y="214.64585834332" style="font-family: sans-serif;" fill="rgb(169, 0, 0)" text-anchor="start" dominant-baseline="middle" font-size="10.80432172869px" transform="">VIN</text></g><g data-circuit-json-type="schematic_component" data-schematic-component-id="schematic_component_1"><rect class="component-overlay" x="512.84513805527" y="50.42016806723199" width="79.23169267705998" height="7.923169267706001" fill="transparent"/><path d="M 538.05522208888 57.62304921969199 L 538.05522208888 57.62304921969199 L 537.334933973634 56.90276110444599 L 537.334933973634 56.90276110444599 L 537.334933973634 56.182472989199994 L 537.334933973634 56.182472989199994 L 537.334933973634 56.182472989199994 L 536.614645858388 55.462184873953994 L 536.614645858388 55.462184873953994 L 536.614645858388 54.741896758707995 L 536.614645858388 54.741896758707995 L 535.894357743142 54.021608643461995 L 535.894357743142 54.021608643461995 L 535.894357743142 54.021608643461995 L 535.894357743142 53.301320528215996 L 535.174069627896 53.301320528215996 L 535.174069627896 53.301320528215996 L 535.174069627896 52.581032412969996 L 535.174069627896 52.581032412969996 L 534.45378151265 52.581032412969996 L 534.45378151265 51.860744297724 L 534.45378151265 51.860744297724 L 534.45378151265 51.860744297724 L 533.733493397404 51.860744297724 L 533.733493397404 51.860744297724 L 533.733493397404 51.14045618247799 L 533.733493397404 51.14045618247799 L 533.013205282158 51.14045618247799 L 533.013205282158 51.14045618247799 L 533.013205282158 51.14045618247799 L 533.013205282158 51.14045618247799 L 532.292917166912 51.14045618247799 L 532.292917166912 51.14045618247799 L 532.292917166912 51.14045618247799 L 532.292917166912 51.14045618247799 L 531.572629051666 51.14045618247799 L 531.572629051666 50.42016806723199 L 531.572629051666 50.42016806723199 L 531.572629051666 50.42016806723199 L 530.85234093642 50.42016806723199 L 530.85234093642 50.42016806723199 L 530.85234093642 50.42016806723199 L 530.85234093642 50.42016806723199 L 530.132052821174 50.42016806723199 L 530.132052821174 50.42016806723199 L 530.132052821174 51.14045618247799 L 530.132052821174 51.14045618247799 L 529.411764705928 51.14045618247799 L 529.411764705928 51.14045618247799 L 529.411764705928 51.14045618247799 L 529.411764705928 51.14045618247799 L 528.691476590682 51.14045618247799 L 528.691476590682 51.14045618247799 L 528.691476590682 51.14045618247799 L 528.691476590682 51.14045618247799 L 527.971188475436 51.14045618247799 L 527.971188475436 51.860744297724 L 527.971188475436 51.860744297724 L 527.971188475436 51.860744297724 L 527.25090036019 51.860744297724 L 527.25090036019 51.860744297724 L 527.25090036019 52.581032412969996 L 527.25090036019 52.581032412969996 L 526.530612244944 52.581032412969996 L 526.530612244944 53.301320528215996 L 526.530612244944 53.301320528215996 L 526.530612244944 53.301320528215996 L 525.810324129698 54.021608643461995 L 525.810324129698 54.021608643461995 L 525.810324129698 54.021608643461995 L 525.810324129698 54.741896758707995 L 525.090036014452 54.741896758707995 L 525.090036014452 55.462184873953994 L 525.090036014452 55.462184873953994 L 525.090036014452 56.182472989199994 L 524.369747899206 56.182472989199994 L 524.369747899206 56.182472989199994 L 524.369747899206 56.90276110444599 L 524.369747899206 56.90276110444599 L 523.64945978396 57.62304921969199 L 523.64945978396 57.62304921969199" stroke="rgb(132, 0, 0)" fill="none" stroke-width="1.440576230492px" stroke-linecap="round"/><path d="M 552.4609843938 57.62304921969199 L 552.4609843938 57.62304921969199 L 551.740696278554 56.90276110444599 L 551.740696278554 56.90276110444599 L 551.740696278554 56.182472989199994 L 551.740696278554 56.182472989199994 L 551.020408163308 56.182472989199994 L 551.020408163308 55.462184873953994 L 551.020408163308 55.462184873953994 L 551.020408163308 54.741896758707995 L 550.300120048062 54.741896758707995 L 550.300120048062 54.021608643461995 L 550.300120048062 54.021608643461995 L 550.300120048062 54.021608643461995 L 549.579831932816 53.301320528215996 L 549.579831932816 53.301320528215996 L 549.579831932816 53.301320528215996 L 549.579831932816 52.581032412969996 L 548.85954381757 52.581032412969996 L 548.85954381757 52.581032412969996 L 548.85954381757 51.860744297724 L 548.85954381757 51.860744297724 L 548.139255702324 51.860744297724 L 548.139255702324 51.860744297724 L 548.139255702324 51.860744297724 L 548.139255702324 51.14045618247799 L 547.418967587078 51.14045618247799 L 547.418967587078 51.14045618247799 L 547.418967587078 51.14045618247799 L 547.418967587078 51.14045618247799 L 546.698679471832 51.14045618247799 L 546.698679471832 51.14045618247799 L 546.698679471832 51.14045618247799 L 546.698679471832 51.14045618247799 L 545.978391356586 51.14045618247799 L 545.978391356586 51.14045618247799 L 545.978391356586 50.42016806723199 L 545.978391356586 50.42016806723199 L 545.25810324134 50.42016806723199 L 545.25810324134 50.42016806723199 L 545.25810324134 50.42016806723199 L 545.25810324134 50.42016806723199 L 544.537815126094 50.42016806723199 L 544.537815126094 50.42016806723199 L 544.537815126094 50.42016806723199 L 544.537815126094 51.14045618247799 L 543.817527010848 51.14045618247799 L 543.817527010848 51.14045618247799 L 543.817527010848 51.14045618247799 L 543.817527010848 51.14045618247799 L 543.097238895602 51.14045618247799 L 543.097238895602 51.14045618247799 L 543.097238895602 51.14045618247799 L 543.097238895602 51.14045618247799 L 542.376950780356 51.14045618247799 L 542.376950780356 51.14045618247799 L 542.376950780356 51.860744297724 L 542.376950780356 51.860744297724 L 541.65666266511 51.860744297724 L 541.65666266511 51.860744297724 L 541.65666266511 51.860744297724 L 541.65666266511 52.581032412969996 L 540.936374549864 52.581032412969996 L 540.936374549864 52.581032412969996 L 540.936374549864 53.301320528215996 L 540.936374549864 53.301320528215996 L 540.216086434618 53.301320528215996 L 540.216086434618 54.021608643461995 L 540.216086434618 54.021608643461995 L 540.216086434618 54.021608643461995 L 539.495798319372 54.741896758707995 L 539.495798319372 54.741896758707995 L 539.495798319372 55.462184873953994 L 539.495798319372 55.462184873953994 L 538.775510204126 56.182472989199994 L 538.775510204126 56.182472989199994 L 538.775510204126 56.182472989199994 L 538.775510204126 56.90276110444599 L 538.05522208888 56.90276110444599 L 538.05522208888 57.62304921969199 L 538.05522208888 57.62304921969199" stroke="rgb(132, 0, 0)" fill="none" stroke-width="1.440576230492px" stroke-linecap="round"/><path d="M 566.86674669872 57.62304921969199 L 566.86674669872 57.62304921969199 L 566.146458583474 56.90276110444599 L 566.146458583474 56.90276110444599 L 566.146458583474 56.182472989199994 L 566.146458583474 56.182472989199994 L 565.426170468228 56.182472989199994 L 565.426170468228 55.462184873953994 L 565.426170468228 55.462184873953994 L 565.426170468228 54.741896758707995 L 564.705882352982 54.741896758707995 L 564.705882352982 54.021608643461995 L 564.705882352982 54.021608643461995 L 564.705882352982 54.021608643461995 L 563.985594237736 53.301320528215996 L 563.985594237736 53.301320528215996 L 563.985594237736 53.301320528215996 L 563.985594237736 52.581032412969996 L 563.26530612249 52.581032412969996 L 563.26530612249 52.581032412969996 L 563.26530612249 51.860744297724 L 563.26530612249 51.860744297724 L 562.545018007244 51.860744297724 L 562.545018007244 51.860744297724 L 562.545018007244 51.860744297724 L 562.545018007244 51.14045618247799 L 561.824729891998 51.14045618247799 L 561.824729891998 51.14045618247799 L 561.824729891998 51.14045618247799 L 561.824729891998 51.14045618247799 L 561.104441776752 51.14045618247799 L 561.104441776752 51.14045618247799 L 561.104441776752 51.14045618247799 L 561.104441776752 51.14045618247799 L 560.384153661506 51.14045618247799 L 560.384153661506 51.14045618247799 L 560.384153661506 50.42016806723199 L 560.384153661506 50.42016806723199 L 559.66386554626 50.42016806723199 L 559.66386554626 50.42016806723199 L 559.66386554626 50.42016806723199 L 559.66386554626 50.42016806723199 L 558.943577431014 50.42016806723199 L 558.943577431014 50.42016806723199 L 558.943577431014 50.42016806723199 L 558.943577431014 51.14045618247799 L 558.223289315768 51.14045618247799 L 558.223289315768 51.14045618247799 L 558.223289315768 51.14045618247799 L 558.223289315768 51.14045618247799 L 557.503001200522 51.14045618247799 L 557.503001200522 51.14045618247799 L 557.503001200522 51.14045618247799 L 557.503001200522 51.14045618247799 L 556.782713085276 51.14045618247799 L 556.782713085276 51.14045618247799 L 556.782713085276 51.860744297724 L 556.782713085276 51.860744297724 L 556.06242497003 51.860744297724 L 556.06242497003 51.860744297724 L 556.06242497003 51.860744297724 L 556.06242497003 52.581032412969996 L 555.342136854784 52.581032412969996 L 555.342136854784 52.581032412969996 L 555.342136854784 53.301320528215996 L 555.342136854784 53.301320528215996 L 554.621848739538 53.301320528215996 L 554.621848739538 54.021608643461995 L 554.621848739538 54.021608643461995 L 554.621848739538 54.021608643461995 L 553.901560624292 54.741896758707995 L 553.901560624292 54.741896758707995 L 553.901560624292 55.462184873953994 L 553.901560624292 55.462184873953994 L 553.181272509046 56.182472989199994 L 553.181272509046 56.182472989199994 L 553.181272509046 56.182472989199994 L 553.181272509046 56.90276110444599 L 552.4609843938 56.90276110444599 L 552.4609843938 57.62304921969199 L 552.4609843938 57.62304921969199" stroke="rgb(132, 0, 0)" fill="none" stroke-width="1.440576230492px" stroke-linecap="round"/><path d="M 581.27250900364 57.62304921969199 L 580.552220888394 57.62304921969199 L 580.552220888394 56.90276110444599 L 580.552220888394 56.90276110444599 L 580.552220888394 56.182472989199994 L 580.552220888394 56.182472989199994 L 579.831932773148 56.182472989199994 L 579.831932773148 55.462184873953994 L 579.831932773148 55.462184873953994 L 579.831932773148 54.741896758707995 L 579.111644657902 54.741896758707995 L 579.111644657902 54.021608643461995 L 579.111644657902 54.021608643461995 L 579.111644657902 54.021608643461995 L 578.391356542656 53.301320528215996 L 578.391356542656 53.301320528215996 L 578.391356542656 53.301320528215996 L 578.391356542656 52.581032412969996 L 577.67106842741 52.581032412969996 L 577.67106842741 52.581032412969996 L 577.67106842741 51.860744297724 L 577.67106842741 51.860744297724 L 576.950780312164 51.860744297724 L 576.950780312164 51.860744297724 L 576.950780312164 51.860744297724 L 576.950780312164 51.14045618247799 L 576.230492196918 51.14045618247799 L 576.230492196918 51.14045618247799 L 576.230492196918 51.14045618247799 L 576.230492196918 51.14045618247799 L 575.510204081672 51.14045618247799 L 575.510204081672 51.14045618247799 L 575.510204081672 51.14045618247799 L 575.510204081672 51.14045618247799 L 574.789915966426 51.14045618247799 L 574.789915966426 51.14045618247799 L 574.789915966426 50.42016806723199 L 574.789915966426 50.42016806723199 L 574.06962785118 50.42016806723199 L 574.06962785118 50.42016806723199 L 574.06962785118 50.42016806723199 L 574.06962785118 50.42016806723199 L 573.349339735934 50.42016806723199 L 573.349339735934 50.42016806723199 L 573.349339735934 50.42016806723199 L 573.349339735934 51.14045618247799 L 572.629051620688 51.14045618247799 L 572.629051620688 51.14045618247799 L 572.629051620688 51.14045618247799 L 572.629051620688 51.14045618247799 L 571.908763505442 51.14045618247799 L 571.908763505442 51.14045618247799 L 571.908763505442 51.14045618247799 L 571.908763505442 51.14045618247799 L 571.188475390196 51.14045618247799 L 571.188475390196 51.14045618247799 L 571.188475390196 51.860744297724 L 571.188475390196 51.860744297724 L 570.46818727495 51.860744297724 L 570.46818727495 51.860744297724 L 570.46818727495 51.860744297724 L 570.46818727495 52.581032412969996 L 569.747899159704 52.581032412969996 L 569.747899159704 52.581032412969996 L 569.747899159704 53.301320528215996 L 569.747899159704 53.301320528215996 L 569.027611044458 53.301320528215996 L 569.027611044458 54.021608643461995 L 569.027611044458 54.021608643461995 L 569.027611044458 54.021608643461995 L 568.307322929212 54.741896758707995 L 568.307322929212 54.741896758707995 L 568.307322929212 55.462184873953994 L 568.307322929212 55.462184873953994 L 567.587034813966 56.182472989199994 L 567.587034813966 56.182472989199994 L 567.587034813966 56.182472989199994 L 567.587034813966 56.90276110444599 L 566.86674669872 56.90276110444599 L 566.86674669872 57.62304921969199 L 566.86674669872 57.62304921969199" stroke="rgb(132, 0, 0)" fill="none" stroke-width="1.440576230492px" stroke-linecap="round"/><path d="M 523.64945978396 57.62304921969199 L 512.84513805527 57.62304921969199" stroke="rgb(132, 0, 0)" fill="none" stroke-width="1.440576230492px" stroke-linecap="round"/><path d="M 592.07683073233 58.34333733493799 L 581.27250900364 58.34333733493799" stroke="rgb(132, 0, 0)" fill="none" stroke-width="1.440576230492px" stroke-linecap="round"/><text x="552.4609843938" y="39.61584633854199" stroke="rgb(245, 241, 237)" stroke-width="1.440576230492px" paint-order="stroke" fill="rgb(15, 15, 15)" font-family="sans-serif" text-anchor="middle" dominant-baseline="ideographic" font-size="12.965186074427999px">L1</text><text x="552.4609843938" y="72.749099639858" fill="rgb(15, 15, 15)" font-family="sans-serif" text-anchor="middle" dominant-baseline="hanging" font-size="12.965186074427999px">470nH</text></g><g data-circuit-json-type="schematic_component" data-schematic-component-id="schematic_component_2"><rect class="component-overlay" x="244.897959183758" y="225.45018007200997" width="38.175270108038006" height="79.23169267705998" fill="transparent"/><path d="M 264.3457382954 304.68187274906995 L 264.3457382954 270.108043217262" stroke="rgb(132, 0, 0)" fill="none" stroke-width="1.440576230492px" stroke-linecap="round"/><path d="M 264.3457382954 258.583433373326 L 264.3457382954 225.45018007200997" stroke="rgb(132, 0, 0)" fill="none" stroke-width="1.440576230492px" stroke-linecap="round"/><path d="M 283.073229291796 270.108043217262 L 244.897959183758 270.108043217262" stroke="rgb(132, 0, 0)" fill="none" stroke-width="1.440576230492px" stroke-linecap="round"/><path d="M 283.073229291796 258.583433373326 L 244.897959183758 258.583433373326" stroke="rgb(132, 0, 0)" fill="none" stroke-width="1.440576230492px" stroke-linecap="round"/><text x="271.188475390237" y="250.66026410561997" stroke="rgb(245, 241, 237)" stroke-width="1.440576230492px" paint-order="stroke" fill="rgb(15, 15, 15)" font-family="sans-serif" text-anchor="start" dominant-baseline="ideographic" font-size="12.965186074427999px">C1</text><text x="271.188475390237" y="279.47178871546" fill="rgb(15, 15, 15)" font-family="sans-serif" text-anchor="start" dominant-baseline="hanging" font-size="12.965186074427999px">10uF</text></g><g data-circuit-json-type="schematic_component" data-schematic-component-id="schematic_component_3"><rect class="component-overlay" x="965.1860744297579" y="268.66746698676997" width="38.175270108038035" height="79.23169267706004" fill="transparent"/><path d="M 984.6338535414 347.89915966383 L 984.6338535414 313.325330132022" stroke="rgb(132, 0, 0)" fill="none" stroke-width="1.440576230492px" stroke-linecap="round"/><path d="M 984.6338535414 301.800720288086 L 984.6338535414 268.66746698676997" stroke="rgb(132, 0, 0)" fill="none" stroke-width="1.440576230492px" stroke-linecap="round"/><path d="M 1003.361344537796 313.325330132022 L 965.1860744297579 313.325330132022" stroke="rgb(132, 0, 0)" fill="none" stroke-width="1.440576230492px" stroke-linecap="round"/><path d="M 1003.361344537796 301.800720288086 L 965.1860744297579 301.800720288086" stroke="rgb(132, 0, 0)" fill="none" stroke-width="1.440576230492px" stroke-linecap="round"/><text x="991.476590636237" y="293.87755102038" stroke="rgb(245, 241, 237)" stroke-width="1.440576230492px" paint-order="stroke" fill="rgb(15, 15, 15)" font-family="sans-serif" text-anchor="start" dominant-baseline="ideographic" font-size="12.965186074427999px">C2</text><text x="991.476590636237" y="322.68907563022" fill="rgb(15, 15, 15)" font-family="sans-serif" text-anchor="start" dominant-baseline="hanging" font-size="12.965186074427999px">22uF</text></g><g data-circuit-json-type="schematic_component" data-schematic-component-id="schematic_component_4"><rect class="component-overlay" x="816.086434573836" y="232.65306122447004" width="19.44777911164192" height="79.23169267705998" fill="transparent"/><path d="M 826.1704681872799 232.65306122447004 L 826.1704681872799 252.82112845135805" stroke="rgb(132, 0, 0)" fill="none" stroke-width="1.440576230492px" stroke-linecap="round"/><path d="M 826.1704681872799 290.996398559396 L 826.1704681872799 311.88475390153" stroke="rgb(132, 0, 0)" fill="none" stroke-width="1.440576230492px" stroke-linecap="round"/><path d="M 835.5342136854779 272.268907563 L 835.5342136854779 290.996398559396 L 816.086434573836 290.996398559396 L 816.086434573836 252.82112845135805 L 835.5342136854779 252.82112845135805 L 835.5342136854779 272.268907563" stroke="rgb(132, 0, 0)" fill="none" stroke-width="1.440576230492px" stroke-linecap="round"/><text x="839.096423769511" y="259.303721488572" stroke="rgb(245, 241, 237)" stroke-width="1.440576230492px" paint-order="stroke" fill="rgb(15, 15, 15)" font-family="sans-serif" text-anchor="start" dominant-baseline="middle" font-size="12.965186074427999px">R1</text><text x="839.096423769511" y="282.352941176444" fill="rgb(15, 15, 15)" font-family="sans-serif" text-anchor="start" dominant-baseline="middle" font-size="12.965186074427999px">511kΩ</text></g><g data-circuit-json-type="schematic_component" data-schematic-component-id="schematic_component_5"><rect class="component-overlay" x="816.086434573836" y="391.11644657859" width="19.44777911164192" height="79.23169267705998" fill="transparent"/><path d="M 826.1704681872799 391.11644657859 L 826.1704681872799 411.284513805478" stroke="rgb(132, 0, 0)" fill="none" stroke-width="1.440576230492px" stroke-linecap="round"/><path d="M 826.1704681872799 449.459783913516 L 826.1704681872799 470.34813925565" stroke="rgb(132, 0, 0)" fill="none" stroke-width="1.440576230492px" stroke-linecap="round"/><path d="M 835.5342136854779 430.73229291712 L 835.5342136854779 449.459783913516 L 816.086434573836 449.459783913516 L 816.086434573836 411.284513805478 L 835.5342136854779 411.284513805478 L 835.5342136854779 430.73229291712" stroke="rgb(132, 0, 0)" fill="none" stroke-width="1.440576230492px" stroke-linecap="round"/><text x="839.096423769511" y="417.767106842692" stroke="rgb(245, 241, 237)" stroke-width="1.440576230492px" paint-order="stroke" fill="rgb(15, 15, 15)" font-family="sans-serif" text-anchor="start" dominant-baseline="middle" font-size="12.965186074427999px">R2</text><text x="839.096423769511" y="440.81632653056397" fill="rgb(15, 15, 15)" font-family="sans-serif" text-anchor="start" dominant-baseline="middle" font-size="12.965186074427999px">91kΩ</text></g><g data-circuit-json-type="schematic_component" data-schematic-component-id="schematic_component_6"><rect class="component-overlay" x="736.8547418967761" y="203.84153661463003" width="19.44777911164192" height="79.23169267706001" fill="transparent"/><path d="M 746.93877551022 203.84153661463003 L 746.93877551022 224.00960384151804" stroke="rgb(132, 0, 0)" fill="none" stroke-width="1.440576230492px" stroke-linecap="round"/><path d="M 746.93877551022 262.18487394955605 L 746.93877551022 283.07322929169004" stroke="rgb(132, 0, 0)" fill="none" stroke-width="1.440576230492px" stroke-linecap="round"/><path d="M 756.302521008418 243.45738295316002 L 756.302521008418 262.18487394955605 L 736.8547418967761 262.18487394955605 L 736.8547418967761 224.00960384151804 L 756.302521008418 224.00960384151804 L 756.302521008418 243.45738295316002" stroke="rgb(132, 0, 0)" fill="none" stroke-width="1.440576230492px" stroke-linecap="round"/><text x="759.8647310924512" y="230.49219687873205" stroke="rgb(245, 241, 237)" stroke-width="1.440576230492px" paint-order="stroke" fill="rgb(15, 15, 15)" font-family="sans-serif" text-anchor="start" dominant-baseline="middle" font-size="12.965186074427999px">R3</text><text x="759.8647310924512" y="253.54141656660403" fill="rgb(15, 15, 15)" font-family="sans-serif" text-anchor="start" dominant-baseline="middle" font-size="12.965186074427999px">100kΩ</text></g><g class="schematic-port-hover" data-schematic-port-id="source_port_0"><circle cx="433.61344537821003" cy="301.08043217284" r="2.881152460984" fill="red" opacity="0"/></g><g class="schematic-port-hover" data-schematic-port-id="source_port_1"><circle cx="433.61344537821003" cy="387.51500600236" r="2.881152460984" fill="red" opacity="0"/></g><g class="schematic-port-hover" data-schematic-port-id="source_port_2"><circle cx="671.30852340939" cy="473.94957983188" r="2.881152460984" fill="red" opacity="0"/></g><g class="schematic-port-hover" data-schematic-port-id="source_port_3"><circle cx="671.30852340939" cy="387.51500600236" r="2.881152460984" fill="red" opacity="0"/></g><g class="schematic-port-hover" data-schematic-port-id="source_port_4"><circle cx="671.30852340939" cy="301.08043217284" r="2.881152460984" fill="red" opacity="0"/></g><g class="schematic-port-hover" data-schematic-port-id="source_port_5"><circle cx="671.30852340939" cy="214.64585834332" r="2.881152460984" fill="red" opacity="0"/></g><g class="schematic-port-hover" data-schematic-port-id="source_port_6"><circle cx="595.67827130856" cy="99.39975990395999" r="2.881152460984" fill="red" opacity="0"/></g><g class="schematic-port-hover" data-schematic-port-id="source_port_7"><circle cx="433.61344537821003" cy="473.94957983188" r="2.881152460984" fill="red" opacity="0"/></g><g class="schematic-port-hover" data-schematic-port-id="source_port_8"><circle cx="509.24369747904" cy="99.39975990395999" r="2.881152460984" fill="red" opacity="0"/></g><g class="schematic-port-hover" data-schematic-port-id="source_port_9"><circle cx="433.61344537821003" cy="214.64585834332" r="2.881152460984" fill="red" opacity="0"/></g><g class="schematic-port-hover" data-schematic-port-id="source_port_10"><circle cx="512.84513805527" cy="57.62304921969201" r="2.881152460984" fill="red" opacity="0"/></g><g class="schematic-port-hover" data-schematic-port-id="source_port_11"><circle cx="592.07683073233" cy="58.343337334937985" r="2.881152460984" fill="red" opacity="0"/></g><g class="schematic-port-hover" data-schematic-port-id="source_port_12"><circle cx="264.3457382954" cy="225.45018007200997" r="2.881152460984" fill="red" opacity="0"/></g><g class="schematic-port-hover" data-schematic-port-id="source_port_13"><circle cx="264.3457382954" cy="304.68187274907" r="2.881152460984" fill="red" opacity="0"/></g><g class="schematic-port-hover" data-schematic-port-id="source_port_14"><circle cx="984.6338535414" cy="268.66746698677" r="2.881152460984" fill="red" opacity="0"/></g><g class="schematic-port-hover" data-schematic-port-id="source_port_15"><circle cx="984.6338535414" cy="347.89915966383" r="2.881152460984" fill="red" opacity="0"/></g><g class="schematic-port-hover" data-schematic-port-id="source_port_16"><circle cx="826.17046818728" cy="232.65306122447" r="2.881152460984" fill="red" opacity="0"/></g><g class="schematic-port-hover" data-schematic-port-id="source_port_17"><circle cx="826.17046818728" cy="311.88475390153" r="2.881152460984" fill="red" opacity="0"/></g><g class="schematic-port-hover" data-schematic-port-id="source_port_18"><circle cx="826.17046818728" cy="391.11644657859" r="2.881152460984" fill="red" opacity="0"/></g><g class="schematic-port-hover" data-schematic-port-id="source_port_19"><circle cx="826.17046818728" cy="470.34813925565004" r="2.881152460984" fill="red" opacity="0"/></g><g class="schematic-port-hover" data-schematic-port-id="source_port_20"><circle cx="746.93877551022" cy="203.84153661463003" r="2.881152460984" fill="red" opacity="0"/></g><g class="schematic-port-hover" data-schematic-port-id="source_port_21"><circle cx="746.93877551022" cy="283.07322929169004" r="2.881152460984" fill="red" opacity="0"/></g><path class="net-label" d="
    M 141.89675870357996,214.64585834332
    L 138.00720288125157,222.4249699879768
    L 108.68667466997107,222.4249699879768
    L 108.68667466997107,206.86674669866318
    L 138.00720288125157,206.86674669866318
    Z
  " fill="rgba(255, 255, 255, 0.6)" stroke="rgb(132, 0, 0)" stroke-width="1.440576230492px"/><text class="net-label-text" x="135.41416566636596" y="214.64585834332" fill="rgb(132, 0, 0)" text-anchor="end" dominant-baseline="central" font-family="sans-serif" font-variant-numeric="tabular-nums" font-size="12.965186074427999px" transform="">VIN</text><path class="net-label" d="
    M 1056.662665066,214.64585834332
    L 1060.5522208883285,206.86674669866318
    L 1103.6158463385027,206.86674669866318
    L 1103.6158463385027,222.4249699879768
    L 1060.5522208883285,222.4249699879768
    Z
  " fill="rgba(255, 255, 255, 0.6)" stroke="rgb(132, 0, 0)" stroke-width="1.440576230492px"/><text class="net-label-text" x="1063.145258103214" y="214.64585834332" fill="rgb(132, 0, 0)" text-anchor="start" dominant-baseline="central" font-family="sans-serif" font-variant-numeric="tabular-nums" font-size="12.965186074427999px" transform="">VOUT</text><rect class="component-overlay" x="738.295318127268" y="190.876350540202" width="17.28691476590393" height="12.965186074428004" fill="transparent"/><path d="M 755.582232893172 190.876350540202 L 738.295318127268 190.876350540202" stroke="rgb(132, 0, 0)" fill="none" stroke-width="1.440576230492px" stroke-linecap="round"/><path d="M 746.93877551022 190.876350540202 L 746.93877551022 203.84153661463" stroke="rgb(132, 0, 0)" fill="none" stroke-width="1.440576230492px" stroke-linecap="round"/><text x="746.93877551022" y="187.274909963972" fill="rgb(15, 15, 15)" font-family="sans-serif" text-anchor="middle" dominant-baseline="ideographic" font-size="12.965186074427999px">VIN</text><rect class="component-overlay" x="255.702280912448" y="473.9495798318801" width="17.286914765904015" height="12.965186074427947" fill="transparent"/><path d="M 255.702280912448 486.91476590630805 L 272.989195678352 486.91476590630805" stroke="rgb(132, 0, 0)" fill="none" stroke-width="1.440576230492px" stroke-linecap="round"/><path d="M 264.3457382954 486.91476590630805 L 264.3457382954 473.9495798318801" stroke="rgb(132, 0, 0)" fill="none" stroke-width="1.440576230492px" stroke-linecap="round"/><text x="264.3457382954" y="490.51620648253805" fill="rgb(15, 15, 15)" font-family="sans-serif" text-anchor="middle" dominant-baseline="hanging" font-size="12.965186074427999px">GND</text><rect class="component-overlay" x="740.096038415383" y="473.94957983188004" width="17.28691476590393" height="12.965186074427947" fill="transparent"/><path d="M 740.096038415383 486.914765906308 L 757.3829531812869 486.914765906308" stroke="rgb(132, 0, 0)" fill="none" stroke-width="1.440576230492px" stroke-linecap="round"/><path d="M 748.7394957983349 486.914765906308 L 748.7394957983349 473.94957983188004" stroke="rgb(132, 0, 0)" fill="none" stroke-width="1.440576230492px" stroke-linecap="round"/><text x="748.7394957983349" y="490.516206482538" fill="rgb(15, 15, 15)" font-family="sans-serif" text-anchor="middle" dominant-baseline="hanging" font-size="12.965186074427999px">GND</text><rect class="component-overlay" x="975.990396158448" y="347.89915966383" width="17.28691476590393" height="12.965186074427947" fill="transparent"/><path d="M 975.990396158448 360.86434573825795 L 993.2773109243519 360.86434573825795" stroke="rgb(132, 0, 0)" fill="none" stroke-width="1.440576230492px" stroke-linecap="round"/><path d="M 984.6338535414 360.86434573825795 L 984.6338535414 347.89915966383" stroke="rgb(132, 0, 0)" fill="none" stroke-width="1.440576230492px" stroke-linecap="round"/><text x="984.6338535414" y="364.46578631448796" fill="rgb(15, 15, 15)" font-family="sans-serif" text-anchor="middle" dominant-baseline="hanging" font-size="12.965186074427999px">GND</text><rect class="component-overlay" x="975.990396158448" y="205.282112845122" width="17.28691476590393" height="12.965186074428004" fill="transparent"/><path d="M 993.2773109243519 205.282112845122 L 975.990396158448 205.282112845122" stroke="rgb(132, 0, 0)" fill="none" stroke-width="1.440576230492px" stroke-linecap="round"/><path d="M 984.6338535414 205.282112845122 L 984.6338535414 218.24729891955" stroke="rgb(132, 0, 0)" fill="none" stroke-width="1.440576230492px" stroke-linecap="round"/><text x="984.6338535414" y="201.68067226889198" fill="rgb(15, 15, 15)" font-family="sans-serif" text-anchor="middle" dominant-baseline="ideographic" font-size="12.965186074427999px">VOUT</text><text x="120.2881152462" y="185.83433373347998" fill="#000000" text-anchor="middle" dominant-baseline="middle" font-family="sans-serif" font-size="12.965186074427999px" transform="rotate(0, 120.2881152462, 185.83433373347998)">VIN 1.3V-5.5V</text><text x="1092.6770708283" y="185.83433373347998" fill="#000000" text-anchor="middle" dominant-baseline="middle" font-family="sans-serif" font-size="12.965186074427999px" transform="rotate(0, 1092.6770708283, 185.83433373347998)">VOUT = 3.3V</text></svg>