<svg xmlns="http://www.w3.org/2000/svg" class="tscircuit-schematic" width="1200" height="600" style="background-color: rgb(245, 241, 237)" data-real-to-screen-transform="matrix(141.1764705882,0,0,-141.1764705882,628.2352941176,299.0494117647)"><style>
              .boundary { fill: rgb(245, 241, 237); }
              .schematic-boundary { fill: none; stroke: #fff; }
              .component { fill: none; stroke: rgb(132, 0, 0); }
              .chip { fill: rgb(255, 255, 194); stroke: rgb(132, 0, 0); }
              .component-pin { fill: none; stroke: rgb(132, 0, 0); }
              .text { font-family: sans-serif; fill: rgb(0, 150, 0); }
              .pin-number { fill: rgb(169, 0, 0); }
              .port-label { fill: rgb(0, 100, 100); }
              .component-name { fill: rgb(0, 100, 100); }
              
            </style><rect class="boundary" x="0" y="0" width="1200" height="600"/><g class="trace sch-trace" data-layer="base" data-circuit-json-type="schematic_trace" data-schematic-trace-id="schematic_trace_0" data-subcircuit-connectivity-map-key="unnamedsubcircuitsubcircuit_source_group_0_connectivity_net0"><path d="M 200.76529411770684 249.26712235294775 L 134.1176470589 249.26712235294775 L 134.1176470589 273.637647058824 L 134.1176470589 284.93176470587997" class="trace-invisible-hover-outline sch-trace-hitbox" stroke="rgb(0, 150, 0)" fill="none" stroke-width="22.588235294112px" stroke-linecap="round" opacity="0" stroke-linejoin="round"/><path class="sch-trace-path" d="M 200.76529411770684 249.26712235294775 L 134.1176470589 249.26712235294775 L 134.1176470589 273.637647058824 L 134.1176470589 284.93176470587997" stroke="rgb(0, 150, 0)" fill="none" stroke-width="2.823529411764px" stroke-linecap="round" stroke-linejoin="round"/></g><g class="trace sch-trace" data-layer="base" data-circuit-json-type="schematic_trace" data-schematic-trace-id="schematic_trace_1" data-subcircuit-connectivity-map-key="unnamedsubcircuitsubcircuit_source_group_0_connectivity_net1"><path d="M 430.58823529412 249.63764705883 L 349.82294117649315 249.63764705883 L 349.82294117649315 250.00817176471222" class="trace-invisible-hover-outline sch-trace-hitbox" stroke="rgb(0, 150, 0)" fill="none" stroke-width="22.588235294112px" stroke-linecap="round" opacity="0" stroke-linejoin="round"/><path class="sch-trace-path" d="M 430.58823529412 249.63764705883 L 349.82294117649315 249.63764705883 L 349.82294117649315 250.00817176471222" stroke="rgb(0, 150, 0)" fill="none" stroke-width="2.823529411764px" stroke-linecap="round" stroke-linejoin="round"/></g><g class="trace sch-trace" data-layer="base" data-circuit-json-type="schematic_trace" data-schematic-trace-id="schematic_trace_2" data-subcircuit-connectivity-map-key="unnamedsubcircuitsubcircuit_source_group_0_connectivity_net3"><path d="M 825.88235294108 249.63764705882997 L 1065.8823529410201 249.63764705882997 L 1065.8823529410201 259.52000000000396 L 1065.8823529410201 270.81411764705996" class="trace-invisible-hover-outline sch-trace-hitbox" stroke="rgb(0, 150, 0)" fill="none" stroke-width="22.588235294112px" stroke-linecap="round" opacity="0" stroke-linejoin="round"/><path class="sch-trace-path" d="M 825.88235294108 249.63764705882997 L 1065.8823529410201 249.63764705882997 L 1065.8823529410201 259.52000000000396 L 1065.8823529410201 270.81411764705996" stroke="rgb(0, 150, 0)" fill="none" stroke-width="2.823529411764px" stroke-linecap="round" stroke-linejoin="round"/></g><g class="trace sch-trace" data-layer="base" data-circuit-json-type="schematic_trace" data-schematic-trace-id="schematic_trace_3" data-subcircuit-connectivity-map-key="unnamedsubcircuitsubcircuit_source_group_0_connectivity_net3"><path d="M 825.88235294108 306.10823529411 L 854.11764705872 306.10823529411 L 854.11764705872 249.63764705882997 L 825.88235294108 249.63764705882997" class="trace-invisible-hover-outline sch-trace-hitbox" stroke="rgb(0, 150, 0)" fill="none" stroke-width="22.588235294112px" stroke-linecap="round" opacity="0" stroke-linejoin="round"/><path class="sch-trace-path" d="M 825.88235294108 306.10823529411 L 854.11764705872 306.10823529411 L 854.11764705872 249.63764705882997 L 825.88235294108 249.63764705882997" stroke="rgb(0, 150, 0)" fill="none" stroke-width="2.823529411764px" stroke-linecap="round" stroke-linejoin="round"/></g><g class="trace sch-trace" data-layer="base" data-circuit-json-type="schematic_trace" data-schematic-trace-id="schematic_trace_4" data-subcircuit-connectivity-map-key="unnamedsubcircuitsubcircuit_source_group_0_connectivity_net4"><path d="M 825.88235294108 362.57882352939 L 854.1176470587201 362.57882352939 L 854.1176470587201 395.049411764676 L 1065.8823529410201 395.049411764676 L 1065.8823529410201 366.814117647036 L 1065.8823529410201 355.51999999998" class="trace-invisible-hover-outline sch-trace-hitbox" stroke="rgb(0, 150, 0)" fill="none" stroke-width="22.588235294112px" stroke-linecap="round" opacity="0" stroke-linejoin="round"/><path class="sch-trace-path" d="M 825.88235294108 362.57882352939 L 854.1176470587201 362.57882352939 L 854.1176470587201 395.049411764676 L 1065.8823529410201 395.049411764676 L 1065.8823529410201 366.814117647036 L 1065.8823529410201 355.51999999998" stroke="rgb(0, 150, 0)" fill="none" stroke-width="2.823529411764px" stroke-linecap="round" stroke-linejoin="round"/></g><g class="trace sch-trace" data-layer="base" data-circuit-json-type="schematic_trace" data-schematic-trace-id="schematic_trace_5" data-subcircuit-connectivity-map-key="unnamedsubcircuitsubcircuit_source_group_0_connectivity_net4"><path d="M 134.1176470589 369.6376470588 L 134.1176470589 380.931764705856 L 134.1176470589 409.167058823496 L 854.1176470587201 409.167058823496 L 854.1176470587201 362.57882352939 L 825.8823529410801 362.57882352939" class="trace-invisible-hover-outline sch-trace-hitbox" stroke="rgb(0, 150, 0)" fill="none" stroke-width="22.588235294112px" stroke-linecap="round" opacity="0" stroke-linejoin="round"/><path class="sch-trace-path" d="M 134.1176470589 369.6376470588 L 134.1176470589 380.931764705856 L 134.1176470589 409.167058823496 L 854.1176470587201 409.167058823496 L 854.1176470587201 362.57882352939 L 825.8823529410801 362.57882352939" stroke="rgb(0, 150, 0)" fill="none" stroke-width="2.823529411764px" stroke-linecap="round" stroke-linejoin="round"/></g><g class="trace-overlays sch-trace-overlays" data-layer="overlay" data-circuit-json-type="schematic_trace" data-schematic-trace-id="schematic_trace_0" data-subcircuit-connectivity-map-key="unnamedsubcircuitsubcircuit_source_group_0_connectivity_net0"/><g class="trace-overlays sch-trace-overlays" data-layer="overlay" data-circuit-json-type="schematic_trace" data-schematic-trace-id="schematic_trace_1" data-subcircuit-connectivity-map-key="unnamedsubcircuitsubcircuit_source_group_0_connectivity_net1"/><g class="trace-overlays sch-trace-overlays" data-layer="overlay" data-circuit-json-type="schematic_trace" data-schematic-trace-id="schematic_trace_2" data-subcircuit-connectivity-map-key="unnamedsubcircuitsubcircuit_source_group_0_connectivity_net3"><circle cx="854.11764705872" cy="249.63764705882997" r="4.235294117646" class="trace-junction sch-trace-junction" fill="rgb(0, 150, 0)"/></g><g class="trace-overlays sch-trace-overlays" data-layer="overlay" data-circuit-json-type="schematic_trace" data-schematic-trace-id="schematic_trace_3" data-subcircuit-connectivity-map-key="unnamedsubcircuitsubcircuit_source_group_0_connectivity_net3"><circle cx="854.11764705872" cy="249.63764705882997" r="4.235294117646" class="trace-junction sch-trace-junction" fill="rgb(0, 150, 0)"/></g><g class="trace-overlays sch-trace-overlays" data-layer="overlay" data-circuit-json-type="schematic_trace" data-schematic-trace-id="schematic_trace_4" data-subcircuit-connectivity-map-key="unnamedsubcircuitsubcircuit_source_group_0_connectivity_net4"><circle cx="854.1176470587201" cy="395.049411764676" r="4.235294117646" class="trace-junction sch-trace-junction" fill="rgb(0, 150, 0)"/></g><g class="trace-overlays sch-trace-overlays" data-layer="overlay" data-circuit-json-type="schematic_trace" data-schematic-trace-id="schematic_trace_5" data-subcircuit-connectivity-map-key="unnamedsubcircuitsubcircuit_source_group_0_connectivity_net4"><circle cx="854.1176470587201" cy="395.049411764676" r="4.235294117646" class="trace-junction sch-trace-junction" fill="rgb(0, 150, 0)"/></g><line class="sch-line" x1="341.647058823554" y1="341.40235294115996" x2="303.52941176474" y2="341.40235294115996" stroke="rgba(132, 0, 0)" stroke-width="1.411764705882" data-schematic-line-id="schematic_line_0"/><line class="sch-line" x1="303.52941176474" y1="369.6376470588" x2="303.52941176474" y2="341.40235294115996" stroke="rgba(132, 0, 0)" stroke-width="1.411764705882" data-schematic-line-id="schematic_line_1"/><line class="sch-line" x1="303.52941176474" y1="369.6376470588" x2="265.41176470592603" y2="369.6376470588" stroke="rgba(132, 0, 0)" stroke-width="1.411764705882" data-schematic-line-id="schematic_line_2"/><g class="sch-component" data-circuit-json-type="schematic_component" data-schematic-component-id="schematic_component_0"><rect class="component chip sch-component-body" x="487.0588235294" y="193.16705882354998" width="282.3529411764" height="211.76470588230004" stroke-width="2.823529411764px" fill="rgb(255, 255, 194)" stroke="rgb(132, 0, 0)"/><rect class="component-overlay sch-component-overlay" x="487.0588235294" y="193.16705882354998" width="282.3529411764" height="211.76470588230004" fill="transparent"/><text class="sch-text" x="487.0588235294" y="423.28470588231596" fill="#006464" text-anchor="start" dominant-baseline="middle" font-family="sans-serif" font-size="25.411764705876px" transform="rotate(0, 487.0588235294, 423.28470588231596)">TPS61299DRLR</text><text class="sch-text" x="487.0588235294" y="174.81411764708398" fill="#006464" text-anchor="start" dominant-baseline="middle" font-family="sans-serif" font-size="25.411764705876px" transform="rotate(0, 487.0588235294, 174.81411764708398)">U1</text><line class="component-pin sch-component-pin sch-port-line" x1="487.0588235294" y1="306.10823529411" x2="430.58823529412" y2="306.10823529411" stroke-width="2.823529411764px"/><g class="sch-port" data-schematic-port-id="source_port_0"><rect x="427.764705882356" y="303.284705882346" width="5.647058823528" height="5.647058823528" opacity="0"/></g><text class="pin-number sch-pin-number" x="458.82352941176" y="303.284705882346" style="font-family: sans-serif;" fill="rgb(169, 0, 0)" text-anchor="middle" dominant-baseline="auto" font-size="21.17647058823px" transform="">1</text><text class="pin-number sch-pin-label" x="501.17647058822" y="306.10823529411" style="font-family: sans-serif;" fill="rgb(169, 0, 0)" text-anchor="start" dominant-baseline="middle" font-size="21.17647058823px" transform="">VIN</text><line class="component-pin sch-component-pin sch-port-line" x1="487.0588235294" y1="249.63764705883" x2="430.58823529412" y2="249.63764705883" stroke-width="2.823529411764px"/><g class="sch-port" data-schematic-port-id="source_port_1"><rect x="427.764705882356" y="246.81411764706598" width="5.647058823528" height="5.647058823528" opacity="0"/></g><text class="pin-number sch-pin-number" x="458.82352941176" y="246.81411764706598" style="font-family: sans-serif;" fill="rgb(169, 0, 0)" text-anchor="middle" dominant-baseline="auto" font-size="21.17647058823px" transform="">2</text><text class="pin-number sch-pin-label" x="501.17647058822" y="249.63764705883" style="font-family: sans-serif;" fill="rgb(169, 0, 0)" text-anchor="start" dominant-baseline="middle" font-size="21.17647058823px" transform="">SW</text><line class="component-pin sch-component-pin sch-port-line" x1="487.0588235294" y1="362.57882352939" x2="430.58823529412" y2="362.57882352939" stroke-width="2.823529411764px"/><g class="sch-port" data-schematic-port-id="source_port_2"><rect x="427.764705882356" y="359.75529411762597" width="5.647058823528" height="5.647058823528" opacity="0"/></g><text class="pin-number sch-pin-number" x="458.82352941176" y="359.75529411762597" style="font-family: sans-serif;" fill="rgb(169, 0, 0)" text-anchor="middle" dominant-baseline="auto" font-size="21.17647058823px" transform="">3</text><text class="pin-number sch-pin-label" x="501.17647058822" y="362.57882352939" style="font-family: sans-serif;" fill="rgb(169, 0, 0)" text-anchor="start" dominant-baseline="middle" font-size="21.17647058823px" transform="">EN</text><line class="component-pin sch-component-pin sch-port-line" x1="769.4117647058" y1="306.10823529411" x2="825.88235294108" y2="306.10823529411" stroke-width="2.823529411764px"/><g class="sch-port" data-schematic-port-id="source_port_3"><rect x="823.058823529316" y="303.284705882346" width="5.647058823528" height="5.647058823528" opacity="0"/></g><text class="pin-number sch-pin-number" x="797.64705882344" y="303.284705882346" style="font-family: sans-serif;" fill="rgb(169, 0, 0)" text-anchor="middle" dominant-baseline="auto" font-size="21.17647058823px" transform="">4</text><text class="pin-number sch-pin-label" x="755.29411764698" y="306.10823529411" style="font-family: sans-serif;" fill="rgb(169, 0, 0)" text-anchor="end" dominant-baseline="middle" font-size="21.17647058823px" transform="">VSEL</text><line class="component-pin sch-component-pin sch-port-line" x1="769.4117647058" y1="249.63764705882997" x2="825.88235294108" y2="249.63764705882997" stroke-width="2.823529411764px"/><g class="sch-port" data-schematic-port-id="source_port_4"><rect x="823.058823529316" y="246.81411764706596" width="5.647058823528" height="5.647058823528" opacity="0"/></g><text class="pin-number sch-pin-number" x="797.64705882344" y="246.81411764706598" style="font-family: sans-serif;" fill="rgb(169, 0, 0)" text-anchor="middle" dominant-baseline="auto" font-size="21.17647058823px" transform="">5</text><text class="pin-number sch-pin-label" x="755.29411764698" y="249.63764705882997" style="font-family: sans-serif;" fill="rgb(169, 0, 0)" text-anchor="end" dominant-baseline="middle" font-size="21.17647058823px" transform="">VOUT</text><line class="component-pin sch-component-pin sch-port-line" x1="769.4117647058" y1="362.57882352939" x2="825.88235294108" y2="362.57882352939" stroke-width="2.823529411764px"/><g class="sch-port" data-schematic-port-id="source_port_5"><rect x="823.058823529316" y="359.75529411762597" width="5.647058823528" height="5.647058823528" opacity="0"/></g><text class="pin-number sch-pin-number" x="797.64705882344" y="359.75529411762597" style="font-family: sans-serif;" fill="rgb(169, 0, 0)" text-anchor="middle" dominant-baseline="auto" font-size="21.17647058823px" transform="">6</text><text class="pin-number sch-pin-label" x="755.29411764698" y="362.57882352939" style="font-family: sans-serif;" fill="rgb(169, 0, 0)" text-anchor="end" dominant-baseline="middle" font-size="21.17647058823px" transform="">GND</text></g><g class="sch-component" data-circuit-json-type="schematic_component" data-schematic-component-id="schematic_component_1"><rect class="component-overlay sch-component-overlay" x="200.85296470594224" y="235.56910823530416" width="149.01451764702156" height="14.522329411761007" fill="transparent"/><path class="sch-component-symbol-path" d="M 247.3457647059306 249.62778588235938 L 246.99430023534248 248.94541494957707 L 246.64283576475432 248.26508416734777 L 246.29137129416617 247.58882110801784 L 245.939906823578 246.91862826506943 L 245.5884423529899 246.25647070708203 L 245.23697788240173 245.60426396243142 L 244.88551341181358 244.96386220942014 L 244.53404894122542 244.33704684465172 L 244.18258447063727 243.72551550012824 L 243.83112000004914 243.13087157678456 L 243.47965552946098 242.55461435898823 L 243.12819105887283 241.998129770953 L 242.77672658828467 241.46268183205504 L 242.42526211769655 240.9494048637332 L 242.0737976471084 240.45929649602007 L 241.72233317652024 239.99321151682128 L 241.37086870593208 239.55185660186353 L 241.01940423534393 239.135785957804 L 240.66793976475577 238.74539790536187 L 240.31647529416765 238.38093242353867 L 239.9650108235795 238.04246967006793 L 239.61354635299134 237.7299294872161 L 239.26208188240318 237.4430718959817 L 238.91061741181505 237.1814985756455 L 238.5591529412269 236.94465531955038 L 238.20768847063874 236.73183545196954 L 237.8562240000506 236.54218418499747 L 237.50475952946243 236.3747038886015 L 237.15329505887428 236.22826024134275 L 236.80183058828615 236.10158922384514 L 236.450366117698 235.99330491189488 L 236.09890164710984 235.90190802112443 L 235.7474371765217 235.8257951505989 L 235.39597270593356 235.76326866831624 L 235.0445082353454 235.71254717767292 L 234.69304376475725 235.67177650036635 L 234.3415792941691 235.63904110802082 L 233.99011482358094 235.6123759320568 L 233.63865035299278 235.58977847899217 L 233.28718588240466 235.56922117648054 L 232.9357217647577 235.58977847899217 L 232.58425764711072 235.6123759320568 L 232.23279352946375 235.63904110802082 L 231.88132941181678 235.67177650036635 L 231.5298652941698 235.71254717767292 L 231.17840117652284 235.76326866831624 L 230.82693705887587 235.8257951505989 L 230.4754729412289 235.90190802112443 L 230.12400882358193 235.99330491189488 L 229.77254470593496 236.10158922384514 L 229.421080588288 236.22826024134275 L 229.06961647064102 236.3747038886015 L 228.71815235299405 236.54218418499747 L 228.36668823534708 236.73183545196954 L 228.01522411770011 236.94465531955038 L 227.66376000005314 237.1814985756455 L 227.31229588240618 237.4430718959817 L 226.9608317647592 237.7299294872161 L 226.60936764711224 238.04246967006793 L 226.25790352946527 238.38093242353867 L 225.90643941181827 238.74539790536187 L 225.55497529417133 239.135785957804 L 225.20351117652436 239.55185660186353 L 224.8520470588774 239.99321151682128 L 224.50058294123042 240.45929649602007 L 224.14911882358345 240.9494048637332 L 223.79765470593648 241.46268183205504 L 223.4461905882895 241.998129770953 L 223.09472647064254 242.55461435898823 L 222.74326235299557 243.13087157678456 L 222.3917982353486 243.72551550012824 L 222.04033411770163 244.33704684465172 L 221.68887000005466 244.96386220942014 L 221.3374058824077 245.60426396243142 L 220.98594176476072 246.25647070708203 L 220.63447764711375 246.91862826506943 L 220.28301352946679 247.58882110801784 L 219.93154941181982 248.26508416734777 L 219.58008529417285 248.94541494957707 L 219.22862117652588 249.62778588235938" stroke="rgb(132, 0, 0)" fill="none" stroke-width="2.823529411764px" stroke-linecap="round"/><path class="sch-component-symbol-path" d="M 275.4628941176883 249.62768705883002 L 275.1114300000413 248.94531577310656 L 274.75996588239434 248.26498463793607 L 274.40850176474737 247.58872122566498 L 274.0570376471004 246.9185280297754 L 273.70557352945343 246.2563701188468 L 273.35410941180646 245.60416302125503 L 273.0026452941595 244.96376091530257 L 272.6511811765125 244.33694519759297 L 272.29971705886555 243.72541350012833 L 271.94825294121864 243.13076922384346 L 271.59678882357167 242.55451165310595 L 271.2453247059247 241.99802671212956 L 270.89386058827773 241.4625784202904 L 270.54239647063076 240.9493010990274 L 270.1909323529838 240.4591923783731 L 269.8394682353368 239.99310704623312 L 269.48800411768985 239.5517517783342 L 269.1365400000429 239.1356807813335 L 268.7850758823959 238.74529237595019 L 268.43361176474895 238.3808265411858 L 268.082147647102 238.04236343477388 L 267.730683529455 237.7298228989809 L 267.37921941180804 237.44296495480532 L 267.02775529416107 237.18139128152794 L 266.6762911765141 236.94454767249164 L 266.32482705886713 236.73172745196962 L 265.97336294122016 236.54207583205636 L 265.6218988235732 236.37459518271922 L 265.2704347059262 236.2281511825193 L 264.91897058827925 236.1014798120805 L 264.5675064706323 235.99319514718908 L 264.2160423529853 235.90179790347744 L 263.86457823533834 235.82568468001074 L 263.5131141176914 235.76315784478692 L 263.1616500000444 235.7124360012024 L 262.81018588239743 235.67166497095468 L 262.45872176475046 235.638929225668 L 262.1072576471035 235.61226369676277 L 261.7557935294565 235.58966589075698 L 261.40432941180956 235.56910823530416 L 261.0528649412214 235.58966589075698 L 260.70140047063325 235.61226369676277 L 260.3499360000451 235.638929225668 L 259.99847152945694 235.67166497095468 L 259.6470070588688 235.7124360012024 L 259.2955425882807 235.76315784478692 L 258.9440781176925 235.82568468001074 L 258.5926136471044 235.90179790347744 L 258.2411491765162 235.99319514718908 L 257.88968470592806 236.1014798120805 L 257.5382202353399 236.2281511825193 L 257.18675576475175 236.37459518271922 L 256.8352912941636 236.54207583205636 L 256.48382682357544 236.73172745196962 L 256.13236235298734 236.94454767249164 L 255.78089788239916 237.18139128152794 L 255.429433411811 237.44296495480532 L 255.07796894122288 237.7298228989809 L 254.72650447063472 238.04236343477388 L 254.37504000004657 238.3808265411858 L 254.0235755294584 238.74529237595019 L 253.67211105887026 239.1356807813335 L 253.32064658828213 239.5517517783342 L 252.96918211769398 239.99310704623312 L 252.61771764710582 240.4591923783731 L 252.26625317651767 240.9493010990274 L 251.91478870592954 241.4625784202904 L 251.56332423534138 241.99802671212956 L 251.21185976475323 242.55451165310595 L 250.86039529416507 243.13076922384346 L 250.50893082357692 243.72541350012833 L 250.15746635298876 244.33694519759297 L 249.80600188240064 244.96376091530257 L 249.45453741181248 245.60416302125503 L 249.10307294122433 246.2563701188468 L 248.75160847063617 246.9185280297754 L 248.40014400004804 247.58872122566498 L 248.0486795294599 248.26498463793607 L 247.69721505887173 248.94531577310656 L 247.34575058828358 249.62768705883002" stroke="rgb(132, 0, 0)" fill="none" stroke-width="2.823529411764px" stroke-linecap="round"/><path class="sch-component-symbol-path" d="M 303.58003764709304 249.62768705883002 L 303.2285731765049 248.94531577310656 L 302.8771087059167 248.26498463793607 L 302.52564423532857 247.58872122566498 L 302.1741797647404 246.9185280297754 L 301.82271529415226 246.2563701188468 L 301.4712508235641 245.60416302125503 L 301.11978635297595 244.96376091530257 L 300.7683218823878 244.33694519759297 L 300.4168574117997 243.72541350012833 L 300.06539294121154 243.13076922384346 L 299.7139284706234 242.55451165310595 L 299.36246400003523 241.99802671212956 L 299.0109995294471 241.4625784202904 L 298.6595350588589 240.9493010990274 L 298.30807058827077 240.4591923783731 L 297.9566061176826 239.99310704623312 L 297.60514164709446 239.5517517783342 L 297.25367717650636 239.1356807813335 L 296.9022127059182 238.74529237595019 L 296.55074823533005 238.3808265411858 L 296.1992837647419 238.04236343477388 L 295.84781929415374 237.7298228989809 L 295.4963548235656 237.44296495480532 L 295.1448903529774 237.18139128152794 L 294.7934258823893 236.94454767249164 L 294.4419614118011 236.73172745196962 L 294.09049694121296 236.54207583205636 L 293.73903247062486 236.37459518271922 L 293.3875680000367 236.2281511825193 L 293.03610352944855 236.1014798120805 L 292.6846390588604 235.99319514718908 L 292.33317458827224 235.90179790347744 L 291.9817101176841 235.82568468001074 L 291.63024564709593 235.76315784478692 L 291.2787811765078 235.7124360012024 L 290.9273167059196 235.67166497095468 L 290.57585223533147 235.638929225668 L 290.22438776474337 235.61226369676277 L 289.8729232941552 235.58966589075698 L 289.52145882356706 235.56910823530416 L 289.1699947059201 235.58966589075698 L 288.8185305882731 235.61226369676277 L 288.46706647062615 235.638929225668 L 288.1156023529792 235.67166497095468 L 287.7641382353322 235.7124360012024 L 287.41267411768524 235.76315784478692 L 287.0612100000383 235.82568468001074 L 286.7097458823913 235.90179790347744 L 286.35828176474433 235.99319514718908 L 286.00681764709736 236.1014798120805 L 285.6553535294504 236.2281511825193 L 285.3038894118034 236.37459518271922 L 284.95242529415646 236.54207583205636 L 284.6009611765095 236.73172745196962 L 284.2494970588625 236.94454767249164 L 283.89803294121555 237.18139128152794 L 283.5465688235686 237.44296495480532 L 283.1951047059216 237.7298228989809 L 282.84364058827464 238.04236343477388 L 282.49217647062767 238.3808265411858 L 282.1407123529807 238.74529237595019 L 281.78924823533373 239.1356807813335 L 281.43778411768676 239.5517517783342 L 281.0863200000398 239.99310704623312 L 280.7348558823928 240.4591923783731 L 280.38339176474585 240.9493010990274 L 280.0319276470989 241.4625784202904 L 279.6804635294519 241.99802671212956 L 279.32899941180494 242.55451165310595 L 278.977535294158 243.13076922384346 L 278.626071176511 243.72541350012833 L 278.27460705886404 244.33694519759297 L 277.92314294121707 244.96376091530257 L 277.5716788235701 245.60416302125503 L 277.2202147059231 246.2563701188468 L 276.86875058827616 246.9185280297754 L 276.5172864706292 247.58872122566498 L 276.1658223529822 248.26498463793607 L 275.81435823533525 248.94531577310656 L 275.4628941176883 249.62768705883002" stroke="rgb(132, 0, 0)" fill="none" stroke-width="2.823529411764px" stroke-linecap="round"/><path class="sch-component-symbol-path" d="M 331.6971670588507 249.62768705883002 L 331.34570294120374 248.94531577310656 L 330.99423882355677 248.26498463793607 L 330.6427747059098 247.58872122566498 L 330.29131058826283 246.9185280297754 L 329.93984647061586 246.2563701188468 L 329.5883823529689 245.60416302125503 L 329.2369182353219 244.96376091530257 L 328.88545411767495 244.33694519759297 L 328.533990000028 243.72541350012833 L 328.182525882381 243.13076922384346 L 327.83106176473405 242.55451165310595 L 327.4795976470871 241.99802671212956 L 327.1281335294401 241.4625784202904 L 326.77666941179314 240.9493010990274 L 326.42520529414617 240.4591923783731 L 326.0737411764992 239.99310704623312 L 325.7222770588522 239.5517517783342 L 325.37081294120526 239.1356807813335 L 325.0193488235583 238.74529237595019 L 324.6678847059113 238.3808265411858 L 324.31642058826435 238.04236343477388 L 323.9649564706174 237.7298228989809 L 323.6134923529704 237.44296495480532 L 323.26202823532344 237.18139128152794 L 322.9105641176765 236.94454767249164 L 322.5591000000295 236.73172745196962 L 322.20763588238253 236.54207583205636 L 321.85617176473556 236.37459518271922 L 321.5047076470886 236.2281511825193 L 321.1532435294416 236.1014798120805 L 320.80177941179466 235.99319514718908 L 320.4503152941477 235.90179790347744 L 320.0988511765007 235.82568468001074 L 319.74738705885375 235.76315784478692 L 319.3959229412068 235.7124360012024 L 319.0444588235598 235.67166497095468 L 318.69299470591284 235.638929225668 L 318.34153058826587 235.61226369676277 L 317.9900664706189 235.58966589075698 L 317.63860235297193 235.56910823530416 L 317.28713788238383 235.58966589075698 L 316.9356734117957 235.61226369676277 L 316.5842089412075 235.638929225668 L 316.23274447061937 235.67166497095468 L 315.8812800000312 235.7124360012024 L 315.52981552944306 235.76315784478692 L 315.1783510588549 235.82568468001074 L 314.82688658826675 235.90179790347744 L 314.4754221176786 235.99319514718908 L 314.12395764709044 236.1014798120805 L 313.7724931765023 236.2281511825193 L 313.4210287059142 236.37459518271922 L 313.069564235326 236.54207583205636 L 312.7180997647379 236.73172745196962 L 312.3666352941497 236.94454767249164 L 312.01517082356156 237.18139128152794 L 311.6637063529734 237.44296495480532 L 311.31224188238525 237.7298228989809 L 310.9607774117971 238.04236343477388 L 310.60931294120894 238.3808265411858 L 310.25784847062084 238.74529237595019 L 309.9063840000327 239.1356807813335 L 309.55491952944453 239.5517517783342 L 309.2034550588564 239.99310704623312 L 308.8519905882682 240.4591923783731 L 308.50052611768007 240.9493010990274 L 308.1490616470919 241.4625784202904 L 307.79759717650376 241.99802671212956 L 307.4461327059156 242.55451165310595 L 307.09466823532745 243.13076922384346 L 306.74320376473935 243.72541350012833 L 306.3917392941512 244.33694519759297 L 306.04027482356304 244.96376091530257 L 305.6888103529749 245.60416302125503 L 305.3373458823867 246.2563701188468 L 304.9858814117986 246.9185280297754 L 304.6344169412104 247.58872122566498 L 304.28295247062226 248.26498463793607 L 303.9314880000341 248.94531577310656 L 303.58002352944595 249.62768705883002" stroke="rgb(132, 0, 0)" fill="none" stroke-width="2.823529411764px" stroke-linecap="round"/><path class="sch-component-symbol-path" d="M 218.7866682353495 249.44668470588886 L 200.85296470594224 249.44668470588886" stroke="rgb(132, 0, 0)" fill="none" stroke-width="2.823529411764px" stroke-linecap="round"/><path class="sch-component-symbol-path" d="M 349.8674823529638 250.09143764706516 L 331.9337788235564 250.09143764706516" stroke="rgb(132, 0, 0)" fill="none" stroke-width="2.823529411764px" stroke-linecap="round"/><text class="sch-component-name sch-component-text" x="275.00970352945313" y="213.79712705883892" stroke="rgb(245, 241, 237)" stroke-width="2.823529411764px" paint-order="stroke" fill="rgb(15, 15, 15)" font-family="sans-serif" text-anchor="middle" dominant-baseline="ideographic" font-size="25.411764705876px">L1</text><text class="sch-component-text" x="274.9856180760639" y="278.7308622340067" fill="rgb(15, 15, 15)" font-family="sans-serif" text-anchor="middle" dominant-baseline="hanging" font-size="25.411764705876px">1µH</text></g><g class="sch-component" data-circuit-json-type="schematic_component" data-schematic-component-id="schematic_component_2"><rect class="component-overlay sch-component-overlay" x="111.52658823537622" y="284.93176470588" width="45.18211764704752" height="84.70588235291996" fill="transparent"/><path class="sch-component-symbol-path" d="M 134.1176470589 369.6376470588 L 134.1176470589 335.755294117632" stroke="rgb(132, 0, 0)" fill="none" stroke-width="2.823529411764px" stroke-linecap="round"/><path class="sch-component-symbol-path" d="M 134.1176470589 318.814117647048 L 134.1176470589 284.93176470588" stroke="rgb(132, 0, 0)" fill="none" stroke-width="2.823529411764px" stroke-linecap="round"/><path class="sch-component-symbol-path" d="M 156.70870588242374 335.755294117632 L 111.52658823537622 335.755294117632" stroke="rgb(132, 0, 0)" fill="none" stroke-width="2.823529411764px" stroke-linecap="round"/><path class="sch-component-symbol-path" d="M 156.70870588242374 318.814117647048 L 111.52658823537622 318.814117647048" stroke="rgb(132, 0, 0)" fill="none" stroke-width="2.823529411764px" stroke-linecap="round"/><text class="sch-component-name sch-component-text" x="150.352941176543" y="299.0494117647" stroke="rgb(245, 241, 237)" stroke-width="2.823529411764px" paint-order="stroke" fill="rgb(15, 15, 15)" font-family="sans-serif" text-anchor="start" dominant-baseline="ideographic" font-size="25.411764705876px">C1</text><text class="sch-component-text" x="150.352941176543" y="355.51999999998003" fill="rgb(15, 15, 15)" font-family="sans-serif" text-anchor="start" dominant-baseline="hanging" font-size="25.411764705876px">10uF</text></g><g class="sch-component" data-circuit-json-type="schematic_component" data-schematic-component-id="schematic_component_3"><rect class="component-overlay sch-component-overlay" x="1043.2912941174964" y="270.81411764706" width="45.18211764704756" height="84.70588235291996" fill="transparent"/><path class="sch-component-symbol-path" d="M 1065.8823529410201 355.51999999998 L 1065.8823529410201 321.637647058812" stroke="rgb(132, 0, 0)" fill="none" stroke-width="2.823529411764px" stroke-linecap="round"/><path class="sch-component-symbol-path" d="M 1065.8823529410201 304.696470588228 L 1065.8823529410201 270.81411764706" stroke="rgb(132, 0, 0)" fill="none" stroke-width="2.823529411764px" stroke-linecap="round"/><path class="sch-component-symbol-path" d="M 1088.473411764544 321.637647058812 L 1043.2912941174964 321.637647058812" stroke="rgb(132, 0, 0)" fill="none" stroke-width="2.823529411764px" stroke-linecap="round"/><path class="sch-component-symbol-path" d="M 1088.473411764544 304.696470588228 L 1043.2912941174964 304.696470588228" stroke="rgb(132, 0, 0)" fill="none" stroke-width="2.823529411764px" stroke-linecap="round"/><text class="sch-component-name sch-component-text" x="1082.1176470586631" y="284.93176470587997" stroke="rgb(245, 241, 237)" stroke-width="2.823529411764px" paint-order="stroke" fill="rgb(15, 15, 15)" font-family="sans-serif" text-anchor="start" dominant-baseline="ideographic" font-size="25.411764705876px">C2</text><text class="sch-component-text" x="1082.1176470586631" y="341.40235294116" fill="rgb(15, 15, 15)" font-family="sans-serif" text-anchor="start" dominant-baseline="hanging" font-size="25.411764705876px">10uF</text></g><g class="schematic-port-hover sch-port-hover" data-schematic-port-id="source_port_0"><circle cx="430.58823529412" cy="306.10823529411" r="5.647058823528" fill="red" opacity="0"/></g><g class="schematic-port-hover sch-port-hover" data-schematic-port-id="source_port_1"><circle cx="430.58823529412" cy="249.63764705883" r="5.647058823528" fill="red" opacity="0"/></g><g class="schematic-port-hover sch-port-hover" data-schematic-port-id="source_port_2"><circle cx="430.58823529412" cy="362.57882352939" r="5.647058823528" fill="red" opacity="0"/></g><g class="schematic-port-hover sch-port-hover" data-schematic-port-id="source_port_3"><circle cx="825.88235294108" cy="306.10823529411" r="5.647058823528" fill="red" opacity="0"/></g><g class="schematic-port-hover sch-port-hover" data-schematic-port-id="source_port_4"><circle cx="825.88235294108" cy="249.63764705882997" r="5.647058823528" fill="red" opacity="0"/></g><g class="schematic-port-hover sch-port-hover" data-schematic-port-id="source_port_5"><circle cx="825.88235294108" cy="362.57882352939" r="5.647058823528" fill="red" opacity="0"/></g><g class="schematic-port-hover sch-port-hover" data-schematic-port-id="source_port_6"><circle cx="200.76529411770684" cy="249.26712235294775" r="5.647058823528" fill="red" opacity="0"/></g><g class="schematic-port-hover sch-port-hover" data-schematic-port-id="source_port_7"><circle cx="349.82294117649315" cy="250.00817176471222" r="5.647058823528" fill="red" opacity="0"/></g><g class="schematic-port-hover sch-port-hover" data-schematic-port-id="source_port_8"><circle cx="134.1176470589" cy="284.93176470587997" r="5.647058823528" fill="red" opacity="0"/></g><g class="schematic-port-hover sch-port-hover" data-schematic-port-id="source_port_9"><circle cx="134.1176470589" cy="369.6376470588" r="5.647058823528" fill="red" opacity="0"/></g><g class="schematic-port-hover sch-port-hover" data-schematic-port-id="source_port_10"><circle cx="1065.8823529410201" cy="270.81411764705996" r="5.647058823528" fill="red" opacity="0"/></g><g class="schematic-port-hover sch-port-hover" data-schematic-port-id="source_port_11"><circle cx="1065.8823529410201" cy="355.51999999998" r="5.647058823528" fill="red" opacity="0"/></g><path class="net-label sch-net-label" data-circuit-json-type="schematic_net_label" data-schematic-net-label-id="schematic_net_label_0" d="
    M 430.58823529412,306.10823529411
    L 422.96470588235724,320.22588235293
    L 365.49647058825394,320.22588235293
    L 365.49647058825394,291.99058823529
    L 422.96470588235724,291.99058823529
    Z
  " fill="rgba(255, 255, 255, 0.6)" stroke="rgb(132, 0, 0)" stroke-width="2.823529411764px"/><text class="net-label-text sch-net-label-text" data-circuit-json-type="schematic_net_label" data-schematic-net-label-id="schematic_net_label_0" x="417.88235294118203" y="306.10823529411" fill="rgb(132, 0, 0)" text-anchor="end" dominant-baseline="central" font-family="sans-serif" font-variant-numeric="tabular-nums" font-size="25.411764705876px" transform="">VIN</text><rect class="component-overlay sch-component-overlay sch-net-label-overlay" data-circuit-json-type="schematic_net_label" data-schematic-net-label-id="schematic_net_label_1" x="117.176470588316" y="223.85535764707177" width="33.882352941167994" height="25.41176470587601" fill="transparent"/><path class="sch-net-label-symbol-path" data-circuit-json-type="schematic_net_label" data-schematic-net-label-id="schematic_net_label_1" d="M 151.058823529484 223.85535764707177 L 117.176470588316 223.85535764707177" stroke="rgb(132, 0, 0)" fill="none" stroke-width="2.823529411764px" stroke-linecap="round"/><path class="sch-net-label-symbol-path" data-circuit-json-type="schematic_net_label" data-schematic-net-label-id="schematic_net_label_1" d="M 134.1176470589 223.85535764707177 L 134.1176470589 249.26712235294778" stroke="rgb(132, 0, 0)" fill="none" stroke-width="2.823529411764px" stroke-linecap="round"/><text class="sch-net-label-symbol-text" data-circuit-json-type="schematic_net_label" data-schematic-net-label-id="schematic_net_label_1" x="134.1176470589" y="216.79653411766176" fill="rgb(15, 15, 15)" font-family="sans-serif" text-anchor="middle" dominant-baseline="ideographic" font-size="25.411764705876px">VIN</text><path class="net-label sch-net-label" data-circuit-json-type="schematic_net_label" data-schematic-net-label-id="schematic_net_label_2" d="
    M 390.20558823530655,249.63764705883
    L 376.08794117648654,242.0141176470672
    L 376.08794117648654,187.01176470590448
    L 404.32323529412656,187.01176470590448
    L 404.32323529412656,242.0141176470672
    Z
  " fill="rgba(255, 255, 255, 0.6)" stroke="rgb(132, 0, 0)" stroke-width="2.823529411764px"/><text class="net-label-text sch-net-label-text" data-circuit-json-type="schematic_net_label" data-schematic-net-label-id="schematic_net_label_2" x="390.20558823530655" y="236.931764705892" fill="rgb(132, 0, 0)" text-anchor="start" dominant-baseline="central" font-family="sans-serif" font-variant-numeric="tabular-nums" font-size="25.411764705876px" transform="rotate(-90 390.20558823530655 236.931764705892)">SW</text><path class="net-label sch-net-label" data-circuit-json-type="schematic_net_label" data-schematic-net-label-id="schematic_net_label_3" d="
    M 430.58823529412,362.57882352939
    L 422.96470588235724,376.69647058821
    L 373.6094117647225,376.69647058821
    L 373.6094117647225,348.46117647056997
    L 422.96470588235724,348.46117647056997
    Z
  " fill="rgba(255, 255, 255, 0.6)" stroke="rgb(132, 0, 0)" stroke-width="2.823529411764px"/><text class="net-label-text sch-net-label-text" data-circuit-json-type="schematic_net_label" data-schematic-net-label-id="schematic_net_label_3" x="417.88235294118203" y="362.57882352939" fill="rgb(132, 0, 0)" text-anchor="end" dominant-baseline="central" font-family="sans-serif" font-variant-numeric="tabular-nums" font-size="25.411764705876px" transform="">EN</text><rect class="component-overlay sch-component-overlay sch-net-label-overlay" data-circuit-json-type="schematic_net_label" data-schematic-net-label-id="schematic_net_label_4" x="1048.9411764704362" y="224.22588235295396" width="33.88235294116794" height="25.41176470587601" fill="transparent"/><path class="sch-net-label-symbol-path" data-circuit-json-type="schematic_net_label" data-schematic-net-label-id="schematic_net_label_4" d="M 1082.823529411604 224.22588235295396 L 1048.9411764704362 224.22588235295396" stroke="rgb(132, 0, 0)" fill="none" stroke-width="2.823529411764px" stroke-linecap="round"/><path class="sch-net-label-symbol-path" data-circuit-json-type="schematic_net_label" data-schematic-net-label-id="schematic_net_label_4" d="M 1065.8823529410201 224.22588235295396 L 1065.8823529410201 249.63764705882997" stroke="rgb(132, 0, 0)" fill="none" stroke-width="2.823529411764px" stroke-linecap="round"/><text class="sch-net-label-symbol-text" data-circuit-json-type="schematic_net_label" data-schematic-net-label-id="schematic_net_label_4" x="1065.8823529410201" y="217.16705882354395" fill="rgb(15, 15, 15)" font-family="sans-serif" text-anchor="middle" dominant-baseline="ideographic" font-size="25.411764705876px">VOUT_5V</text><rect class="component-overlay sch-component-overlay sch-net-label-overlay" data-circuit-json-type="schematic_net_label" data-schematic-net-label-id="schematic_net_label_5" x="117.176470588316" y="409.167058823496" width="33.882352941167994" height="25.411764705875953" fill="transparent"/><path class="sch-net-label-symbol-path" data-circuit-json-type="schematic_net_label" data-schematic-net-label-id="schematic_net_label_5" d="M 117.176470588316 434.57882352937196 L 151.058823529484 434.57882352937196" stroke="rgb(132, 0, 0)" fill="none" stroke-width="2.823529411764px" stroke-linecap="round"/><path class="sch-net-label-symbol-path" data-circuit-json-type="schematic_net_label" data-schematic-net-label-id="schematic_net_label_5" d="M 134.1176470589 434.57882352937196 L 134.1176470589 409.167058823496" stroke="rgb(132, 0, 0)" fill="none" stroke-width="2.823529411764px" stroke-linecap="round"/><text class="sch-net-label-symbol-text" data-circuit-json-type="schematic_net_label" data-schematic-net-label-id="schematic_net_label_5" x="134.1176470589" y="441.63764705878197" fill="rgb(15, 15, 15)" font-family="sans-serif" text-anchor="middle" dominant-baseline="hanging" font-size="25.411764705876px">GND</text><text class="sch-text" x="628.2352941176" y="313.16705882352" fill="#000000" text-anchor="middle" dominant-baseline="middle" font-family="sans-serif" font-size="21.17647058823px" transform="rotate(0, 628.2352941176, 313.16705882352)">TPS61299X</text><text class="sch-text" x="317.64705882356" y="327.28470588234" fill="#000000" text-anchor="middle" dominant-baseline="middle" font-family="sans-serif" font-size="16.941176470584px" transform="rotate(0, 317.64705882356, 327.28470588234)">ON</text><text class="sch-text" x="285.17647058827396" y="355.51999999998" fill="#000000" text-anchor="middle" dominant-baseline="middle" font-family="sans-serif" font-size="16.941176470584px" transform="rotate(0, 285.17647058827396, 355.51999999998)">OFF</text></svg>