<svg xmlns="http://www.w3.org/2000/svg" class="tscircuit-schematic" width="1200" height="600" style="background-color: rgb(245, 241, 237)" data-real-to-screen-transform="matrix(72.9042431788,0,0,-72.9042431788,626.2455275444,344.8351488743)"><style>
              .boundary { fill: rgb(245, 241, 237); }
              .schematic-boundary { fill: none; stroke: #fff; }
              .component { fill: none; stroke: rgb(132, 0, 0); }
              .chip { fill: rgb(255, 255, 194); stroke: rgb(132, 0, 0); }
              .component-pin { fill: none; stroke: rgb(132, 0, 0); }
              .text { font-family: sans-serif; fill: rgb(0, 150, 0); }
              .pin-number { fill: rgb(169, 0, 0); }
              .port-label { fill: rgb(0, 100, 100); }
              .component-name { fill: rgb(0, 100, 100); }
              
            </style><rect class="boundary" x="0" y="0" width="1200" height="600"/><g class="trace sch-trace" data-layer="base" data-circuit-json-type="schematic_trace" data-schematic-trace-id="schematic_trace_0" data-subcircuit-connectivity-map-key="unnamedsubcircuitsubcircuit_source_group_0_connectivity_net2"><path d="M 582.50298163712 96.96072206637999 L 582.50298163712 53.02683532766514 L 587.7584662672717 53.02683532766514" class="trace-invisible-hover-outline sch-trace-hitbox" stroke="rgb(0, 150, 0)" fill="none" stroke-width="11.664678908608px" stroke-linecap="round" opacity="0" stroke-linejoin="round"/><path class="sch-trace-path" d="M 582.50298163712 96.96072206637999 L 582.50298163712 53.02683532766514 L 587.7584662672717 53.02683532766514" stroke="rgb(0, 150, 0)" fill="none" stroke-width="1.458084863576px" stroke-linecap="round" stroke-linejoin="round"/></g><g class="trace sch-trace" data-layer="base" data-circuit-json-type="schematic_trace" data-schematic-trace-id="schematic_trace_1" data-subcircuit-connectivity-map-key="unnamedsubcircuitsubcircuit_source_group_0_connectivity_net3"><path d="M 669.9880734516801 96.96072206637999 L 669.9880734516801 53.40951699053494 L 664.7325888215283 53.40951699053494" class="trace-invisible-hover-outline sch-trace-hitbox" stroke="rgb(0, 150, 0)" fill="none" stroke-width="11.664678908608px" stroke-linecap="round" opacity="0" stroke-linejoin="round"/><path class="sch-trace-path" d="M 669.9880734516801 96.96072206637999 L 669.9880734516801 53.40951699053494 L 664.7325888215283 53.40951699053494" stroke="rgb(0, 150, 0)" fill="none" stroke-width="1.458084863576px" stroke-linecap="round" stroke-linejoin="round"/></g><g class="trace sch-trace" data-layer="base" data-circuit-json-type="schematic_trace" data-schematic-trace-id="schematic_trace_2" data-subcircuit-connectivity-map-key="unnamedsubcircuitsubcircuit_source_group_0_connectivity_net0"><path d="M 505.95352629938003 213.60751115245998 L 491.37267766362004 213.60751115245998 L 491.37267766362004 301.09260296701996 L 505.95352629938003 301.09260296701996" class="trace-invisible-hover-outline sch-trace-hitbox" stroke="rgb(0, 150, 0)" fill="none" stroke-width="11.664678908608px" stroke-linecap="round" opacity="0" stroke-linejoin="round"/><path class="sch-trace-path" d="M 505.95352629938003 213.60751115245998 L 491.37267766362004 213.60751115245998 L 491.37267766362004 301.09260296701996 L 505.95352629938003 301.09260296701996" stroke="rgb(0, 150, 0)" fill="none" stroke-width="1.458084863576px" stroke-linecap="round" stroke-linejoin="round"/></g><g class="trace sch-trace" data-layer="base" data-circuit-json-type="schematic_trace" data-schematic-trace-id="schematic_trace_3" data-subcircuit-connectivity-map-key="unnamedsubcircuitsubcircuit_source_group_0_connectivity_net4"><path d="M 746.53752878942 301.09260296702 L 823.0869841271601 301.09260296702 L 823.0869841271601 264.64048137762" class="trace-invisible-hover-outline sch-trace-hitbox" stroke="rgb(0, 150, 0)" fill="none" stroke-width="11.664678908608px" stroke-linecap="round" opacity="0" stroke-linejoin="round"/><path class="sch-trace-path" d="M 746.53752878942 301.09260296702 L 823.0869841271601 301.09260296702 L 823.0869841271601 264.64048137762" stroke="rgb(0, 150, 0)" fill="none" stroke-width="1.458084863576px" stroke-linecap="round" stroke-linejoin="round"/></g><g class="trace sch-trace" data-layer="base" data-circuit-json-type="schematic_trace" data-schematic-trace-id="schematic_trace_4" data-subcircuit-connectivity-map-key="unnamedsubcircuitsubcircuit_source_group_0_connectivity_net5"><path d="M 903.28165162384 410.44896773522 L 903.28165162384 293.80217864914" class="trace-invisible-hover-outline sch-trace-hitbox" stroke="rgb(0, 150, 0)" fill="none" stroke-width="11.664678908608px" stroke-linecap="round" opacity="0" stroke-linejoin="round"/><path class="sch-trace-path" d="M 903.28165162384 410.44896773522 L 903.28165162384 293.80217864914" stroke="rgb(0, 150, 0)" fill="none" stroke-width="1.458084863576px" stroke-linecap="round" stroke-linejoin="round"/></g><g class="trace sch-trace" data-layer="base" data-circuit-json-type="schematic_trace" data-schematic-trace-id="schematic_trace_5" data-subcircuit-connectivity-map-key="unnamedsubcircuitsubcircuit_source_group_0_connectivity_net6"><path d="M 505.95352629938003 476.06278659614 L 491.37267766362004 476.06278659614 L 491.37267766362004 388.57769478158 L 505.95352629938003 388.57769478158" class="trace-invisible-hover-outline sch-trace-hitbox" stroke="rgb(0, 150, 0)" fill="none" stroke-width="11.664678908608px" stroke-linecap="round" opacity="0" stroke-linejoin="round"/><path class="sch-trace-path" d="M 505.95352629938003 476.06278659614 L 491.37267766362004 476.06278659614 L 491.37267766362004 388.57769478158 L 505.95352629938003 388.57769478158" stroke="rgb(0, 150, 0)" fill="none" stroke-width="1.458084863576px" stroke-linecap="round" stroke-linejoin="round"/></g><g class="trace sch-trace" data-layer="base" data-circuit-json-type="schematic_trace" data-schematic-trace-id="schematic_trace_6" data-subcircuit-connectivity-map-key="unnamedsubcircuitsubcircuit_source_group_0_connectivity_net0"><path d="M 334.6285548292 242.76920842398 L 334.6285548292 236.93686896967597 L 334.6285548292 222.35602033391598 L 491.37267766362004 222.35602033391598 L 491.37267766362004 301.09260296701996 L 505.95352629938003 301.09260296701996" class="trace-invisible-hover-outline sch-trace-hitbox" stroke="rgb(0, 150, 0)" fill="none" stroke-width="11.664678908608px" stroke-linecap="round" opacity="0" stroke-linejoin="round"/><path class="sch-trace-path" d="M 334.6285548292 242.76920842398 L 334.6285548292 236.93686896967597 L 334.6285548292 222.35602033391598 L 491.37267766362004 222.35602033391598 L 491.37267766362004 301.09260296701996 L 505.95352629938003 301.09260296701996" stroke="rgb(0, 150, 0)" fill="none" stroke-width="1.458084863576px" stroke-linecap="round" stroke-linejoin="round"/></g><g class="trace sch-trace" data-layer="base" data-circuit-json-type="schematic_trace" data-schematic-trace-id="schematic_trace_7" data-subcircuit-connectivity-map-key="unnamedsubcircuitsubcircuit_source_group_0_connectivity_net6"><path d="M 746.53752878942 476.06278659614 L 903.28165162384 476.06278659614 L 903.28165162384 454.1915136425" class="trace-invisible-hover-outline sch-trace-hitbox" stroke="rgb(0, 150, 0)" fill="none" stroke-width="11.664678908608px" stroke-linecap="round" opacity="0" stroke-linejoin="round"/><path class="sch-trace-path" d="M 746.53752878942 476.06278659614 L 903.28165162384 476.06278659614 L 903.28165162384 454.1915136425" stroke="rgb(0, 150, 0)" fill="none" stroke-width="1.458084863576px" stroke-linecap="round" stroke-linejoin="round"/></g><g class="trace sch-trace" data-layer="base" data-circuit-json-type="schematic_trace" data-schematic-trace-id="schematic_trace_8" data-subcircuit-connectivity-map-key="unnamedsubcircuitsubcircuit_source_group_0_connectivity_net1"><path d="M 746.53752878942 213.60751115245998 L 808.5061354914001 213.60751115245998 L 808.5061354914001 182.91482477418518 L 837.66783276292 182.91482477418518 L 837.66783276292 213.60751115245998 L 903.28165162384 213.60751115245998 L 903.28165162384 250.05963274185999" class="trace-invisible-hover-outline sch-trace-hitbox" stroke="rgb(0, 150, 0)" fill="none" stroke-width="11.664678908608px" stroke-linecap="round" opacity="0" stroke-linejoin="round"/><path class="sch-trace-path" d="M 746.53752878942 213.60751115245998 L 808.5061354914001 213.60751115245998 L 808.5061354914001 182.91482477418518 L 837.66783276292 182.91482477418518 L 837.66783276292 213.60751115245998 L 903.28165162384 213.60751115245998 L 903.28165162384 250.05963274185999" stroke="rgb(0, 150, 0)" fill="none" stroke-width="1.458084863576px" stroke-linecap="round" stroke-linejoin="round"/></g><g class="trace sch-trace" data-layer="base" data-circuit-json-type="schematic_trace" data-schematic-trace-id="schematic_trace_9" data-subcircuit-connectivity-map-key="unnamedsubcircuitsubcircuit_source_group_0_connectivity_net6"><path d="M 491.37267766362004 476.06278659614 L 470.2304471417681 476.06278659614 L 470.2304471417681 476.13569083931884" class="trace-invisible-hover-outline sch-trace-hitbox" stroke="rgb(0, 150, 0)" fill="none" stroke-width="11.664678908608px" stroke-linecap="round" opacity="0" stroke-linejoin="round"/><path class="sch-trace-path" d="M 491.37267766362004 476.06278659614 L 470.2304471417681 476.06278659614 L 470.2304471417681 476.13569083931884" stroke="rgb(0, 150, 0)" fill="none" stroke-width="1.458084863576px" stroke-linecap="round" stroke-linejoin="round"/></g><g class="trace-overlays sch-trace-overlays" data-layer="overlay" data-circuit-json-type="schematic_trace" data-schematic-trace-id="schematic_trace_0" data-subcircuit-connectivity-map-key="unnamedsubcircuitsubcircuit_source_group_0_connectivity_net2"/><g class="trace-overlays sch-trace-overlays" data-layer="overlay" data-circuit-json-type="schematic_trace" data-schematic-trace-id="schematic_trace_1" data-subcircuit-connectivity-map-key="unnamedsubcircuitsubcircuit_source_group_0_connectivity_net3"/><g class="trace-overlays sch-trace-overlays" data-layer="overlay" data-circuit-json-type="schematic_trace" data-schematic-trace-id="schematic_trace_2" data-subcircuit-connectivity-map-key="unnamedsubcircuitsubcircuit_source_group_0_connectivity_net0"><circle cx="491.37267766362004" cy="222.35602033391598" r="2.1871272953639997" class="trace-junction sch-trace-junction" fill="rgb(0, 150, 0)"/></g><g class="trace-overlays sch-trace-overlays" data-layer="overlay" data-circuit-json-type="schematic_trace" data-schematic-trace-id="schematic_trace_3" data-subcircuit-connectivity-map-key="unnamedsubcircuitsubcircuit_source_group_0_connectivity_net4"/><g class="trace-overlays sch-trace-overlays" data-layer="overlay" data-circuit-json-type="schematic_trace" data-schematic-trace-id="schematic_trace_4" data-subcircuit-connectivity-map-key="unnamedsubcircuitsubcircuit_source_group_0_connectivity_net5"/><g class="trace-overlays sch-trace-overlays" data-layer="overlay" data-circuit-json-type="schematic_trace" data-schematic-trace-id="schematic_trace_5" data-subcircuit-connectivity-map-key="unnamedsubcircuitsubcircuit_source_group_0_connectivity_net6"><circle cx="491.37267766362004" cy="476.06278659614" r="2.1871272953639997" class="trace-junction sch-trace-junction" fill="rgb(0, 150, 0)"/></g><g class="trace-overlays sch-trace-overlays" data-layer="overlay" data-circuit-json-type="schematic_trace" data-schematic-trace-id="schematic_trace_6" data-subcircuit-connectivity-map-key="unnamedsubcircuitsubcircuit_source_group_0_connectivity_net0"><circle cx="491.37267766362004" cy="222.35602033391598" r="2.1871272953639997" class="trace-junction sch-trace-junction" fill="rgb(0, 150, 0)"/></g><g class="trace-overlays sch-trace-overlays" data-layer="overlay" data-circuit-json-type="schematic_trace" data-schematic-trace-id="schematic_trace_7" data-subcircuit-connectivity-map-key="unnamedsubcircuitsubcircuit_source_group_0_connectivity_net6"/><g class="trace-overlays sch-trace-overlays" data-layer="overlay" data-circuit-json-type="schematic_trace" data-schematic-trace-id="schematic_trace_8" data-subcircuit-connectivity-map-key="unnamedsubcircuitsubcircuit_source_group_0_connectivity_net1"/><g class="trace-overlays sch-trace-overlays" data-layer="overlay" data-circuit-json-type="schematic_trace" data-schematic-trace-id="schematic_trace_9" data-subcircuit-connectivity-map-key="unnamedsubcircuitsubcircuit_source_group_0_connectivity_net6"><circle cx="491.37267766362004" cy="476.06278659614" r="2.1871272953639997" class="trace-junction sch-trace-junction" fill="rgb(0, 150, 0)"/></g><g class="sch-component" data-circuit-json-type="schematic_component" data-schematic-component-id="schematic_component_0"><rect class="component chip sch-component-body" x="535.1152235709001" y="126.1224193379" width="182.26060794699993" height="437.4254590727999" stroke-width="1.458084863576px" fill="rgb(255, 255, 194)" stroke="rgb(132, 0, 0)"/><rect class="component-overlay sch-component-overlay" x="535.1152235709001" y="126.1224193379" width="182.26060794699993" height="437.4254590727999" fill="transparent"/><text class="sch-text" x="724.66625583578" y="100.60593422531997" fill="#006464" text-anchor="start" dominant-baseline="middle" font-family="sans-serif" font-size="13.122763772184px" transform="rotate(0, 724.66625583578, 100.60593422531997)"></text><text class="sch-text" x="724.66625583578" y="86.02508558955998" fill="#006464" text-anchor="start" dominant-baseline="middle" font-family="sans-serif" font-size="13.122763772184px" transform="rotate(0, 724.66625583578, 86.02508558955998)">U1</text><line class="component-pin sch-component-pin sch-port-line" x1="535.1152235709001" y1="301.09260296701996" x2="505.95352629938003" y2="301.09260296701996" stroke-width="1.458084863576px"/><g class="sch-port" data-schematic-port-id="source_port_0"><rect x="504.495441435804" y="299.63451810344395" width="2.916169727152" height="2.916169727152" opacity="0"/></g><text class="pin-number sch-pin-number" x="520.53437493514" y="299.63451810344395" style="font-family: sans-serif;" fill="rgb(169, 0, 0)" text-anchor="middle" dominant-baseline="auto" font-size="10.93563647682px" transform="">1</text><text class="pin-number sch-pin-label" x="542.4056478887801" y="301.09260296701996" style="font-family: sans-serif;" fill="rgb(169, 0, 0)" text-anchor="start" dominant-baseline="middle" font-size="10.93563647682px" transform="">EN</text><line class="component-pin sch-component-pin sch-port-line" x1="535.1152235709001" y1="388.57769478158" x2="505.95352629938003" y2="388.57769478158" stroke-width="1.458084863576px"/><g class="sch-port" data-schematic-port-id="source_port_1"><rect x="504.495441435804" y="387.119609918004" width="2.916169727152" height="2.916169727152" opacity="0"/></g><text class="pin-number sch-pin-number" x="520.53437493514" y="387.119609918004" style="font-family: sans-serif;" fill="rgb(169, 0, 0)" text-anchor="middle" dominant-baseline="auto" font-size="10.93563647682px" transform="">2</text><text class="pin-number sch-pin-label" x="542.4056478887801" y="388.57769478158" style="font-family: sans-serif;" fill="rgb(169, 0, 0)" text-anchor="start" dominant-baseline="middle" font-size="10.93563647682px" transform="">MODE</text><line class="component-pin sch-component-pin sch-port-line" x1="717.3758315179" y1="476.06278659614" x2="746.53752878942" y2="476.06278659614" stroke-width="1.458084863576px"/><g class="sch-port" data-schematic-port-id="source_port_2"><rect x="745.079443925844" y="474.60470173256397" width="2.916169727152" height="2.916169727152" opacity="0"/></g><text class="pin-number sch-pin-number" x="731.95668015366" y="474.60470173256397" style="font-family: sans-serif;" fill="rgb(169, 0, 0)" text-anchor="middle" dominant-baseline="auto" font-size="10.93563647682px" transform="">3</text><text class="pin-number sch-pin-label" x="710.08540720002" y="476.06278659614" style="font-family: sans-serif;" fill="rgb(169, 0, 0)" text-anchor="end" dominant-baseline="middle" font-size="10.93563647682px" transform="">AGND</text><line class="component-pin sch-component-pin sch-port-line" x1="717.3758315179" y1="388.57769478158" x2="746.53752878942" y2="388.57769478158" stroke-width="1.458084863576px"/><g class="sch-port" data-schematic-port-id="source_port_3"><rect x="745.079443925844" y="387.119609918004" width="2.916169727152" height="2.916169727152" opacity="0"/></g><text class="pin-number sch-pin-number" x="731.95668015366" y="387.119609918004" style="font-family: sans-serif;" fill="rgb(169, 0, 0)" text-anchor="middle" dominant-baseline="auto" font-size="10.93563647682px" transform="">4</text><text class="pin-number sch-pin-label" x="710.08540720002" y="388.57769478158" style="font-family: sans-serif;" fill="rgb(169, 0, 0)" text-anchor="end" dominant-baseline="middle" font-size="10.93563647682px" transform="">FB</text><line class="component-pin sch-component-pin sch-port-line" x1="717.3758315179" y1="301.09260296702" x2="746.53752878942" y2="301.09260296702" stroke-width="1.458084863576px"/><g class="sch-port" data-schematic-port-id="source_port_4"><rect x="745.079443925844" y="299.634518103444" width="2.916169727152" height="2.916169727152" opacity="0"/></g><text class="pin-number sch-pin-number" x="731.95668015366" y="299.634518103444" style="font-family: sans-serif;" fill="rgb(169, 0, 0)" text-anchor="middle" dominant-baseline="auto" font-size="10.93563647682px" transform="">5</text><text class="pin-number sch-pin-label" x="710.08540720002" y="301.09260296702" style="font-family: sans-serif;" fill="rgb(169, 0, 0)" text-anchor="end" dominant-baseline="middle" font-size="10.93563647682px" transform="">PG</text><line class="component-pin sch-component-pin sch-port-line" x1="717.3758315179" y1="213.60751115245998" x2="746.53752878942" y2="213.60751115245998" stroke-width="1.458084863576px"/><g class="sch-port" data-schematic-port-id="source_port_5"><rect x="745.079443925844" y="212.14942628888397" width="2.916169727152" height="2.916169727152" opacity="0"/></g><text class="pin-number sch-pin-number" x="731.95668015366" y="212.14942628888397" style="font-family: sans-serif;" fill="rgb(169, 0, 0)" text-anchor="middle" dominant-baseline="auto" font-size="10.93563647682px" transform="">6</text><text class="pin-number sch-pin-label" x="710.08540720002" y="213.60751115245998" style="font-family: sans-serif;" fill="rgb(169, 0, 0)" text-anchor="end" dominant-baseline="middle" font-size="10.93563647682px" transform="">VOUT</text><line class="component-pin sch-component-pin sch-port-line" x1="669.9880734516801" y1="126.1224193379" x2="669.9880734516801" y2="96.96072206637999" stroke-width="1.458084863576px"/><g class="sch-port" data-schematic-port-id="source_port_6"><rect x="668.5299885881041" y="95.50263720280398" width="2.916169727152" height="2.916169727152" opacity="0"/></g><text class="pin-number sch-pin-number" x="668.5299885881041" y="111.54157070214" style="font-family: sans-serif;" fill="rgb(169, 0, 0)" text-anchor="middle" dominant-baseline="auto" font-size="10.93563647682px" transform="rotate(-90 668.5299885881041 111.54157070214)">7</text><text class="pin-number sch-pin-label" x="669.9880734516801" y="133.41284365578" style="font-family: sans-serif;" fill="rgb(169, 0, 0)" text-anchor="end" dominant-baseline="middle" font-size="10.93563647682px" transform="rotate(-90 669.9880734516801 133.41284365578)">L2</text><line class="component-pin sch-component-pin sch-port-line" x1="535.1152235709001" y1="476.06278659614" x2="505.95352629938003" y2="476.06278659614" stroke-width="1.458084863576px"/><g class="sch-port" data-schematic-port-id="source_port_7"><rect x="504.495441435804" y="474.60470173256397" width="2.916169727152" height="2.916169727152" opacity="0"/></g><text class="pin-number sch-pin-number" x="520.53437493514" y="474.604701732564" style="font-family: sans-serif;" fill="rgb(169, 0, 0)" text-anchor="middle" dominant-baseline="auto" font-size="10.93563647682px" transform="">8</text><text class="pin-number sch-pin-label" x="542.4056478887801" y="476.06278659614" style="font-family: sans-serif;" fill="rgb(169, 0, 0)" text-anchor="start" dominant-baseline="middle" font-size="10.93563647682px" transform="">GND</text><line class="component-pin sch-component-pin sch-port-line" x1="582.50298163712" y1="126.1224193379" x2="582.50298163712" y2="96.96072206637999" stroke-width="1.458084863576px"/><g class="sch-port" data-schematic-port-id="source_port_8"><rect x="581.044896773544" y="95.50263720280398" width="2.916169727152" height="2.916169727152" opacity="0"/></g><text class="pin-number sch-pin-number" x="581.044896773544" y="111.54157070214" style="font-family: sans-serif;" fill="rgb(169, 0, 0)" text-anchor="middle" dominant-baseline="auto" font-size="10.93563647682px" transform="rotate(-90 581.044896773544 111.54157070214)">9</text><text class="pin-number sch-pin-label" x="582.50298163712" y="133.41284365578" style="font-family: sans-serif;" fill="rgb(169, 0, 0)" text-anchor="end" dominant-baseline="middle" font-size="10.93563647682px" transform="rotate(-90 582.50298163712 133.41284365578)">L1</text><line class="component-pin sch-component-pin sch-port-line" x1="535.1152235709001" y1="213.60751115245998" x2="505.95352629938003" y2="213.60751115245998" stroke-width="1.458084863576px"/><g class="sch-port" data-schematic-port-id="source_port_9"><rect x="504.495441435804" y="212.14942628888397" width="2.916169727152" height="2.916169727152" opacity="0"/></g><text class="pin-number sch-pin-number" x="520.53437493514" y="212.14942628888397" style="font-family: sans-serif;" fill="rgb(169, 0, 0)" text-anchor="middle" dominant-baseline="auto" font-size="10.93563647682px" transform="">10</text><text class="pin-number sch-pin-label" x="542.4056478887801" y="213.60751115245998" style="font-family: sans-serif;" fill="rgb(169, 0, 0)" text-anchor="start" dominant-baseline="middle" font-size="10.93563647682px" transform="">VIN</text></g><g class="sch-component" data-circuit-json-type="schematic_component" data-schematic-component-id="schematic_component_1"><rect class="component-overlay sch-component-overlay" x="587.8037398022859" y="45.9531115822098" width="76.95185030796529" height="7.499404330951997" fill="transparent"/><path class="sch-component-symbol-path" d="M 611.812856782901 53.21308379771396 L 611.6313587533376 52.86070399806013 L 611.4498607237743 52.509377742466555 L 611.268362694211 52.16015207954403 L 611.0868646646476 51.814061107051 L 610.9053666350843 51.472119596337045 L 610.7238686055209 51.13531673594002 L 610.5423705759575 50.80461003290982 L 610.3608725463941 50.48091940945897 L 610.1793745168309 50.165121531336325 L 609.9978764872675 49.85804440289118 L 609.8163784577041 49.56046226215113 L 609.6348804281408 49.273090807387156 L 609.4533823985774 48.99658278459581 L 609.2718843690141 48.73152396310306 L 609.0903863394508 48.47842952410164 L 608.9088883098874 48.23774088438765 L 608.727390280324 48.00982297487924 L 608.5458922507607 47.794961990696144 L 608.3643942211974 47.59336362667161 L 608.182896191634 47.40515180917531 L 608.0013981620706 47.23036793206612 L 607.8199001325073 47.06897060148518 L 607.6384021029439 46.92083589106279 L 607.4569040733805 46.78575810596571 L 607.2754060438173 46.66345105107422 L 607.0939080142539 46.55354979547016 L 606.9124099846905 46.455612922357425 L 606.7309119551272 46.36912525054329 L 606.5494139255638 46.293501010701775 L 606.3679158960005 46.22808745683635 L 606.1864178664372 46.172168890676005 L 606.0049198368738 46.12497107419317 L 605.8234218073104 46.08566600303853 L 605.641923777747 46.053377011463255 L 605.4604257481838 46.027184177254796 L 605.2789277186204 46.00612999336327 L 605.097429689057 45.9892252712508 L 604.9159316594937 45.97545523956785 L 604.7344336299303 45.96378580055594 L 604.5529356003669 45.9531699056043 L 604.3714377530642 45.96378580055594 L 604.1899399057615 45.97545523956785 L 604.0084420584587 45.9892252712508 L 603.826944211156 46.00612999336327 L 603.6454463638532 46.027184177254796 L 603.4639485165505 46.053377011463255 L 603.2824506692477 46.08566600303853 L 603.100952821945 46.12497107419317 L 602.9194549746423 46.172168890676005 L 602.7379571273395 46.22808745683635 L 602.5564592800368 46.293501010701775 L 602.374961432734 46.36912525054329 L 602.1934635854313 46.455612922357425 L 602.0119657381287 46.55354979547016 L 601.8304678908258 46.66345105107422 L 601.6489700435231 46.78575810596571 L 601.4674721962203 46.92083589106279 L 601.2859743489176 47.06897060148518 L 601.104476501615 47.23036793206612 L 600.9229786543121 47.40515180917531 L 600.7414808070095 47.59336362667161 L 600.5599829597066 47.794961990696144 L 600.378485112404 48.00982297487924 L 600.1969872651011 48.23774088438765 L 600.0154894177984 48.47842952410164 L 599.8339915704958 48.73152396310306 L 599.652493723193 48.99658278459581 L 599.4709958758903 49.273090807387156 L 599.2894980285874 49.56046226215113 L 599.1080001812848 49.85804440289118 L 598.9265023339821 50.165121531336325 L 598.7450044866792 50.48091940945897 L 598.5635066393766 50.80461003290982 L 598.3820087920737 51.13531673594002 L 598.200510944771 51.472119596337045 L 598.0190130974684 51.814061107051 L 597.8375152501656 52.16015207954403 L 597.6560174028629 52.509377742466555 L 597.47451955556 52.86070399806013 L 597.2930217082574 53.21308379771396" stroke="rgb(132, 0, 0)" fill="none" stroke-width="1.458084863576px" stroke-linecap="round"/><path class="sch-component-symbol-path" d="M 626.3326845671204 53.21303276474378 L 626.1511867198176 52.860652782829334 L 625.9696888725149 52.50932634497515 L 625.7881910252121 52.16010049979201 L 625.6066931779094 51.81400934503838 L 625.4251953306067 51.47206765206382 L 625.2436974833039 51.13526460940619 L 625.0621996360012 50.80455772411538 L 624.8807017886984 50.48086691840392 L 624.6992039413957 50.16506885802067 L 624.5177060940929 49.85799154731492 L 624.3362082467902 49.560409224314256 L 624.1547103994875 49.27303758728968 L 623.9732125521847 48.99652938223772 L 623.791714704882 48.73147037848436 L 623.6102168575792 48.47837575722233 L 623.4287190102765 48.23768693524774 L 623.2472211629738 48.00976884347872 L 623.065723315671 47.79490767703502 L 622.8842254683683 47.59330913074987 L 622.7027276210655 47.40509713099297 L 622.5212297737628 47.23031307162317 L 622.3397319264601 47.06891555878162 L 622.1582340791573 46.92078066609862 L 621.9767362318546 46.78570269874094 L 621.7952383845518 46.66339546158884 L 621.6137405372491 46.55349402372417 L 621.4322426899464 46.45555696835083 L 621.2507448426436 46.36906911427609 L 621.0692469953409 46.29344469217396 L 620.8877491480381 46.228030956047924 L 620.7062513007354 46.17211220762698 L 620.5247534534326 46.12491420888353 L 620.3432556061299 46.08560895546829 L 620.1617577588272 46.0533197816324 L 619.9802599115244 46.02712676516334 L 619.7987620642217 46.006072399011195 L 619.6172642169189 45.98916749463813 L 619.4357663696162 45.975397280694565 L 619.2542685223135 45.963727659422055 L 619.0727706750107 45.9531115822098 L 618.8912726454473 45.963727659422055 L 618.709774615884 45.975397280694565 L 618.5282765863207 45.98916749463813 L 618.3467785567573 46.006072399011195 L 618.165280527194 46.02712676516334 L 617.9837824976306 46.0533197816324 L 617.8022844680672 46.08560895546829 L 617.620786438504 46.12491420888353 L 617.4392884089406 46.17211220762698 L 617.2577903793772 46.228030956047924 L 617.0762923498139 46.29344469217396 L 616.8947943202505 46.36906911427609 L 616.7132962906871 46.45555696835083 L 616.5317982611239 46.55349402372417 L 616.3503002315605 46.66339546158884 L 616.1688022019971 46.78570269874094 L 615.9873041724337 46.92078066609862 L 615.8058061428704 47.06891555878162 L 615.624308113307 47.23031307162317 L 615.4428100837437 47.40509713099297 L 615.2613120541804 47.59330913074987 L 615.079814024617 47.79490767703502 L 614.8983159950536 48.00976884347872 L 614.7168179654903 48.23768693524774 L 614.535319935927 48.47837575722233 L 614.3538219063636 48.73147037848436 L 614.1723238768003 48.99652938223772 L 613.9908258472369 49.27303758728968 L 613.8093278176735 49.560409224314256 L 613.6278297881101 49.85799154731492 L 613.4463317585469 50.16506885802067 L 613.2648337289835 50.48086691840392 L 613.0833356994201 50.80455772411538 L 612.9018376698568 51.13526460940619 L 612.7203396402934 51.47206765206382 L 612.5388416107301 51.81400934503838 L 612.3573435811668 52.16010049979201 L 612.1758455516034 52.50932634497515 L 611.99434752204 52.860652782829334 L 611.8128494924767 53.21303276474378" stroke="rgb(132, 0, 0)" fill="none" stroke-width="1.458084863576px" stroke-linecap="round"/><path class="sch-component-symbol-path" d="M 640.852519641764 53.21303276474378 L 640.6710216122007 52.860652782829334 L 640.4895235826373 52.50932634497515 L 640.3080255530739 52.16010049979201 L 640.1265275235106 51.81400934503838 L 639.9450294939472 51.47206765206382 L 639.7635314643838 51.13526460940619 L 639.5820334348206 50.80455772411538 L 639.4005354052572 50.48086691840392 L 639.2190373756938 50.16506885802067 L 639.0375393461305 49.85799154731492 L 638.8560413165671 49.560409224314256 L 638.6745432870038 49.27303758728968 L 638.4930452574405 48.99652938223772 L 638.3115472278771 48.73147037848436 L 638.1300491983137 48.47837575722233 L 637.9485511687504 48.23768693524774 L 637.767053139187 48.00976884347872 L 637.5855551096237 47.79490767703502 L 637.4040570800603 47.59330913074987 L 637.222559050497 47.40509713099297 L 637.0410610209336 47.23031307162317 L 636.8595629913702 47.06891555878162 L 636.678064961807 46.92078066609862 L 636.4965669322436 46.78570269874094 L 636.3150689026802 46.66339546158884 L 636.1335708731169 46.55349402372417 L 635.9520728435535 46.45555696835083 L 635.7705748139902 46.36906911427609 L 635.5890767844269 46.29344469217396 L 635.4075787548635 46.228030956047924 L 635.2260807253001 46.17211220762698 L 635.0445826957367 46.12491420888353 L 634.8630846661734 46.08560895546829 L 634.6815866366101 46.0533197816324 L 634.5000886070467 46.02712676516334 L 634.3185905774834 46.006072399011195 L 634.13709254792 45.98916749463813 L 633.9555945183566 45.975397280694565 L 633.7740964887934 45.963727659422055 L 633.59259845923 45.9531115822098 L 633.4111006119273 45.963727659422055 L 633.2296027646245 45.975397280694565 L 633.0481049173218 45.98916749463813 L 632.866607070019 46.006072399011195 L 632.6851092227163 46.02712676516334 L 632.5036113754135 46.0533197816324 L 632.3221135281108 46.08560895546829 L 632.1406156808081 46.12491420888353 L 631.9591178335053 46.17211220762698 L 631.7776199862026 46.228030956047924 L 631.5961221388998 46.29344469217396 L 631.4146242915971 46.36906911427609 L 631.2331264442944 46.45555696835083 L 631.0516285969916 46.55349402372417 L 630.8701307496889 46.66339546158884 L 630.6886329023861 46.78570269874094 L 630.5071350550834 46.92078066609862 L 630.3256372077807 47.06891555878162 L 630.1441393604779 47.23031307162317 L 629.9626415131752 47.40509713099297 L 629.7811436658724 47.59330913074987 L 629.5996458185697 47.79490767703502 L 629.418147971267 48.00976884347872 L 629.2366501239642 48.23768693524774 L 629.0551522766615 48.47837575722233 L 628.8736544293587 48.73147037848436 L 628.692156582056 48.99652938223772 L 628.5106587347532 49.27303758728968 L 628.3291608874505 49.560409224314256 L 628.1476630401478 49.85799154731492 L 627.966165192845 50.16506885802067 L 627.7846673455423 50.48086691840392 L 627.6031694982395 50.80455772411538 L 627.4216716509368 51.13526460940619 L 627.2401738036341 51.47206765206382 L 627.0586759563313 51.81400934503838 L 626.8771781090286 52.16010049979201 L 626.6956802617258 52.50932634497515 L 626.5141824144231 52.860652782829334 L 626.3326845671204 53.21303276474378" stroke="rgb(132, 0, 0)" fill="none" stroke-width="1.458084863576px" stroke-linecap="round"/><path class="sch-component-symbol-path" d="M 655.3723474259833 53.21303276474378 L 655.1908495786806 52.860652782829334 L 655.0093517313778 52.50932634497515 L 654.8278538840751 52.16010049979201 L 654.6463560367724 51.81400934503838 L 654.4648581894696 51.47206765206382 L 654.2833603421669 51.13526460940619 L 654.1018624948641 50.80455772411538 L 653.9203646475614 50.48086691840392 L 653.7388668002586 50.16506885802067 L 653.5573689529559 49.85799154731492 L 653.3758711056532 49.560409224314256 L 653.1943732583504 49.27303758728968 L 653.0128754110477 48.99652938223772 L 652.8313775637449 48.73147037848436 L 652.6498797164422 48.47837575722233 L 652.4683818691395 48.23768693524774 L 652.2868840218367 48.00976884347872 L 652.105386174534 47.79490767703502 L 651.9238883272312 47.59330913074987 L 651.7423904799285 47.40509713099297 L 651.5608926326258 47.23031307162317 L 651.379394785323 47.06891555878162 L 651.1978969380203 46.92078066609862 L 651.0163990907175 46.78570269874094 L 650.8349012434148 46.66339546158884 L 650.653403396112 46.55349402372417 L 650.4719055488093 46.45555696835083 L 650.2904077015066 46.36906911427609 L 650.1089098542038 46.29344469217396 L 649.9274120069011 46.228030956047924 L 649.7459141595983 46.17211220762698 L 649.5644163122956 46.12491420888353 L 649.3829184649929 46.08560895546829 L 649.2014206176901 46.0533197816324 L 649.0199227703874 46.02712676516334 L 648.8384249230846 46.006072399011195 L 648.6569270757819 45.98916749463813 L 648.4754292284792 45.975397280694565 L 648.2939313811764 45.963727659422055 L 648.1124335338737 45.9531115822098 L 647.9309355043104 45.963727659422055 L 647.749437474747 45.975397280694565 L 647.5679394451837 45.98916749463813 L 647.3864414156203 46.006072399011195 L 647.2049433860569 46.02712676516334 L 647.0234453564937 46.0533197816324 L 646.8419473269303 46.08560895546829 L 646.6604492973669 46.12491420888353 L 646.4789512678036 46.17211220762698 L 646.2974532382402 46.228030956047924 L 646.1159552086768 46.29344469217396 L 645.9344571791135 46.36906911427609 L 645.7529591495502 46.45555696835083 L 645.5714611199868 46.55349402372417 L 645.3899630904234 46.66339546158884 L 645.2084650608601 46.78570269874094 L 645.0269670312967 46.92078066609862 L 644.8454690017334 47.06891555878162 L 644.6639709721701 47.23031307162317 L 644.4824729426067 47.40509713099297 L 644.3009749130433 47.59330913074987 L 644.11947688348 47.79490767703502 L 643.9379788539167 48.00976884347872 L 643.7564808243533 48.23768693524774 L 643.57498279479 48.47837575722233 L 643.3934847652266 48.73147037848436 L 643.2119867356632 48.99652938223772 L 643.0304887060998 49.27303758728968 L 642.8489906765366 49.560409224314256 L 642.6674926469732 49.85799154731492 L 642.4859946174098 50.16506885802067 L 642.3044965878465 50.48086691840392 L 642.1229985582831 50.80455772411538 L 641.9415005287198 51.13526460940619 L 641.7600024991565 51.47206765206382 L 641.5785044695931 51.81400934503838 L 641.3970064400297 52.16010049979201 L 641.2155084104664 52.50932634497515 L 641.034010380903 52.860652782829334 L 640.8525123513397 53.21303276474378" stroke="rgb(132, 0, 0)" fill="none" stroke-width="1.458084863576px" stroke-linecap="round"/><path class="sch-component-symbol-path" d="M 597.0647949749861 53.119562234564214 L 587.8037398022859 53.119562234564214" stroke="rgb(132, 0, 0)" fill="none" stroke-width="1.458084863576px" stroke-linecap="round"/><path class="sch-component-symbol-path" d="M 664.7555901102512 53.4525159131618 L 655.494534937551 53.4525159131618" stroke="rgb(132, 0, 0)" fill="none" stroke-width="1.458084863576px" stroke-linecap="round"/><text class="sch-component-name sch-component-text" x="626.0986546560921" y="34.709950426812945" stroke="rgb(245, 241, 237)" stroke-width="1.458084863576px" paint-order="stroke" fill="rgb(15, 15, 15)" font-family="sans-serif" text-anchor="middle" dominant-baseline="ideographic" font-size="13.122763772184px">L1</text><text class="sch-component-text" x="626.0862168061894" y="68.24205956649212" fill="rgb(15, 15, 15)" font-family="sans-serif" text-anchor="middle" dominant-baseline="hanging" font-size="13.122763772184px">470nH</text></g><g class="sch-component" data-circuit-json-type="schematic_component" data-schematic-component-id="schematic_component_2"><rect class="component-overlay sch-component-overlay" x="322.96241783572844" y="242.76920842397993" width="23.332273986943164" height="43.74254590728003" fill="transparent"/><path class="sch-component-symbol-path" d="M 334.6285548292 286.51175433125997 L 334.6285548292 269.01473596834796" stroke="rgb(132, 0, 0)" fill="none" stroke-width="1.458084863576px" stroke-linecap="round"/><path class="sch-component-symbol-path" d="M 334.6285548292 260.26622678689193 L 334.6285548292 242.76920842397993" stroke="rgb(132, 0, 0)" fill="none" stroke-width="1.458084863576px" stroke-linecap="round"/><path class="sch-component-symbol-path" d="M 346.2946918226716 269.01473596834796 L 322.96241783572844 269.01473596834796" stroke="rgb(132, 0, 0)" fill="none" stroke-width="1.458084863576px" stroke-linecap="round"/><path class="sch-component-symbol-path" d="M 346.2946918226716 260.26622678689193 L 322.96241783572844 260.26622678689193" stroke="rgb(132, 0, 0)" fill="none" stroke-width="1.458084863576px" stroke-linecap="round"/><text class="sch-component-name sch-component-text" x="343.01254279476206" y="250.05963274185996" stroke="rgb(245, 241, 237)" stroke-width="1.458084863576px" paint-order="stroke" fill="rgb(15, 15, 15)" font-family="sans-serif" text-anchor="start" dominant-baseline="ideographic" font-size="13.122763772184px">C1</text><text class="sch-component-text" x="343.01254279476206" y="279.22133001337994" fill="rgb(15, 15, 15)" font-family="sans-serif" text-anchor="start" dominant-baseline="hanging" font-size="13.122763772184px">10uF</text></g><g class="sch-component" data-circuit-json-type="schematic_component" data-schematic-component-id="schematic_component_3"><rect class="component-overlay sch-component-overlay" x="1052.0048496237284" y="286.51175433125997" width="23.332273986943164" height="43.74254590728003" fill="transparent"/><path class="sch-component-symbol-path" d="M 1063.6709866172 330.25430023854 L 1063.6709866172 312.757281875628" stroke="rgb(132, 0, 0)" fill="none" stroke-width="1.458084863576px" stroke-linecap="round"/><path class="sch-component-symbol-path" d="M 1063.6709866172 304.00877269417197 L 1063.6709866172 286.51175433125997" stroke="rgb(132, 0, 0)" fill="none" stroke-width="1.458084863576px" stroke-linecap="round"/><path class="sch-component-symbol-path" d="M 1075.3371236106716 312.757281875628 L 1052.0048496237284 312.757281875628" stroke="rgb(132, 0, 0)" fill="none" stroke-width="1.458084863576px" stroke-linecap="round"/><path class="sch-component-symbol-path" d="M 1075.3371236106716 304.00877269417197 L 1052.0048496237284 304.00877269417197" stroke="rgb(132, 0, 0)" fill="none" stroke-width="1.458084863576px" stroke-linecap="round"/><text class="sch-component-name sch-component-text" x="1072.054974582762" y="293.80217864914" stroke="rgb(245, 241, 237)" stroke-width="1.458084863576px" paint-order="stroke" fill="rgb(15, 15, 15)" font-family="sans-serif" text-anchor="start" dominant-baseline="ideographic" font-size="13.122763772184px">C2</text><text class="sch-component-text" x="1072.054974582762" y="322.96387592066" fill="rgb(15, 15, 15)" font-family="sans-serif" text-anchor="start" dominant-baseline="hanging" font-size="13.122763772184px">22uF</text></g><g class="sch-component" data-circuit-json-type="schematic_component" data-schematic-component-id="schematic_component_4"><rect class="component-overlay sch-component-overlay" x="897.4507702543996" y="250.05963274185996" width="11.661762738880952" height="43.74254590728003" fill="transparent"/><path class="sch-component-symbol-path" d="M 903.28165162384 250.05963274185996 L 903.28165162384 257.3515151446035" stroke="rgb(132, 0, 0)" fill="none" stroke-width="1.458084863576px" stroke-linecap="round"/><path class="sch-component-symbol-path" d="M 903.28165162384 286.5102962463964 L 903.28165162384 293.80217864914" stroke="rgb(132, 0, 0)" fill="none" stroke-width="1.458084863576px" stroke-linecap="round"/><path class="sch-component-symbol-path" d="M 909.1125329932805 257.3515151446035 L 909.1125329932805 286.5102962463964 L 897.4507702543996 286.5102962463964 L 897.4507702543996 257.3515151446035 L 909.1125329932805 257.3515151446035" stroke="rgb(132, 0, 0)" fill="none" stroke-width="1.458084863576px" stroke-linecap="round"/><text class="sch-component-name sch-component-text" x="914.9463305324481" y="260.266226786892" stroke="rgb(245, 241, 237)" stroke-width="1.458084863576px" paint-order="stroke" fill="rgb(15, 15, 15)" font-family="sans-serif" text-anchor="start" dominant-baseline="middle" font-size="13.122763772184px">R1</text><text class="sch-component-text" x="914.9463305324481" y="283.59558460410796" fill="rgb(15, 15, 15)" font-family="sans-serif" text-anchor="start" dominant-baseline="middle" font-size="13.122763772184px">511kΩ</text></g><g class="sch-component" data-circuit-json-type="schematic_component" data-schematic-component-id="schematic_component_5"><rect class="component-overlay sch-component-overlay" x="897.4507702543996" y="410.44896773522" width="11.661762738880952" height="43.74254590728003" fill="transparent"/><path class="sch-component-symbol-path" d="M 903.28165162384 410.44896773522 L 903.28165162384 417.74085013796355" stroke="rgb(132, 0, 0)" fill="none" stroke-width="1.458084863576px" stroke-linecap="round"/><path class="sch-component-symbol-path" d="M 903.28165162384 446.89963123975645 L 903.28165162384 454.1915136425" stroke="rgb(132, 0, 0)" fill="none" stroke-width="1.458084863576px" stroke-linecap="round"/><path class="sch-component-symbol-path" d="M 909.1125329932805 417.74085013796355 L 909.1125329932805 446.89963123975645 L 897.4507702543996 446.89963123975645 L 897.4507702543996 417.74085013796355 L 909.1125329932805 417.74085013796355" stroke="rgb(132, 0, 0)" fill="none" stroke-width="1.458084863576px" stroke-linecap="round"/><text class="sch-component-name sch-component-text" x="914.9463305324481" y="420.655561780252" stroke="rgb(245, 241, 237)" stroke-width="1.458084863576px" paint-order="stroke" fill="rgb(15, 15, 15)" font-family="sans-serif" text-anchor="start" dominant-baseline="middle" font-size="13.122763772184px">R2</text><text class="sch-component-text" x="914.9463305324481" y="443.984919597468" fill="rgb(15, 15, 15)" font-family="sans-serif" text-anchor="start" dominant-baseline="middle" font-size="13.122763772184px">91kΩ</text></g><g class="sch-component" data-circuit-json-type="schematic_component" data-schematic-component-id="schematic_component_6"><rect class="component-overlay sch-component-overlay" x="817.2561027577196" y="220.89793547033997" width="11.661762738880952" height="43.74254590728003" fill="transparent"/><path class="sch-component-symbol-path" d="M 823.0869841271601 220.89793547033997 L 823.0869841271601 228.18981787308357" stroke="rgb(132, 0, 0)" fill="none" stroke-width="1.458084863576px" stroke-linecap="round"/><path class="sch-component-symbol-path" d="M 823.0869841271601 257.34859897487644 L 823.0869841271601 264.64048137762" stroke="rgb(132, 0, 0)" fill="none" stroke-width="1.458084863576px" stroke-linecap="round"/><path class="sch-component-symbol-path" d="M 828.9178654966006 228.18981787308357 L 828.9178654966006 257.34859897487644 L 817.2561027577196 257.34859897487644 L 817.2561027577196 228.18981787308357 L 828.9178654966006 228.18981787308357" stroke="rgb(132, 0, 0)" fill="none" stroke-width="1.458084863576px" stroke-linecap="round"/><text class="sch-component-name sch-component-text" x="834.7516630357682" y="231.10452951537198" stroke="rgb(245, 241, 237)" stroke-width="1.458084863576px" paint-order="stroke" fill="rgb(15, 15, 15)" font-family="sans-serif" text-anchor="start" dominant-baseline="middle" font-size="13.122763772184px">R3</text><text class="sch-component-text" x="834.7516630357682" y="254.433887332588" fill="rgb(15, 15, 15)" font-family="sans-serif" text-anchor="start" dominant-baseline="middle" font-size="13.122763772184px">100kΩ</text></g><g class="schematic-port-hover sch-port-hover" data-schematic-port-id="source_port_0"><circle cx="505.95352629938003" cy="301.09260296701996" r="2.916169727152" fill="red" opacity="0"/></g><g class="schematic-port-hover sch-port-hover" data-schematic-port-id="source_port_1"><circle cx="505.95352629938003" cy="388.57769478158" r="2.916169727152" fill="red" opacity="0"/></g><g class="schematic-port-hover sch-port-hover" data-schematic-port-id="source_port_2"><circle cx="746.53752878942" cy="476.06278659614" r="2.916169727152" fill="red" opacity="0"/></g><g class="schematic-port-hover sch-port-hover" data-schematic-port-id="source_port_3"><circle cx="746.53752878942" cy="388.57769478158" r="2.916169727152" fill="red" opacity="0"/></g><g class="schematic-port-hover sch-port-hover" data-schematic-port-id="source_port_4"><circle cx="746.53752878942" cy="301.09260296702" r="2.916169727152" fill="red" opacity="0"/></g><g class="schematic-port-hover sch-port-hover" data-schematic-port-id="source_port_5"><circle cx="746.53752878942" cy="213.60751115245998" r="2.916169727152" fill="red" opacity="0"/></g><g class="schematic-port-hover sch-port-hover" data-schematic-port-id="source_port_6"><circle cx="669.9880734516801" cy="96.96072206637999" r="2.916169727152" fill="red" opacity="0"/></g><g class="schematic-port-hover sch-port-hover" data-schematic-port-id="source_port_7"><circle cx="505.95352629938003" cy="476.06278659614" r="2.916169727152" fill="red" opacity="0"/></g><g class="schematic-port-hover sch-port-hover" data-schematic-port-id="source_port_8"><circle cx="582.50298163712" cy="96.96072206637999" r="2.916169727152" fill="red" opacity="0"/></g><g class="schematic-port-hover sch-port-hover" data-schematic-port-id="source_port_9"><circle cx="505.95352629938003" cy="213.60751115245998" r="2.916169727152" fill="red" opacity="0"/></g><g class="schematic-port-hover sch-port-hover" data-schematic-port-id="source_port_10"><circle cx="587.7584662672717" cy="53.02683532766514" r="2.916169727152" fill="red" opacity="0"/></g><g class="schematic-port-hover sch-port-hover" data-schematic-port-id="source_port_11"><circle cx="664.7325888215283" cy="53.40951699053494" r="2.916169727152" fill="red" opacity="0"/></g><g class="schematic-port-hover sch-port-hover" data-schematic-port-id="source_port_12"><circle cx="334.6285548292" cy="242.76920842398" r="2.916169727152" fill="red" opacity="0"/></g><g class="schematic-port-hover sch-port-hover" data-schematic-port-id="source_port_13"><circle cx="334.6285548292" cy="286.51175433125997" r="2.916169727152" fill="red" opacity="0"/></g><g class="schematic-port-hover sch-port-hover" data-schematic-port-id="source_port_14"><circle cx="1063.6709866172" cy="286.51175433125997" r="2.916169727152" fill="red" opacity="0"/></g><g class="schematic-port-hover sch-port-hover" data-schematic-port-id="source_port_15"><circle cx="1063.6709866172" cy="330.25430023854" r="2.916169727152" fill="red" opacity="0"/></g><g class="schematic-port-hover sch-port-hover" data-schematic-port-id="source_port_16"><circle cx="903.28165162384" cy="250.05963274185999" r="2.916169727152" fill="red" opacity="0"/></g><g class="schematic-port-hover sch-port-hover" data-schematic-port-id="source_port_17"><circle cx="903.28165162384" cy="293.80217864914" r="2.916169727152" fill="red" opacity="0"/></g><g class="schematic-port-hover sch-port-hover" data-schematic-port-id="source_port_18"><circle cx="903.28165162384" cy="410.44896773522" r="2.916169727152" fill="red" opacity="0"/></g><g class="schematic-port-hover sch-port-hover" data-schematic-port-id="source_port_19"><circle cx="903.28165162384" cy="454.1915136425" r="2.916169727152" fill="red" opacity="0"/></g><g class="schematic-port-hover sch-port-hover" data-schematic-port-id="source_port_20"><circle cx="823.0869841271601" cy="220.89793547033997" r="2.916169727152" fill="red" opacity="0"/></g><g class="schematic-port-hover sch-port-hover" data-schematic-port-id="source_port_21"><circle cx="823.0869841271601" cy="264.64048137762" r="2.916169727152" fill="red" opacity="0"/></g><rect class="component-overlay sch-component-overlay sch-net-label-overlay" data-circuit-json-type="schematic_net_label" data-schematic-net-label-id="schematic_net_label_0" x="325.88004564774405" y="209.23325656173196" width="17.497018362911945" height="13.122763772183987" fill="transparent"/><path class="sch-net-label-symbol-path" data-circuit-json-type="schematic_net_label" data-schematic-net-label-id="schematic_net_label_0" d="M 343.377064010656 209.23325656173196 L 325.88004564774405 209.23325656173196" stroke="rgb(132, 0, 0)" fill="none" stroke-width="1.458084863576px" stroke-linecap="round"/><path class="sch-net-label-symbol-path" data-circuit-json-type="schematic_net_label" data-schematic-net-label-id="schematic_net_label_0" d="M 334.6285548292 209.23325656173196 L 334.6285548292 222.35602033391595" stroke="rgb(132, 0, 0)" fill="none" stroke-width="1.458084863576px" stroke-linecap="round"/><text class="sch-net-label-symbol-text" data-circuit-json-type="schematic_net_label" data-schematic-net-label-id="schematic_net_label_0" x="334.6285548292" y="205.58804440279195" fill="rgb(15, 15, 15)" font-family="sans-serif" text-anchor="middle" dominant-baseline="ideographic" font-size="13.122763772184px">VIN</text><rect class="component-overlay sch-component-overlay sch-net-label-overlay" data-circuit-json-type="schematic_net_label" data-schematic-net-label-id="schematic_net_label_1" x="814.3384749457041" y="207.775171698156" width="17.49701836291206" height="13.122763772183987" fill="transparent"/><path class="sch-net-label-symbol-path" data-circuit-json-type="schematic_net_label" data-schematic-net-label-id="schematic_net_label_1" d="M 831.8354933086162 207.775171698156 L 814.3384749457041 207.775171698156" stroke="rgb(132, 0, 0)" fill="none" stroke-width="1.458084863576px" stroke-linecap="round"/><path class="sch-net-label-symbol-path" data-circuit-json-type="schematic_net_label" data-schematic-net-label-id="schematic_net_label_1" d="M 823.0869841271601 207.775171698156 L 823.0869841271601 220.89793547033997" stroke="rgb(132, 0, 0)" fill="none" stroke-width="1.458084863576px" stroke-linecap="round"/><text class="sch-net-label-symbol-text" data-circuit-json-type="schematic_net_label" data-schematic-net-label-id="schematic_net_label_1" x="823.0869841271601" y="204.12995953921597" fill="rgb(15, 15, 15)" font-family="sans-serif" text-anchor="middle" dominant-baseline="ideographic" font-size="13.122763772184px">VIN</text><rect class="component-overlay sch-component-overlay sch-net-label-overlay" data-circuit-json-type="schematic_net_label" data-schematic-net-label-id="schematic_net_label_2" x="461.4819379603121" y="476.1356908393188" width="17.497018362911945" height="13.122763772184044" fill="transparent"/><path class="sch-net-label-symbol-path" data-circuit-json-type="schematic_net_label" data-schematic-net-label-id="schematic_net_label_2" d="M 461.4819379603121 489.2584546115028 L 478.97895632322405 489.2584546115028" stroke="rgb(132, 0, 0)" fill="none" stroke-width="1.458084863576px" stroke-linecap="round"/><path class="sch-net-label-symbol-path" data-circuit-json-type="schematic_net_label" data-schematic-net-label-id="schematic_net_label_2" d="M 470.2304471417681 489.2584546115028 L 470.2304471417681 476.1356908393188" stroke="rgb(132, 0, 0)" fill="none" stroke-width="1.458084863576px" stroke-linecap="round"/><text class="sch-net-label-symbol-text" data-circuit-json-type="schematic_net_label" data-schematic-net-label-id="schematic_net_label_2" x="470.2304471417681" y="492.9036667704428" fill="rgb(15, 15, 15)" font-family="sans-serif" text-anchor="middle" dominant-baseline="hanging" font-size="13.122763772184px">GND</text><rect class="component-overlay sch-component-overlay sch-net-label-overlay" data-circuit-json-type="schematic_net_label" data-schematic-net-label-id="schematic_net_label_3" x="894.533142442384" y="476.06278659614" width="17.49701836291206" height="13.122763772184044" fill="transparent"/><path class="sch-net-label-symbol-path" data-circuit-json-type="schematic_net_label" data-schematic-net-label-id="schematic_net_label_3" d="M 894.533142442384 489.185550368324 L 912.0301608052961 489.185550368324" stroke="rgb(132, 0, 0)" fill="none" stroke-width="1.458084863576px" stroke-linecap="round"/><path class="sch-net-label-symbol-path" data-circuit-json-type="schematic_net_label" data-schematic-net-label-id="schematic_net_label_3" d="M 903.28165162384 489.185550368324 L 903.28165162384 476.06278659614" stroke="rgb(132, 0, 0)" fill="none" stroke-width="1.458084863576px" stroke-linecap="round"/><text class="sch-net-label-symbol-text" data-circuit-json-type="schematic_net_label" data-schematic-net-label-id="schematic_net_label_3" x="903.28165162384" y="492.83076252726397" fill="rgb(15, 15, 15)" font-family="sans-serif" text-anchor="middle" dominant-baseline="hanging" font-size="13.122763772184px">GND</text><rect class="component-overlay sch-component-overlay sch-net-label-overlay" data-circuit-json-type="schematic_net_label" data-schematic-net-label-id="schematic_net_label_4" x="325.88004564774405" y="286.51175433125997" width="17.497018362911945" height="13.122763772184044" fill="transparent"/><path class="sch-net-label-symbol-path" data-circuit-json-type="schematic_net_label" data-schematic-net-label-id="schematic_net_label_4" d="M 325.88004564774405 299.634518103444 L 343.377064010656 299.634518103444" stroke="rgb(132, 0, 0)" fill="none" stroke-width="1.458084863576px" stroke-linecap="round"/><path class="sch-net-label-symbol-path" data-circuit-json-type="schematic_net_label" data-schematic-net-label-id="schematic_net_label_4" d="M 334.6285548292 299.634518103444 L 334.6285548292 286.51175433125997" stroke="rgb(132, 0, 0)" fill="none" stroke-width="1.458084863576px" stroke-linecap="round"/><text class="sch-net-label-symbol-text" data-circuit-json-type="schematic_net_label" data-schematic-net-label-id="schematic_net_label_4" x="334.6285548292" y="303.27973026238396" fill="rgb(15, 15, 15)" font-family="sans-serif" text-anchor="middle" dominant-baseline="hanging" font-size="13.122763772184px">GND</text><rect class="component-overlay sch-component-overlay sch-net-label-overlay" data-circuit-json-type="schematic_net_label" data-schematic-net-label-id="schematic_net_label_5" x="1054.922477435744" y="330.25430023853994" width="17.49701836291206" height="13.122763772184044" fill="transparent"/><path class="sch-net-label-symbol-path" data-circuit-json-type="schematic_net_label" data-schematic-net-label-id="schematic_net_label_5" d="M 1054.922477435744 343.377064010724 L 1072.419495798656 343.377064010724" stroke="rgb(132, 0, 0)" fill="none" stroke-width="1.458084863576px" stroke-linecap="round"/><path class="sch-net-label-symbol-path" data-circuit-json-type="schematic_net_label" data-schematic-net-label-id="schematic_net_label_5" d="M 1063.6709866172 343.377064010724 L 1063.6709866172 330.25430023853994" stroke="rgb(132, 0, 0)" fill="none" stroke-width="1.458084863576px" stroke-linecap="round"/><text class="sch-net-label-symbol-text" data-circuit-json-type="schematic_net_label" data-schematic-net-label-id="schematic_net_label_5" x="1063.6709866172" y="347.02227616966394" fill="rgb(15, 15, 15)" font-family="sans-serif" text-anchor="middle" dominant-baseline="hanging" font-size="13.122763772184px">GND</text><path class="net-label sch-net-label" data-circuit-json-type="schematic_net_label" data-schematic-net-label-id="schematic_net_label_6" d="
    M 746.53752878942,388.57769478158
    L 750.4743579210751,381.2872704637
    L 902.222109956308,381.2872704637
    L 902.222109956308,395.86811909946005
    L 750.4743579210751,395.86811909946005
    Z
  " fill="rgba(255, 255, 255, 0.6)" stroke="rgb(132, 0, 0)" stroke-width="1.458084863576px"/><text class="net-label-text sch-net-label-text" data-circuit-json-type="schematic_net_label" data-schematic-net-label-id="schematic_net_label_6" x="753.098910675512" y="388.57769478158" fill="rgb(132, 0, 0)" text-anchor="start" dominant-baseline="central" font-family="sans-serif" font-variant-numeric="tabular-nums" font-size="13.122763772184px" transform="">U1_FB/R1_pin2/R2_pin1</text><path class="net-label sch-net-label" data-circuit-json-type="schematic_net_label" data-schematic-net-label-id="schematic_net_label_7" d="
    M 903.28165162384,352.12557319218
    L 907.2184807554952,344.8351488743
    L 1058.966232790728,344.8351488743
    L 1058.966232790728,359.41599751006004
    L 907.2184807554952,359.41599751006004
    Z
  " fill="rgba(255, 255, 255, 0.6)" stroke="rgb(132, 0, 0)" stroke-width="1.458084863576px"/><text class="net-label-text sch-net-label-text" data-circuit-json-type="schematic_net_label" data-schematic-net-label-id="schematic_net_label_7" x="909.8430335099321" y="352.12557319218" fill="rgb(132, 0, 0)" text-anchor="start" dominant-baseline="central" font-family="sans-serif" font-variant-numeric="tabular-nums" font-size="13.122763772184px" transform="">U1_FB/R1_pin2/R2_pin1</text><rect class="component-overlay sch-component-overlay sch-net-label-overlay" data-circuit-json-type="schematic_net_label" data-schematic-net-label-id="schematic_net_label_8" x="894.533142442384" y="200.484747380276" width="17.49701836291206" height="13.122763772183987" fill="transparent"/><path class="sch-net-label-symbol-path" data-circuit-json-type="schematic_net_label" data-schematic-net-label-id="schematic_net_label_8" d="M 912.0301608052961 200.484747380276 L 894.533142442384 200.484747380276" stroke="rgb(132, 0, 0)" fill="none" stroke-width="1.458084863576px" stroke-linecap="round"/><path class="sch-net-label-symbol-path" data-circuit-json-type="schematic_net_label" data-schematic-net-label-id="schematic_net_label_8" d="M 903.28165162384 200.484747380276 L 903.28165162384 213.60751115245998" stroke="rgb(132, 0, 0)" fill="none" stroke-width="1.458084863576px" stroke-linecap="round"/><text class="sch-net-label-symbol-text" data-circuit-json-type="schematic_net_label" data-schematic-net-label-id="schematic_net_label_8" x="903.28165162384" y="196.83953522133598" fill="rgb(15, 15, 15)" font-family="sans-serif" text-anchor="middle" dominant-baseline="ideographic" font-size="13.122763772184px">VOUT</text><rect class="component-overlay sch-component-overlay sch-net-label-overlay" data-circuit-json-type="schematic_net_label" data-schematic-net-label-id="schematic_net_label_9" x="1054.922477435744" y="273.388990559076" width="17.49701836291206" height="13.122763772184044" fill="transparent"/><path class="sch-net-label-symbol-path" data-circuit-json-type="schematic_net_label" data-schematic-net-label-id="schematic_net_label_9" d="M 1072.419495798656 273.388990559076 L 1054.922477435744 273.388990559076" stroke="rgb(132, 0, 0)" fill="none" stroke-width="1.458084863576px" stroke-linecap="round"/><path class="sch-net-label-symbol-path" data-circuit-json-type="schematic_net_label" data-schematic-net-label-id="schematic_net_label_9" d="M 1063.6709866172 273.388990559076 L 1063.6709866172 286.51175433126" stroke="rgb(132, 0, 0)" fill="none" stroke-width="1.458084863576px" stroke-linecap="round"/><text class="sch-net-label-symbol-text" data-circuit-json-type="schematic_net_label" data-schematic-net-label-id="schematic_net_label_9" x="1063.6709866172" y="269.743778400136" fill="rgb(15, 15, 15)" font-family="sans-serif" text-anchor="middle" dominant-baseline="ideographic" font-size="13.122763772184px">VOUT</text><text class="sch-text" x="188.82006847160005" y="184.44581388093997" fill="#000000" text-anchor="middle" dominant-baseline="middle" font-family="sans-serif" font-size="13.122763772184px" transform="rotate(0, 188.82006847160005, 184.44581388093997)">VIN 1.3V-5.5V</text><text class="sch-text" x="772.0540139020001" y="184.44581388093997" fill="#000000" text-anchor="middle" dominant-baseline="middle" font-family="sans-serif" font-size="10.93563647682px" transform="rotate(0, 772.0540139020001, 184.44581388093997)">VOUT = 3.3V</text></svg>