<svg xmlns="http://www.w3.org/2000/svg" width="1200" height="600" style="background-color: rgb(245, 241, 237)" data-real-to-screen-transform="matrix(106.0590159119,0,0,-106.0590159119,594.9621967442,285.2719379904)"><style>
              .boundary { fill: rgb(245, 241, 237); }
              .schematic-boundary { fill: none; stroke: #fff; }
              .component { fill: none; stroke: rgb(132, 0, 0); }
              .chip { fill: rgb(255, 255, 194); stroke: rgb(132, 0, 0); }
              .component-pin { fill: none; stroke: rgb(132, 0, 0); }
              /* Basic per-trace hover fallback */
              .trace:hover {
                filter: invert(1);
              }
              .trace:hover .trace-crossing-outline {
                opacity: 0;
              }
              .trace:hover .trace-junction {
                filter: invert(1);
              }
              /* Net-hover highlighting: when a trace or its overlays are hovered,
                 invert color for all traces (base + overlays) sharing the same
                 subcircuit connectivity key. Also hide crossing outline during hover. */
              svg:has(:is(g.trace[data-subcircuit-connectivity-map-key="unnamedsubcircuitsubcircuit_source_group_0_connectivity_net1"], g.trace-overlays[data-subcircuit-connectivity-map-key="unnamedsubcircuitsubcircuit_source_group_0_connectivity_net1"]):hover) :is(g.trace[data-subcircuit-connectivity-map-key="unnamedsubcircuitsubcircuit_source_group_0_connectivity_net1"], g.trace-overlays[data-subcircuit-connectivity-map-key="unnamedsubcircuitsubcircuit_source_group_0_connectivity_net1"]) { filter: invert(1); }
svg:has(:is(g.trace[data-subcircuit-connectivity-map-key="unnamedsubcircuitsubcircuit_source_group_0_connectivity_net1"], g.trace-overlays[data-subcircuit-connectivity-map-key="unnamedsubcircuitsubcircuit_source_group_0_connectivity_net1"]):hover) g.trace-overlays[data-subcircuit-connectivity-map-key="unnamedsubcircuitsubcircuit_source_group_0_connectivity_net1"] .trace-crossing-outline { opacity: 0; }
svg:has(:is(g.trace[data-subcircuit-connectivity-map-key="unnamedsubcircuitsubcircuit_source_group_0_connectivity_net0"], g.trace-overlays[data-subcircuit-connectivity-map-key="unnamedsubcircuitsubcircuit_source_group_0_connectivity_net0"]):hover) :is(g.trace[data-subcircuit-connectivity-map-key="unnamedsubcircuitsubcircuit_source_group_0_connectivity_net0"], g.trace-overlays[data-subcircuit-connectivity-map-key="unnamedsubcircuitsubcircuit_source_group_0_connectivity_net0"]) { filter: invert(1); }
svg:has(:is(g.trace[data-subcircuit-connectivity-map-key="unnamedsubcircuitsubcircuit_source_group_0_connectivity_net0"], g.trace-overlays[data-subcircuit-connectivity-map-key="unnamedsubcircuitsubcircuit_source_group_0_connectivity_net0"]):hover) g.trace-overlays[data-subcircuit-connectivity-map-key="unnamedsubcircuitsubcircuit_source_group_0_connectivity_net0"] .trace-crossing-outline { opacity: 0; }
svg:has(:is(g.trace[data-subcircuit-connectivity-map-key="unnamedsubcircuitsubcircuit_source_group_0_connectivity_net2"], g.trace-overlays[data-subcircuit-connectivity-map-key="unnamedsubcircuitsubcircuit_source_group_0_connectivity_net2"]):hover) :is(g.trace[data-subcircuit-connectivity-map-key="unnamedsubcircuitsubcircuit_source_group_0_connectivity_net2"], g.trace-overlays[data-subcircuit-connectivity-map-key="unnamedsubcircuitsubcircuit_source_group_0_connectivity_net2"]) { filter: invert(1); }
svg:has(:is(g.trace[data-subcircuit-connectivity-map-key="unnamedsubcircuitsubcircuit_source_group_0_connectivity_net2"], g.trace-overlays[data-subcircuit-connectivity-map-key="unnamedsubcircuitsubcircuit_source_group_0_connectivity_net2"]):hover) g.trace-overlays[data-subcircuit-connectivity-map-key="unnamedsubcircuitsubcircuit_source_group_0_connectivity_net2"] .trace-crossing-outline { opacity: 0; }
svg:has(:is(g.trace[data-subcircuit-connectivity-map-key="unnamedsubcircuitsubcircuit_source_group_0_connectivity_net3"], g.trace-overlays[data-subcircuit-connectivity-map-key="unnamedsubcircuitsubcircuit_source_group_0_connectivity_net3"]):hover) :is(g.trace[data-subcircuit-connectivity-map-key="unnamedsubcircuitsubcircuit_source_group_0_connectivity_net3"], g.trace-overlays[data-subcircuit-connectivity-map-key="unnamedsubcircuitsubcircuit_source_group_0_connectivity_net3"]) { filter: invert(1); }
svg:has(:is(g.trace[data-subcircuit-connectivity-map-key="unnamedsubcircuitsubcircuit_source_group_0_connectivity_net3"], g.trace-overlays[data-subcircuit-connectivity-map-key="unnamedsubcircuitsubcircuit_source_group_0_connectivity_net3"]):hover) g.trace-overlays[data-subcircuit-connectivity-map-key="unnamedsubcircuitsubcircuit_source_group_0_connectivity_net3"] .trace-crossing-outline { opacity: 0; }
              .text { font-family: sans-serif; fill: rgb(0, 150, 0); }
              .pin-number { fill: rgb(169, 0, 0); }
              .port-label { fill: rgb(0, 100, 100); }
              .component-name { fill: rgb(0, 100, 100); }
            </style><rect class="boundary" x="0" y="0" width="1200" height="600"/><g class="trace" data-layer="base" data-circuit-json-type="schematic_trace" data-schematic-trace-id="schematic_trace_0" data-subcircuit-connectivity-map-key="unnamedsubcircuitsubcircuit_source_group_0_connectivity_net1"><path d="M 446.47957446754003 396.633904697895 L 435.87367287635004 396.633904697895 L 435.87367287635004 439.05751106265495" class="trace-invisible-hover-outline" stroke="rgb(0, 150, 0)" fill="none" stroke-width="16.969442545904002px" stroke-linecap="round" opacity="0" stroke-linejoin="round"/><path d="M 446.47957446754003 396.633904697895 L 435.87367287635004 396.633904697895 L 435.87367287635004 439.05751106265495" stroke="rgb(0, 150, 0)" fill="none" stroke-width="2.1211803182380002px" stroke-linecap="round" stroke-linejoin="round"/></g><g class="trace" data-layer="base" data-circuit-json-type="schematic_trace" data-schematic-trace-id="schematic_trace_1" data-subcircuit-connectivity-map-key="unnamedsubcircuitsubcircuit_source_group_0_connectivity_net0"><path d="M 85.34862528752052 185.57646303321397 L 85.34862528752052 164.36465985083396 L 244.96744423493004 164.36465985083396 L 244.96744423493004 190.34911874924944" class="trace-invisible-hover-outline" stroke="rgb(0, 150, 0)" fill="none" stroke-width="16.969442545904002px" stroke-linecap="round" opacity="0" stroke-linejoin="round"/><path d="M 85.34862528752052 185.57646303321397 L 85.34862528752052 164.36465985083396 L 244.96744423493004 164.36465985083396 L 244.96744423493004 190.34911874924944" stroke="rgb(0, 150, 0)" fill="none" stroke-width="2.1211803182380002px" stroke-linecap="round" stroke-linejoin="round"/></g><g class="trace" data-layer="base" data-circuit-json-type="schematic_trace" data-schematic-trace-id="schematic_trace_2" data-subcircuit-connectivity-map-key="unnamedsubcircuitsubcircuit_source_group_0_connectivity_net0"><path d="M 446.47957446754003 184.51587287409495 L 244.96744423493004 184.51587287409495 L 244.96744423493004 190.34911874924947" class="trace-invisible-hover-outline" stroke="rgb(0, 150, 0)" fill="none" stroke-width="16.969442545904002px" stroke-linecap="round" opacity="0" stroke-linejoin="round"/><path d="M 446.47957446754003 184.51587287409495 L 244.96744423493004 184.51587287409495 L 244.96744423493004 190.34911874924947" stroke="rgb(0, 150, 0)" fill="none" stroke-width="2.1211803182380002px" stroke-linecap="round" stroke-linejoin="round"/></g><g class="trace" data-layer="base" data-circuit-json-type="schematic_trace" data-schematic-trace-id="schematic_trace_3" data-subcircuit-connectivity-map-key="unnamedsubcircuitsubcircuit_source_group_0_connectivity_net2"><path d="M 807.080228568 322.392593559565 L 807.080228568 343.604396741945 L 764.65662220324 343.604396741945 L 764.65662220324 322.392593559565 L 743.44481902086 322.392593559565" class="trace-invisible-hover-outline" stroke="rgb(0, 150, 0)" fill="none" stroke-width="16.969442545904002px" stroke-linecap="round" opacity="0" stroke-linejoin="round"/><path d="M 807.080228568 322.392593559565 L 807.080228568 343.604396741945 L 764.65662220324 343.604396741945 L 764.65662220324 322.392593559565 L 743.44481902086 322.392593559565" stroke="rgb(0, 150, 0)" fill="none" stroke-width="2.1211803182380002px" stroke-linecap="round" stroke-linejoin="round"/></g><g class="trace" data-layer="base" data-circuit-json-type="schematic_trace" data-schematic-trace-id="schematic_trace_4" data-subcircuit-connectivity-map-key="unnamedsubcircuitsubcircuit_source_group_0_connectivity_net3"><path d="M 1125.2572763037 184.515872874095 L 1125.2572763037 163.30406969171497 L 1019.1982603918 163.30406969171497 L 1019.1982603918 190.34911874924947" class="trace-invisible-hover-outline" stroke="rgb(0, 150, 0)" fill="none" stroke-width="16.969442545904002px" stroke-linecap="round" opacity="0" stroke-linejoin="round"/><path d="M 1125.2572763037 184.515872874095 L 1125.2572763037 163.30406969171497 L 1019.1982603918 163.30406969171497 L 1019.1982603918 190.34911874924947" stroke="rgb(0, 150, 0)" fill="none" stroke-width="2.1211803182380002px" stroke-linecap="round" stroke-linejoin="round"/></g><g class="trace" data-layer="base" data-circuit-json-type="schematic_trace" data-schematic-trace-id="schematic_trace_5" data-subcircuit-connectivity-map-key="unnamedsubcircuitsubcircuit_source_group_0_connectivity_net3"><path d="M 807.080228568 205.727676056475 L 807.080228568 169.13731556686946 L 1019.1982603918 169.13731556686946 L 1019.1982603918 190.34911874924947" class="trace-invisible-hover-outline" stroke="rgb(0, 150, 0)" fill="none" stroke-width="16.969442545904002px" stroke-linecap="round" opacity="0" stroke-linejoin="round"/><path d="M 807.080228568 205.727676056475 L 807.080228568 169.13731556686946 L 1019.1982603918 169.13731556686946 L 1019.1982603918 190.34911874924947" stroke="rgb(0, 150, 0)" fill="none" stroke-width="2.1211803182380002px" stroke-linecap="round" stroke-linejoin="round"/></g><g class="trace" data-layer="base" data-circuit-json-type="schematic_trace" data-schematic-trace-id="schematic_trace_6" data-subcircuit-connectivity-map-key="unnamedsubcircuitsubcircuit_source_group_0_connectivity_net3"><path d="M 743.44481902086 184.51587287409498 L 807.080228568 184.51587287409498 L 807.080228568 205.727676056475" class="trace-invisible-hover-outline" stroke="rgb(0, 150, 0)" fill="none" stroke-width="16.969442545904002px" stroke-linecap="round" opacity="0" stroke-linejoin="round"/><path d="M 743.44481902086 184.51587287409498 L 807.080228568 184.51587287409498 L 807.080228568 205.727676056475" stroke="rgb(0, 150, 0)" fill="none" stroke-width="2.1211803182380002px" stroke-linecap="round" stroke-linejoin="round"/></g><g class="trace" data-layer="base" data-circuit-json-type="schematic_trace" data-schematic-trace-id="schematic_trace_7" data-subcircuit-connectivity-map-key="unnamedsubcircuitsubcircuit_source_group_0_connectivity_net1"><path d="M 86.40921544663951 300.120200218066 L 86.40921544663951 321.332003400446 L 244.96744423493004 321.332003400446 L 244.96744423493004 295.3475445020305" class="trace-invisible-hover-outline" stroke="rgb(0, 150, 0)" fill="none" stroke-width="16.969442545904002px" stroke-linecap="round" opacity="0" stroke-linejoin="round"/><path d="M 86.40921544663951 300.120200218066 L 86.40921544663951 321.332003400446 L 244.96744423493004 321.332003400446 L 244.96744423493004 295.3475445020305" stroke="rgb(0, 150, 0)" fill="none" stroke-width="2.1211803182380002px" stroke-linecap="round" stroke-linejoin="round"/></g><g class="trace" data-layer="base" data-circuit-json-type="schematic_trace" data-schematic-trace-id="schematic_trace_8" data-subcircuit-connectivity-map-key="unnamedsubcircuitsubcircuit_source_group_0_connectivity_net1"><path d="M 1125.2572763037 301.18079037718496 L 1125.2572763037 322.39259355956494 L 1019.1982603918 322.39259355956494 L 1019.1982603918 295.3475445020305" class="trace-invisible-hover-outline" stroke="rgb(0, 150, 0)" fill="none" stroke-width="16.969442545904002px" stroke-linecap="round" opacity="0" stroke-linejoin="round"/><path d="M 1125.2572763037 301.18079037718496 L 1125.2572763037 322.39259355956494 L 1019.1982603918 322.39259355956494 L 1019.1982603918 295.3475445020305" stroke="rgb(0, 150, 0)" fill="none" stroke-width="2.1211803182380002px" stroke-linecap="round" stroke-linejoin="round"/></g><g class="trace-overlays" data-layer="overlay" data-circuit-json-type="schematic_trace" data-schematic-trace-id="schematic_trace_0" data-subcircuit-connectivity-map-key="unnamedsubcircuitsubcircuit_source_group_0_connectivity_net1"/><g class="trace-overlays" data-layer="overlay" data-circuit-json-type="schematic_trace" data-schematic-trace-id="schematic_trace_1" data-subcircuit-connectivity-map-key="unnamedsubcircuitsubcircuit_source_group_0_connectivity_net0"><circle cx="244.96744423493004" cy="184.51587287409495" r="3.181770477357" class="trace-junction" fill="rgb(0, 150, 0)"/></g><g class="trace-overlays" data-layer="overlay" data-circuit-json-type="schematic_trace" data-schematic-trace-id="schematic_trace_2" data-subcircuit-connectivity-map-key="unnamedsubcircuitsubcircuit_source_group_0_connectivity_net0"><circle cx="244.96744423493004" cy="184.51587287409495" r="3.181770477357" class="trace-junction" fill="rgb(0, 150, 0)"/></g><g class="trace-overlays" data-layer="overlay" data-circuit-json-type="schematic_trace" data-schematic-trace-id="schematic_trace_3" data-subcircuit-connectivity-map-key="unnamedsubcircuitsubcircuit_source_group_0_connectivity_net2"/><g class="trace-overlays" data-layer="overlay" data-circuit-json-type="schematic_trace" data-schematic-trace-id="schematic_trace_4" data-subcircuit-connectivity-map-key="unnamedsubcircuitsubcircuit_source_group_0_connectivity_net3"><circle cx="1019.1982603918" cy="169.13731556686946" r="3.181770477357" class="trace-junction" fill="rgb(0, 150, 0)"/></g><g class="trace-overlays" data-layer="overlay" data-circuit-json-type="schematic_trace" data-schematic-trace-id="schematic_trace_5" data-subcircuit-connectivity-map-key="unnamedsubcircuitsubcircuit_source_group_0_connectivity_net3"><circle cx="1019.1982603918" cy="169.13731556686946" r="3.181770477357" class="trace-junction" fill="rgb(0, 150, 0)"/><circle cx="807.080228568" cy="184.51587287409498" r="3.181770477357" class="trace-junction" fill="rgb(0, 150, 0)"/></g><g class="trace-overlays" data-layer="overlay" data-circuit-json-type="schematic_trace" data-schematic-trace-id="schematic_trace_6" data-subcircuit-connectivity-map-key="unnamedsubcircuitsubcircuit_source_group_0_connectivity_net3"><circle cx="807.080228568" cy="184.51587287409498" r="3.181770477357" class="trace-junction" fill="rgb(0, 150, 0)"/></g><g class="trace-overlays" data-layer="overlay" data-circuit-json-type="schematic_trace" data-schematic-trace-id="schematic_trace_7" data-subcircuit-connectivity-map-key="unnamedsubcircuitsubcircuit_source_group_0_connectivity_net1"/><g class="trace-overlays" data-layer="overlay" data-circuit-json-type="schematic_trace" data-schematic-trace-id="schematic_trace_8" data-subcircuit-connectivity-map-key="unnamedsubcircuitsubcircuit_source_group_0_connectivity_net1"/><path d="M 382.8441649204 306.48374117277996 L 414.66186969397 306.48374117277996 L 414.66186969397 264.06013480802 L 446.47957446754003 264.06013480802" stroke="rgb(132, 0, 0)" stroke-width="5.302950795595001" fill="none" stroke-linecap="round" stroke-linejoin="round"/><g data-circuit-json-type="schematic_component" data-schematic-component-id="schematic_component_0"><rect class="component chip" x="488.9031808323" y="126.18341412254998" width="212.11803182380004" height="318.17704773570006" stroke-width="2.1211803182380002px" fill="rgb(255, 255, 194)" stroke="rgb(132, 0, 0)"/><rect class="component-overlay" x="488.9031808323" y="126.18341412254998" width="212.11803182380004" height="318.17704773570006" fill="transparent"/><text x="488.9031808323" y="458.14813392679696" fill="#006464" text-anchor="start" dominant-baseline="middle" font-family="sans-serif" font-size="19.090622864142px" transform="rotate(0, 488.9031808323, 458.14813392679696)">TPS22919DCKR</text><text x="488.9031808323" y="112.39574205400297" fill="#006464" text-anchor="start" dominant-baseline="middle" font-family="sans-serif" font-size="19.090622864142px" transform="rotate(0, 488.9031808323, 112.39574205400297)">U1</text><line class="component-pin" x1="488.9031808323" y1="184.51587287409495" x2="446.47957446754003" y2="184.51587287409495" stroke-width="2.1211803182380002px"/><g data-schematic-port-id="source_port_0"><rect x="444.35839414930206" y="182.39469255585695" width="4.2423606364760005" height="4.2423606364760005" opacity="0"/></g><text class="pin-number" x="467.69137764992" y="182.39469255585698" style="font-family: sans-serif;" fill="rgb(169, 0, 0)" text-anchor="middle" dominant-baseline="auto" font-size="15.908852386785px" transform="">1</text><text class="pin-number" x="499.50908242349" y="184.51587287409495" style="font-family: sans-serif;" fill="rgb(169, 0, 0)" text-anchor="start" dominant-baseline="middle" font-size="15.908852386785px" transform="">IN</text><line class="component-pin" x1="488.9031808323" y1="396.633904697895" x2="446.47957446754003" y2="396.633904697895" stroke-width="2.1211803182380002px"/><g data-schematic-port-id="source_port_1"><rect x="444.35839414930206" y="394.512724379657" width="4.2423606364760005" height="4.2423606364760005" opacity="0"/></g><text class="pin-number" x="467.69137764992" y="394.512724379657" style="font-family: sans-serif;" fill="rgb(169, 0, 0)" text-anchor="middle" dominant-baseline="auto" font-size="15.908852386785px" transform="">2</text><text class="pin-number" x="499.50908242349" y="396.633904697895" style="font-family: sans-serif;" fill="rgb(169, 0, 0)" text-anchor="start" dominant-baseline="middle" font-size="15.908852386785px" transform="">GND</text><line class="component-pin" x1="488.9031808323" y1="290.574888785995" x2="448.600754785778" y2="290.574888785995" stroke-width="2.1211803182380002px"/><g data-schematic-port-id="source_port_2"><circle class="component-pin" cx="446.47957446754003" cy="290.574888785995" r="2.1211803182380002" stroke-width="2.1211803182380002px"/><rect x="444.35839414930206" y="288.453708467757" width="4.2423606364760005" height="4.2423606364760005" opacity="0"/></g><text class="pin-number" x="467.69137764992" y="288.453708467757" style="font-family: sans-serif;" fill="rgb(169, 0, 0)" text-anchor="middle" dominant-baseline="auto" font-size="15.908852386785px" transform="">3</text><text class="pin-number" x="499.50908242349" y="290.574888785995" style="font-family: sans-serif;" fill="rgb(169, 0, 0)" text-anchor="start" dominant-baseline="middle" font-size="15.908852386785px" transform="">ON</text><line class="component-pin" x1="701.0212126561" y1="322.392593559565" x2="743.44481902086" y2="322.392593559565" stroke-width="2.1211803182380002px"/><g data-schematic-port-id="source_port_4"><rect x="741.323638702622" y="320.271413241327" width="4.2423606364760005" height="4.2423606364760005" opacity="0"/></g><text class="pin-number" x="722.23301583848" y="320.27141324132697" style="font-family: sans-serif;" fill="rgb(169, 0, 0)" text-anchor="middle" dominant-baseline="auto" font-size="15.908852386785px" transform="">5</text><text class="pin-number" x="690.41531106491" y="322.392593559565" style="font-family: sans-serif;" fill="rgb(169, 0, 0)" text-anchor="end" dominant-baseline="middle" font-size="15.908852386785px" transform="">QOD</text><line class="component-pin" x1="701.0212126561" y1="184.51587287409498" x2="743.44481902086" y2="184.51587287409498" stroke-width="2.1211803182380002px"/><g data-schematic-port-id="source_port_5"><rect x="741.323638702622" y="182.39469255585698" width="4.2423606364760005" height="4.2423606364760005" opacity="0"/></g><text class="pin-number" x="722.23301583848" y="182.39469255585698" style="font-family: sans-serif;" fill="rgb(169, 0, 0)" text-anchor="middle" dominant-baseline="auto" font-size="15.908852386785px" transform="">6</text><text class="pin-number" x="690.41531106491" y="184.51587287409498" style="font-family: sans-serif;" fill="rgb(169, 0, 0)" text-anchor="end" dominant-baseline="middle" font-size="15.908852386785px" transform="">OUT</text></g><g data-circuit-json-type="schematic_component" data-schematic-component-id="schematic_component_1"><rect class="component-overlay" x="75.80331385544952" y="185.57646303321397" width="27.575344137093992" height="114.543737184852" fill="transparent"/><path d="M 86.40921544663951 300.120200218066 L 85.3486252875205 274.66603639921" stroke="rgb(132, 0, 0)" fill="none" stroke-width="2.1211803182380002px" stroke-linecap="round"/><path d="M 85.34862528752052 212.09121701118897 L 85.34862528752052 185.57646303321397" stroke="rgb(132, 0, 0)" fill="none" stroke-width="2.1211803182380002px" stroke-linecap="round"/><path d="M 75.80331385544952 232.24243003444997 L 95.95452687871051 242.84833162563996 L 75.80331385544952 254.51482337594896" stroke="rgb(132, 0, 0)" fill="none" stroke-width="2.1211803182380002px" stroke-linecap="round"/><path d="M 103.37865799254351 242.84833162563996 L 101.25747767430552 235.42420051180696" stroke="rgb(132, 0, 0)" fill="none" stroke-width="2.1211803182380002px" stroke-linecap="round"/><path d="M 101.25747767430552 235.42420051180696 L 103.37865799254351 228.00006939797396" stroke="rgb(132, 0, 0)" fill="none" stroke-width="2.1211803182380002px" stroke-linecap="round"/><path d="M 103.37865799254351 258.757184012425 L 101.25747767430552 250.27246273947299" stroke="rgb(132, 0, 0)" fill="none" stroke-width="2.1211803182380002px" stroke-linecap="round"/><path d="M 101.25747767430552 250.27246273947299 L 103.37865799254351 242.84833162563996" stroke="rgb(132, 0, 0)" fill="none" stroke-width="2.1211803182380002px" stroke-linecap="round"/><text x="120.29033549543104" y="226.93947923885497" stroke="rgb(245, 241, 237)" stroke-width="2.1211803182380002px" paint-order="stroke" fill="rgb(15, 15, 15)" font-family="sans-serif" text-anchor="start" dominant-baseline="middle" font-size="19.090622864142px">V_IN</text><text x="120.29033549543104" y="258.757184012425" fill="rgb(15, 15, 15)" font-family="sans-serif" text-anchor="start" dominant-baseline="middle" font-size="19.090622864142px">5V</text><circle cx="85.34862528752052" cy="242.84833162563996" r="30.757114614450998px" stroke-width="2.1211803182380002px" fill="none" stroke="rgb(132, 0, 0)"/></g><g data-circuit-json-type="schematic_component" data-schematic-component-id="schematic_component_2"><rect class="component-overlay" x="213.14973946135999" y="190.3491187492495" width="60.45363906978301" height="104.99842575278097" fill="transparent"/><path d="M 244.96744423492999 190.3491187492495 L 244.96744423492999 238.07567590960448" stroke="rgb(132, 0, 0)" fill="none" stroke-width="2.1211803182380002px" stroke-linecap="round"/><path d="M 244.96744423492999 247.6209873416755 L 244.96744423492999 295.3475445020305" stroke="rgb(132, 0, 0)" fill="none" stroke-width="2.1211803182380002px" stroke-linecap="round"/><path d="M 217.39210009783596 238.07567590960448 L 273.603378531143 238.07567590960448" stroke="rgb(132, 0, 0)" fill="none" stroke-width="2.1211803182380002px" stroke-linecap="round"/><path d="M 272.542788372024 252.92393813727048 L 272.542788372024 252.92393813727048 L 272.542788372024 252.92393813727048 L 272.542788372024 252.92393813727048 L 272.542788372024 252.92393813727048 L 272.542788372024 252.92393813727048 L 272.542788372024 252.92393813727048 L 272.542788372024 252.92393813727048 L 272.542788372024 252.92393813727048 L 271.482198212905 252.92393813727048 L 271.482198212905 252.92393813727048 L 271.482198212905 252.92393813727048 L 271.482198212905 252.92393813727048 L 271.482198212905 251.8633479781515 L 271.482198212905 251.8633479781515 L 271.482198212905 251.8633479781515 L 271.482198212905 251.8633479781515 L 270.421608053786 251.8633479781515 L 270.421608053786 251.8633479781515 L 270.421608053786 251.8633479781515 L 270.421608053786 251.8633479781515 L 270.421608053786 251.8633479781515 L 270.421608053786 251.8633479781515 L 270.421608053786 251.8633479781515 L 270.421608053786 251.8633479781515 L 269.361017894667 251.8633479781515 L 269.361017894667 251.8633479781515 L 269.361017894667 251.8633479781515 L 269.361017894667 250.80275781903248 L 269.361017894667 250.80275781903248 L 269.361017894667 250.80275781903248 L 269.361017894667 250.80275781903248 L 269.361017894667 250.80275781903248 L 268.300427735548 250.80275781903248 L 268.300427735548 250.80275781903248 L 268.300427735548 250.80275781903248 L 268.300427735548 250.80275781903248 L 268.300427735548 250.80275781903248 L 268.300427735548 250.80275781903248 L 268.300427735548 250.80275781903248 L 268.300427735548 250.80275781903248 L 267.239837576429 250.80275781903248 L 267.239837576429 250.80275781903248 L 267.239837576429 250.80275781903248 L 267.239837576429 250.80275781903248 L 267.239837576429 249.7421676599135 L 267.239837576429 249.7421676599135 L 267.239837576429 249.7421676599135 L 266.17924741730997 249.7421676599135 L 266.17924741730997 249.7421676599135 L 266.17924741730997 249.7421676599135 L 266.17924741730997 249.7421676599135 L 266.17924741730997 249.7421676599135 L 266.17924741730997 249.7421676599135 L 266.17924741730997 249.7421676599135 L 266.17924741730997 249.7421676599135 L 265.118657258191 249.7421676599135 L 265.118657258191 249.7421676599135 L 265.118657258191 249.7421676599135 L 265.118657258191 249.7421676599135 L 265.118657258191 249.7421676599135 L 265.118657258191 249.7421676599135 L 265.118657258191 249.7421676599135 L 265.118657258191 249.7421676599135 L 264.058067099072 248.6815775007945 L 264.058067099072 248.6815775007945 L 264.058067099072 248.6815775007945 L 264.058067099072 248.6815775007945 L 264.058067099072 248.6815775007945 L 264.058067099072 248.6815775007945 L 264.058067099072 248.6815775007945 L 264.058067099072 248.6815775007945 L 262.997476939953 248.6815775007945 L 262.997476939953 248.6815775007945 L 262.997476939953 248.6815775007945 L 262.997476939953 248.6815775007945 L 262.997476939953 248.6815775007945 L 262.997476939953 248.6815775007945 L 262.997476939953 248.6815775007945 L 261.936886780834 248.6815775007945 L 261.936886780834 248.6815775007945 L 261.936886780834 248.6815775007945 L 261.936886780834 248.6815775007945 L 261.936886780834 248.6815775007945 L 261.936886780834 248.6815775007945 L 261.936886780834 248.6815775007945 L 261.936886780834 247.6209873416755 L 260.87629662171497 247.6209873416755 L 260.87629662171497 247.6209873416755 L 260.87629662171497 247.6209873416755 L 260.87629662171497 247.6209873416755 L 260.87629662171497 247.6209873416755 L 260.87629662171497 247.6209873416755 L 260.87629662171497 247.6209873416755 L 260.87629662171497 247.6209873416755 L 259.815706462596 247.6209873416755 L 259.815706462596 247.6209873416755 L 259.815706462596 247.6209873416755 L 259.815706462596 247.6209873416755 L 259.815706462596 247.6209873416755 L 259.815706462596 247.6209873416755 L 259.815706462596 247.6209873416755 L 259.815706462596 247.6209873416755 L 258.755116303477 247.6209873416755 L 258.755116303477 247.6209873416755 L 258.755116303477 247.6209873416755 L 258.755116303477 247.6209873416755 L 258.755116303477 247.6209873416755 L 258.755116303477 247.6209873416755 L 257.694526144358 247.6209873416755 L 257.694526144358 247.6209873416755 L 257.694526144358 247.6209873416755 L 257.694526144358 247.6209873416755 L 257.694526144358 247.6209873416755 L 257.694526144358 247.6209873416755 L 256.63393598523896 246.5603971825565 L 256.63393598523896 246.5603971825565 L 256.63393598523896 246.5603971825565 L 256.63393598523896 246.5603971825565 L 256.63393598523896 246.5603971825565 L 256.63393598523896 246.5603971825565 L 255.57334582611998 246.5603971825565 L 255.57334582611998 246.5603971825565 L 255.57334582611998 246.5603971825565 L 255.57334582611998 246.5603971825565 L 255.57334582611998 246.5603971825565 L 255.57334582611998 246.5603971825565 L 254.512755667001 246.5603971825565 L 254.512755667001 246.5603971825565 L 254.512755667001 246.5603971825565 L 254.512755667001 246.5603971825565 L 254.512755667001 246.5603971825565 L 254.512755667001 246.5603971825565 L 253.45216550788197 246.5603971825565 L 253.45216550788197 246.5603971825565 L 253.45216550788197 246.5603971825565 L 253.45216550788197 246.5603971825565 L 253.45216550788197 246.5603971825565 L 252.39157534876298 246.5603971825565 L 252.39157534876298 246.5603971825565 L 252.39157534876298 246.5603971825565 L 252.39157534876298 246.5603971825565 L 252.39157534876298 246.5603971825565 L 252.39157534876298 246.5603971825565 L 251.330985189644 246.5603971825565 L 251.330985189644 246.5603971825565 L 251.330985189644 246.5603971825565 L 251.330985189644 246.5603971825565 L 251.330985189644 246.5603971825565 L 251.330985189644 246.5603971825565 L 250.27039503052498 246.5603971825565 L 250.27039503052498 246.5603971825565 L 250.27039503052498 246.5603971825565 L 250.27039503052498 246.5603971825565 L 250.27039503052498 246.5603971825565 L 250.27039503052498 246.5603971825565 L 249.209804871406 246.5603971825565 L 249.209804871406 246.5603971825565 L 249.209804871406 246.5603971825565 L 249.209804871406 246.5603971825565 L 249.209804871406 246.5603971825565 L 249.209804871406 246.5603971825565 L 248.14921471228698 246.5603971825565 L 248.14921471228698 246.5603971825565 L 248.14921471228698 246.5603971825565 L 248.14921471228698 246.5603971825565 L 248.14921471228698 246.5603971825565 L 247.088624553168 246.5603971825565 L 247.088624553168 246.5603971825565 L 247.088624553168 246.5603971825565 L 247.088624553168 246.5603971825565 L 247.088624553168 246.5603971825565 L 247.088624553168 246.5603971825565 L 246.02803439404897 246.5603971825565 L 246.02803439404897 245.49980702343748 L 246.02803439404897 245.49980702343748 L 246.02803439404897 245.49980702343748 L 246.02803439404897 245.49980702343748 L 246.02803439404897 245.49980702343748 L 244.96744423492999 246.5603971825565 L 244.96744423492999 246.5603971825565 L 244.96744423492999 246.5603971825565 L 244.96744423492999 246.5603971825565 L 244.96744423492999 246.5603971825565 L 244.96744423492999 246.5603971825565 L 243.906854075811 246.5603971825565 L 243.906854075811 246.5603971825565 L 243.906854075811 246.5603971825565 L 243.906854075811 246.5603971825565 L 243.906854075811 246.5603971825565 L 243.906854075811 246.5603971825565 L 242.84626391669198 246.5603971825565 L 242.84626391669198 246.5603971825565 L 242.84626391669198 246.5603971825565 L 242.84626391669198 246.5603971825565 L 242.84626391669198 246.5603971825565 L 241.785673757573 246.5603971825565 L 241.785673757573 246.5603971825565 L 241.785673757573 246.5603971825565 L 241.785673757573 246.5603971825565 L 241.785673757573 246.5603971825565 L 241.785673757573 246.5603971825565 L 240.72508359845398 246.5603971825565 L 240.72508359845398 246.5603971825565 L 240.72508359845398 246.5603971825565 L 240.72508359845398 246.5603971825565 L 240.72508359845398 246.5603971825565 L 240.72508359845398 246.5603971825565 L 240.72508359845398 246.5603971825565 L 240.72508359845398 246.5603971825565 L 239.664493439335 246.5603971825565 L 239.664493439335 246.5603971825565 L 239.664493439335 246.5603971825565 L 239.664493439335 246.5603971825565 L 239.664493439335 246.5603971825565 L 239.664493439335 246.5603971825565 L 239.664493439335 246.5603971825565 L 238.60390328021597 246.5603971825565 L 238.60390328021597 246.5603971825565 L 238.60390328021597 246.5603971825565 L 238.60390328021597 246.5603971825565 L 238.60390328021597 246.5603971825565 L 238.60390328021597 246.5603971825565 L 237.543313121097 246.5603971825565 L 237.543313121097 246.5603971825565 L 237.543313121097 246.5603971825565 L 237.543313121097 246.5603971825565 L 237.543313121097 246.5603971825565 L 237.543313121097 246.5603971825565 L 237.543313121097 246.5603971825565 L 236.482722961978 246.5603971825565 L 236.482722961978 246.5603971825565 L 236.482722961978 246.5603971825565 L 236.482722961978 246.5603971825565 L 236.482722961978 246.5603971825565 L 236.482722961978 246.5603971825565 L 236.482722961978 246.5603971825565 L 235.42213280285898 246.5603971825565 L 235.42213280285898 246.5603971825565 L 235.42213280285898 246.5603971825565 L 235.42213280285898 246.5603971825565 L 235.42213280285898 246.5603971825565 L 235.42213280285898 246.5603971825565 L 235.42213280285898 246.5603971825565 L 234.36154264374 246.5603971825565 L 234.36154264374 246.5603971825565 L 234.36154264374 246.5603971825565 L 234.36154264374 246.5603971825565 L 234.36154264374 247.6209873416755 L 234.36154264374 247.6209873416755 L 234.36154264374 247.6209873416755 L 233.30095248462098 247.6209873416755 L 233.30095248462098 247.6209873416755 L 233.30095248462098 247.6209873416755 L 233.30095248462098 247.6209873416755 L 233.30095248462098 247.6209873416755 L 233.30095248462098 247.6209873416755 L 232.240362325502 247.6209873416755 L 232.240362325502 247.6209873416755 L 232.240362325502 247.6209873416755 L 232.240362325502 247.6209873416755 L 232.240362325502 247.6209873416755 L 232.240362325502 247.6209873416755 L 232.240362325502 247.6209873416755 L 231.17977216638297 247.6209873416755 L 231.17977216638297 247.6209873416755 L 231.17977216638297 247.6209873416755 L 231.17977216638297 247.6209873416755 L 231.17977216638297 247.6209873416755 L 231.17977216638297 247.6209873416755 L 231.17977216638297 247.6209873416755 L 230.119182007264 247.6209873416755 L 230.119182007264 247.6209873416755 L 230.119182007264 247.6209873416755 L 230.119182007264 247.6209873416755 L 230.119182007264 247.6209873416755 L 230.119182007264 247.6209873416755 L 230.119182007264 247.6209873416755 L 229.058591848145 247.6209873416755 L 229.058591848145 247.6209873416755 L 229.058591848145 248.68157750079448 L 229.058591848145 248.68157750079448 L 229.058591848145 248.68157750079448 L 229.058591848145 248.68157750079448 L 229.058591848145 248.68157750079448 L 227.99800168902598 248.68157750079448 L 227.99800168902598 248.68157750079448 L 227.99800168902598 248.68157750079448 L 227.99800168902598 248.68157750079448 L 227.99800168902598 248.68157750079448 L 227.99800168902598 248.68157750079448 L 227.99800168902598 248.68157750079448 L 226.93741152990697 248.68157750079448 L 226.93741152990697 248.68157750079448 L 226.93741152990697 248.68157750079448 L 226.93741152990697 248.68157750079448 L 226.93741152990697 248.68157750079448 L 226.93741152990697 248.68157750079448 L 226.93741152990697 248.68157750079448 L 225.87682137078798 248.68157750079448 L 225.87682137078798 248.68157750079448 L 225.87682137078798 248.68157750079448 L 225.87682137078798 248.68157750079448 L 225.87682137078798 248.68157750079448 L 225.87682137078798 248.68157750079448 L 225.87682137078798 249.7421676599135 L 225.87682137078798 249.7421676599135 L 225.87682137078798 249.7421676599135 L 224.816231211669 249.7421676599135 L 224.816231211669 249.7421676599135 L 224.816231211669 249.7421676599135 L 224.816231211669 249.7421676599135 L 224.816231211669 249.7421676599135 L 224.816231211669 249.7421676599135 L 224.816231211669 249.7421676599135 L 224.816231211669 249.7421676599135 L 224.816231211669 249.7421676599135 L 224.816231211669 249.7421676599135 L 224.816231211669 249.7421676599135 L 224.816231211669 249.7421676599135 L 224.816231211669 249.7421676599135 L 223.75564105254998 249.7421676599135 L 223.75564105254998 249.7421676599135 L 223.75564105254998 249.7421676599135 L 223.75564105254998 249.7421676599135 L 223.75564105254998 249.7421676599135 L 223.75564105254998 249.7421676599135 L 223.75564105254998 249.7421676599135 L 223.75564105254998 249.7421676599135 L 223.75564105254998 249.7421676599135 L 223.75564105254998 249.7421676599135 L 223.75564105254998 249.7421676599135 L 223.75564105254998 249.7421676599135 L 222.695050893431 249.7421676599135 L 222.695050893431 249.7421676599135 L 222.695050893431 249.7421676599135 L 222.695050893431 249.7421676599135 L 222.695050893431 250.80275781903248 L 222.695050893431 250.80275781903248 L 222.695050893431 250.80275781903248 L 222.695050893431 250.80275781903248 L 222.695050893431 250.80275781903248 L 222.695050893431 250.80275781903248 L 222.695050893431 250.80275781903248 L 222.695050893431 250.80275781903248 L 221.63446073431197 250.80275781903248 L 221.63446073431197 250.80275781903248 L 221.63446073431197 250.80275781903248 L 221.63446073431197 250.80275781903248 L 221.63446073431197 250.80275781903248 L 221.63446073431197 250.80275781903248 L 221.63446073431197 250.80275781903248 L 221.63446073431197 250.80275781903248 L 221.63446073431197 250.80275781903248 L 221.63446073431197 250.80275781903248 L 221.63446073431197 250.80275781903248 L 221.63446073431197 250.80275781903248 L 220.57387057519298 250.80275781903248 L 220.57387057519298 250.80275781903248 L 220.57387057519298 250.80275781903248 L 220.57387057519298 250.80275781903248 L 220.57387057519298 250.80275781903248 L 220.57387057519298 250.80275781903248 L 220.57387057519298 251.8633479781515 L 220.57387057519298 251.8633479781515 L 220.57387057519298 251.8633479781515 L 220.57387057519298 251.8633479781515 L 220.57387057519298 251.8633479781515 L 220.57387057519298 251.8633479781515 L 220.57387057519298 251.8633479781515 L 219.513280416074 251.8633479781515 L 219.513280416074 251.8633479781515 L 219.513280416074 251.8633479781515 L 219.513280416074 251.8633479781515 L 219.513280416074 251.8633479781515 L 219.513280416074 251.8633479781515 L 219.513280416074 251.8633479781515 L 219.513280416074 251.8633479781515 L 219.513280416074 251.8633479781515 L 219.513280416074 251.8633479781515 L 219.513280416074 251.8633479781515 L 219.513280416074 251.8633479781515 L 219.513280416074 251.8633479781515 L 218.45269025695498 251.8633479781515 L 218.45269025695498 251.8633479781515 L 218.45269025695498 251.8633479781515 L 218.45269025695498 251.8633479781515 L 218.45269025695498 252.92393813727048 L 218.45269025695498 252.92393813727048 L 218.45269025695498 252.92393813727048 L 218.45269025695498 252.92393813727048 L 218.45269025695498 252.92393813727048 L 218.45269025695498 252.92393813727048 L 218.45269025695498 252.92393813727048 L 218.45269025695498 252.92393813727048 L 218.45269025695498 252.92393813727048 L 217.39210009783596 252.92393813727048 L 217.39210009783596 252.92393813727048 L 217.39210009783596 252.92393813727048 L 217.39210009783596 252.92393813727048 L 217.39210009783596 252.92393813727048 L 217.39210009783596 252.92393813727048 L 217.39210009783596 252.92393813727048 L 217.39210009783596 252.92393813727048 L 217.39210009783596 252.92393813727048" stroke="rgb(132, 0, 0)" fill="none" stroke-width="2.1211803182380002px" stroke-linecap="round"/><path d="M 220.57387057519298 210.5003317725105 L 220.57387057519298 225.3485940001765 L 220.57387057519298 225.3485940001765 L 220.57387057519298 210.5003317725105" stroke="rgb(132, 0, 0)" fill="none" stroke-width="2.1211803182380002px" stroke-linecap="round"/><path d="M 213.14973946135999 216.86387272722448 L 227.99800168902598 216.86387272722448 L 227.99800168902598 217.9244628863435 L 213.14973946135999 217.9244628863435" stroke="rgb(132, 0, 0)" fill="none" stroke-width="2.1211803182380002px" stroke-linecap="round"/><text x="269.30325285165054" y="227.4697743184145" stroke="rgb(245, 241, 237)" stroke-width="2.1211803182380002px" paint-order="stroke" fill="rgb(15, 15, 15)" font-family="sans-serif" text-anchor="start" dominant-baseline="ideographic" font-size="19.090622864142px">C_IN</text><text x="269.30325285165054" y="259.2874790919845" fill="rgb(15, 15, 15)" font-family="sans-serif" text-anchor="start" dominant-baseline="hanging" font-size="19.090622864142px">1uF</text></g><g data-circuit-json-type="schematic_component" data-schematic-component-id="schematic_component_3"><rect class="component-overlay" x="793.292556499453" y="205.727676056475" width="28.63593429621301" height="116.66491750309001" fill="transparent"/><path d="M 807.0802285679999 322.392593559565 L 807.0802285679999 292.696069104233" stroke="rgb(132, 0, 0)" fill="none" stroke-width="2.1211803182380002px" stroke-linecap="round"/><path d="M 807.0802285679999 236.48479067092597 L 807.0802285679999 205.727676056475" stroke="rgb(132, 0, 0)" fill="none" stroke-width="2.1211803182380002px" stroke-linecap="round"/><path d="M 793.292556499453 264.06013480802 L 793.292556499453 236.48479067092597 L 821.928490795666 236.48479067092597 L 821.928490795666 292.696069104233 L 793.292556499453 292.696069104233 L 793.292556499453 264.06013480802" stroke="rgb(132, 0, 0)" fill="none" stroke-width="2.1211803182380002px" stroke-linecap="round"/><text x="836.7189879803154" y="249.211872580354" stroke="rgb(245, 241, 237)" stroke-width="2.1211803182380002px" paint-order="stroke" fill="rgb(15, 15, 15)" font-family="sans-serif" text-anchor="start" dominant-baseline="middle" font-size="19.090622864142px">R_QOD</text><text x="836.7189879803154" y="283.150757672162" fill="rgb(15, 15, 15)" font-family="sans-serif" text-anchor="start" dominant-baseline="middle" font-size="19.090622864142px">100kΩ</text></g><g data-circuit-json-type="schematic_component" data-schematic-component-id="schematic_component_4"><rect class="component-overlay" x="987.3805556182301" y="190.3491187492495" width="60.45363906978287" height="104.99842575278097" fill="transparent"/><path d="M 1019.1982603918001 190.3491187492495 L 1019.1982603918001 238.07567590960448" stroke="rgb(132, 0, 0)" fill="none" stroke-width="2.1211803182380002px" stroke-linecap="round"/><path d="M 1019.1982603918001 247.6209873416755 L 1019.1982603918001 295.3475445020305" stroke="rgb(132, 0, 0)" fill="none" stroke-width="2.1211803182380002px" stroke-linecap="round"/><path d="M 991.6229162547061 238.07567590960448 L 1047.834194688013 238.07567590960448" stroke="rgb(132, 0, 0)" fill="none" stroke-width="2.1211803182380002px" stroke-linecap="round"/><path d="M 1046.773604528894 252.92393813727048 L 1046.773604528894 252.92393813727048 L 1046.773604528894 252.92393813727048 L 1046.773604528894 252.92393813727048 L 1046.773604528894 252.92393813727048 L 1046.773604528894 252.92393813727048 L 1046.773604528894 252.92393813727048 L 1046.773604528894 252.92393813727048 L 1046.773604528894 252.92393813727048 L 1045.713014369775 252.92393813727048 L 1045.713014369775 252.92393813727048 L 1045.713014369775 252.92393813727048 L 1045.713014369775 252.92393813727048 L 1045.713014369775 251.8633479781515 L 1045.713014369775 251.8633479781515 L 1045.713014369775 251.8633479781515 L 1045.713014369775 251.8633479781515 L 1044.6524242106561 251.8633479781515 L 1044.6524242106561 251.8633479781515 L 1044.6524242106561 251.8633479781515 L 1044.6524242106561 251.8633479781515 L 1044.6524242106561 251.8633479781515 L 1044.6524242106561 251.8633479781515 L 1044.6524242106561 251.8633479781515 L 1044.6524242106561 251.8633479781515 L 1043.591834051537 251.8633479781515 L 1043.591834051537 251.8633479781515 L 1043.591834051537 251.8633479781515 L 1043.591834051537 250.80275781903248 L 1043.591834051537 250.80275781903248 L 1043.591834051537 250.80275781903248 L 1043.591834051537 250.80275781903248 L 1043.591834051537 250.80275781903248 L 1042.5312438924182 250.80275781903248 L 1042.5312438924182 250.80275781903248 L 1042.5312438924182 250.80275781903248 L 1042.5312438924182 250.80275781903248 L 1042.5312438924182 250.80275781903248 L 1042.5312438924182 250.80275781903248 L 1042.5312438924182 250.80275781903248 L 1042.5312438924182 250.80275781903248 L 1041.470653733299 250.80275781903248 L 1041.470653733299 250.80275781903248 L 1041.470653733299 250.80275781903248 L 1041.470653733299 250.80275781903248 L 1041.470653733299 249.7421676599135 L 1041.470653733299 249.7421676599135 L 1041.470653733299 249.7421676599135 L 1040.4100635741802 249.7421676599135 L 1040.4100635741802 249.7421676599135 L 1040.4100635741802 249.7421676599135 L 1040.4100635741802 249.7421676599135 L 1040.4100635741802 249.7421676599135 L 1040.4100635741802 249.7421676599135 L 1040.4100635741802 249.7421676599135 L 1040.4100635741802 249.7421676599135 L 1039.349473415061 249.7421676599135 L 1039.349473415061 249.7421676599135 L 1039.349473415061 249.7421676599135 L 1039.349473415061 249.7421676599135 L 1039.349473415061 249.7421676599135 L 1039.349473415061 249.7421676599135 L 1039.349473415061 249.7421676599135 L 1039.349473415061 249.7421676599135 L 1038.288883255942 248.6815775007945 L 1038.288883255942 248.6815775007945 L 1038.288883255942 248.6815775007945 L 1038.288883255942 248.6815775007945 L 1038.288883255942 248.6815775007945 L 1038.288883255942 248.6815775007945 L 1038.288883255942 248.6815775007945 L 1038.288883255942 248.6815775007945 L 1037.228293096823 248.6815775007945 L 1037.228293096823 248.6815775007945 L 1037.228293096823 248.6815775007945 L 1037.228293096823 248.6815775007945 L 1037.228293096823 248.6815775007945 L 1037.228293096823 248.6815775007945 L 1037.228293096823 248.6815775007945 L 1036.167702937704 248.6815775007945 L 1036.167702937704 248.6815775007945 L 1036.167702937704 248.6815775007945 L 1036.167702937704 248.6815775007945 L 1036.167702937704 248.6815775007945 L 1036.167702937704 248.6815775007945 L 1036.167702937704 248.6815775007945 L 1036.167702937704 247.6209873416755 L 1035.1071127785851 247.6209873416755 L 1035.1071127785851 247.6209873416755 L 1035.1071127785851 247.6209873416755 L 1035.1071127785851 247.6209873416755 L 1035.1071127785851 247.6209873416755 L 1035.1071127785851 247.6209873416755 L 1035.1071127785851 247.6209873416755 L 1035.1071127785851 247.6209873416755 L 1034.046522619466 247.6209873416755 L 1034.046522619466 247.6209873416755 L 1034.046522619466 247.6209873416755 L 1034.046522619466 247.6209873416755 L 1034.046522619466 247.6209873416755 L 1034.046522619466 247.6209873416755 L 1034.046522619466 247.6209873416755 L 1034.046522619466 247.6209873416755 L 1032.9859324603472 247.6209873416755 L 1032.9859324603472 247.6209873416755 L 1032.9859324603472 247.6209873416755 L 1032.9859324603472 247.6209873416755 L 1032.9859324603472 247.6209873416755 L 1032.9859324603472 247.6209873416755 L 1031.925342301228 247.6209873416755 L 1031.925342301228 247.6209873416755 L 1031.925342301228 247.6209873416755 L 1031.925342301228 247.6209873416755 L 1031.925342301228 247.6209873416755 L 1031.925342301228 247.6209873416755 L 1030.8647521421092 246.5603971825565 L 1030.8647521421092 246.5603971825565 L 1030.8647521421092 246.5603971825565 L 1030.8647521421092 246.5603971825565 L 1030.8647521421092 246.5603971825565 L 1030.8647521421092 246.5603971825565 L 1029.80416198299 246.5603971825565 L 1029.80416198299 246.5603971825565 L 1029.80416198299 246.5603971825565 L 1029.80416198299 246.5603971825565 L 1029.80416198299 246.5603971825565 L 1029.80416198299 246.5603971825565 L 1028.743571823871 246.5603971825565 L 1028.743571823871 246.5603971825565 L 1028.743571823871 246.5603971825565 L 1028.743571823871 246.5603971825565 L 1028.743571823871 246.5603971825565 L 1028.743571823871 246.5603971825565 L 1027.682981664752 246.5603971825565 L 1027.682981664752 246.5603971825565 L 1027.682981664752 246.5603971825565 L 1027.682981664752 246.5603971825565 L 1027.682981664752 246.5603971825565 L 1026.622391505633 246.5603971825565 L 1026.622391505633 246.5603971825565 L 1026.622391505633 246.5603971825565 L 1026.622391505633 246.5603971825565 L 1026.622391505633 246.5603971825565 L 1026.622391505633 246.5603971825565 L 1025.5618013465141 246.5603971825565 L 1025.5618013465141 246.5603971825565 L 1025.5618013465141 246.5603971825565 L 1025.5618013465141 246.5603971825565 L 1025.5618013465141 246.5603971825565 L 1025.5618013465141 246.5603971825565 L 1024.501211187395 246.5603971825565 L 1024.501211187395 246.5603971825565 L 1024.501211187395 246.5603971825565 L 1024.501211187395 246.5603971825565 L 1024.501211187395 246.5603971825565 L 1024.501211187395 246.5603971825565 L 1023.440621028276 246.5603971825565 L 1023.440621028276 246.5603971825565 L 1023.440621028276 246.5603971825565 L 1023.440621028276 246.5603971825565 L 1023.440621028276 246.5603971825565 L 1023.440621028276 246.5603971825565 L 1022.380030869157 246.5603971825565 L 1022.380030869157 246.5603971825565 L 1022.380030869157 246.5603971825565 L 1022.380030869157 246.5603971825565 L 1022.380030869157 246.5603971825565 L 1021.3194407100381 246.5603971825565 L 1021.3194407100381 246.5603971825565 L 1021.3194407100381 246.5603971825565 L 1021.3194407100381 246.5603971825565 L 1021.3194407100381 246.5603971825565 L 1021.3194407100381 246.5603971825565 L 1020.2588505509191 246.5603971825565 L 1020.2588505509191 245.49980702343748 L 1020.2588505509191 245.49980702343748 L 1020.2588505509191 245.49980702343748 L 1020.2588505509191 245.49980702343748 L 1020.2588505509191 245.49980702343748 L 1019.1982603918001 246.5603971825565 L 1019.1982603918001 246.5603971825565 L 1019.1982603918001 246.5603971825565 L 1019.1982603918001 246.5603971825565 L 1019.1982603918001 246.5603971825565 L 1019.1982603918001 246.5603971825565 L 1018.1376702326811 246.5603971825565 L 1018.1376702326811 246.5603971825565 L 1018.1376702326811 246.5603971825565 L 1018.1376702326811 246.5603971825565 L 1018.1376702326811 246.5603971825565 L 1018.1376702326811 246.5603971825565 L 1017.0770800735621 246.5603971825565 L 1017.0770800735621 246.5603971825565 L 1017.0770800735621 246.5603971825565 L 1017.0770800735621 246.5603971825565 L 1017.0770800735621 246.5603971825565 L 1016.0164899144431 246.5603971825565 L 1016.0164899144431 246.5603971825565 L 1016.0164899144431 246.5603971825565 L 1016.0164899144431 246.5603971825565 L 1016.0164899144431 246.5603971825565 L 1016.0164899144431 246.5603971825565 L 1014.9558997553241 246.5603971825565 L 1014.9558997553241 246.5603971825565 L 1014.9558997553241 246.5603971825565 L 1014.9558997553241 246.5603971825565 L 1014.9558997553241 246.5603971825565 L 1014.9558997553241 246.5603971825565 L 1014.9558997553241 246.5603971825565 L 1014.9558997553241 246.5603971825565 L 1013.895309596205 246.5603971825565 L 1013.895309596205 246.5603971825565 L 1013.895309596205 246.5603971825565 L 1013.895309596205 246.5603971825565 L 1013.895309596205 246.5603971825565 L 1013.895309596205 246.5603971825565 L 1013.895309596205 246.5603971825565 L 1012.834719437086 246.5603971825565 L 1012.834719437086 246.5603971825565 L 1012.834719437086 246.5603971825565 L 1012.834719437086 246.5603971825565 L 1012.834719437086 246.5603971825565 L 1012.834719437086 246.5603971825565 L 1011.7741292779671 246.5603971825565 L 1011.7741292779671 246.5603971825565 L 1011.7741292779671 246.5603971825565 L 1011.7741292779671 246.5603971825565 L 1011.7741292779671 246.5603971825565 L 1011.7741292779671 246.5603971825565 L 1011.7741292779671 246.5603971825565 L 1010.7135391188481 246.5603971825565 L 1010.7135391188481 246.5603971825565 L 1010.7135391188481 246.5603971825565 L 1010.7135391188481 246.5603971825565 L 1010.7135391188481 246.5603971825565 L 1010.7135391188481 246.5603971825565 L 1010.7135391188481 246.5603971825565 L 1009.6529489597291 246.5603971825565 L 1009.6529489597291 246.5603971825565 L 1009.6529489597291 246.5603971825565 L 1009.6529489597291 246.5603971825565 L 1009.6529489597291 246.5603971825565 L 1009.6529489597291 246.5603971825565 L 1009.6529489597291 246.5603971825565 L 1008.5923588006101 246.5603971825565 L 1008.5923588006101 246.5603971825565 L 1008.5923588006101 246.5603971825565 L 1008.5923588006101 246.5603971825565 L 1008.5923588006101 247.6209873416755 L 1008.5923588006101 247.6209873416755 L 1008.5923588006101 247.6209873416755 L 1007.5317686414911 247.6209873416755 L 1007.5317686414911 247.6209873416755 L 1007.5317686414911 247.6209873416755 L 1007.5317686414911 247.6209873416755 L 1007.5317686414911 247.6209873416755 L 1007.5317686414911 247.6209873416755 L 1006.4711784823721 247.6209873416755 L 1006.4711784823721 247.6209873416755 L 1006.4711784823721 247.6209873416755 L 1006.4711784823721 247.6209873416755 L 1006.4711784823721 247.6209873416755 L 1006.4711784823721 247.6209873416755 L 1006.4711784823721 247.6209873416755 L 1005.4105883232531 247.6209873416755 L 1005.4105883232531 247.6209873416755 L 1005.4105883232531 247.6209873416755 L 1005.4105883232531 247.6209873416755 L 1005.4105883232531 247.6209873416755 L 1005.4105883232531 247.6209873416755 L 1005.4105883232531 247.6209873416755 L 1004.3499981641341 247.6209873416755 L 1004.3499981641341 247.6209873416755 L 1004.3499981641341 247.6209873416755 L 1004.3499981641341 247.6209873416755 L 1004.3499981641341 247.6209873416755 L 1004.3499981641341 247.6209873416755 L 1004.3499981641341 247.6209873416755 L 1003.289408005015 247.6209873416755 L 1003.289408005015 247.6209873416755 L 1003.289408005015 248.68157750079448 L 1003.289408005015 248.68157750079448 L 1003.289408005015 248.68157750079448 L 1003.289408005015 248.68157750079448 L 1003.289408005015 248.68157750079448 L 1002.2288178458961 248.68157750079448 L 1002.2288178458961 248.68157750079448 L 1002.2288178458961 248.68157750079448 L 1002.2288178458961 248.68157750079448 L 1002.2288178458961 248.68157750079448 L 1002.2288178458961 248.68157750079448 L 1002.2288178458961 248.68157750079448 L 1001.1682276867771 248.68157750079448 L 1001.1682276867771 248.68157750079448 L 1001.1682276867771 248.68157750079448 L 1001.1682276867771 248.68157750079448 L 1001.1682276867771 248.68157750079448 L 1001.1682276867771 248.68157750079448 L 1001.1682276867771 248.68157750079448 L 1000.1076375276581 248.68157750079448 L 1000.1076375276581 248.68157750079448 L 1000.1076375276581 248.68157750079448 L 1000.1076375276581 248.68157750079448 L 1000.1076375276581 248.68157750079448 L 1000.1076375276581 248.68157750079448 L 1000.1076375276581 249.7421676599135 L 1000.1076375276581 249.7421676599135 L 1000.1076375276581 249.7421676599135 L 999.0470473685391 249.7421676599135 L 999.0470473685391 249.7421676599135 L 999.0470473685391 249.7421676599135 L 999.0470473685391 249.7421676599135 L 999.0470473685391 249.7421676599135 L 999.0470473685391 249.7421676599135 L 999.0470473685391 249.7421676599135 L 999.0470473685391 249.7421676599135 L 999.0470473685391 249.7421676599135 L 999.0470473685391 249.7421676599135 L 999.0470473685391 249.7421676599135 L 999.0470473685391 249.7421676599135 L 999.0470473685391 249.7421676599135 L 997.9864572094201 249.7421676599135 L 997.9864572094201 249.7421676599135 L 997.9864572094201 249.7421676599135 L 997.9864572094201 249.7421676599135 L 997.9864572094201 249.7421676599135 L 997.9864572094201 249.7421676599135 L 997.9864572094201 249.7421676599135 L 997.9864572094201 249.7421676599135 L 997.9864572094201 249.7421676599135 L 997.9864572094201 249.7421676599135 L 997.9864572094201 249.7421676599135 L 997.9864572094201 249.7421676599135 L 996.9258670503011 249.7421676599135 L 996.9258670503011 249.7421676599135 L 996.9258670503011 249.7421676599135 L 996.9258670503011 249.7421676599135 L 996.9258670503011 250.80275781903248 L 996.9258670503011 250.80275781903248 L 996.9258670503011 250.80275781903248 L 996.9258670503011 250.80275781903248 L 996.9258670503011 250.80275781903248 L 996.9258670503011 250.80275781903248 L 996.9258670503011 250.80275781903248 L 996.9258670503011 250.80275781903248 L 995.8652768911821 250.80275781903248 L 995.8652768911821 250.80275781903248 L 995.8652768911821 250.80275781903248 L 995.8652768911821 250.80275781903248 L 995.8652768911821 250.80275781903248 L 995.8652768911821 250.80275781903248 L 995.8652768911821 250.80275781903248 L 995.8652768911821 250.80275781903248 L 995.8652768911821 250.80275781903248 L 995.8652768911821 250.80275781903248 L 995.8652768911821 250.80275781903248 L 995.8652768911821 250.80275781903248 L 994.8046867320631 250.80275781903248 L 994.8046867320631 250.80275781903248 L 994.8046867320631 250.80275781903248 L 994.8046867320631 250.80275781903248 L 994.8046867320631 250.80275781903248 L 994.8046867320631 250.80275781903248 L 994.8046867320631 251.8633479781515 L 994.8046867320631 251.8633479781515 L 994.8046867320631 251.8633479781515 L 994.8046867320631 251.8633479781515 L 994.8046867320631 251.8633479781515 L 994.8046867320631 251.8633479781515 L 994.8046867320631 251.8633479781515 L 993.744096572944 251.8633479781515 L 993.744096572944 251.8633479781515 L 993.744096572944 251.8633479781515 L 993.744096572944 251.8633479781515 L 993.744096572944 251.8633479781515 L 993.744096572944 251.8633479781515 L 993.744096572944 251.8633479781515 L 993.744096572944 251.8633479781515 L 993.744096572944 251.8633479781515 L 993.744096572944 251.8633479781515 L 993.744096572944 251.8633479781515 L 993.744096572944 251.8633479781515 L 993.744096572944 251.8633479781515 L 992.6835064138251 251.8633479781515 L 992.6835064138251 251.8633479781515 L 992.6835064138251 251.8633479781515 L 992.6835064138251 251.8633479781515 L 992.6835064138251 252.92393813727048 L 992.6835064138251 252.92393813727048 L 992.6835064138251 252.92393813727048 L 992.6835064138251 252.92393813727048 L 992.6835064138251 252.92393813727048 L 992.6835064138251 252.92393813727048 L 992.6835064138251 252.92393813727048 L 992.6835064138251 252.92393813727048 L 992.6835064138251 252.92393813727048 L 991.6229162547061 252.92393813727048 L 991.6229162547061 252.92393813727048 L 991.6229162547061 252.92393813727048 L 991.6229162547061 252.92393813727048 L 991.6229162547061 252.92393813727048 L 991.6229162547061 252.92393813727048 L 991.6229162547061 252.92393813727048 L 991.6229162547061 252.92393813727048 L 991.6229162547061 252.92393813727048" stroke="rgb(132, 0, 0)" fill="none" stroke-width="2.1211803182380002px" stroke-linecap="round"/><path d="M 994.8046867320631 210.5003317725105 L 994.8046867320631 225.3485940001765 L 994.8046867320631 225.3485940001765 L 994.8046867320631 210.5003317725105" stroke="rgb(132, 0, 0)" fill="none" stroke-width="2.1211803182380002px" stroke-linecap="round"/><path d="M 987.3805556182301 216.86387272722448 L 1002.2288178458961 216.86387272722448 L 1002.2288178458961 217.9244628863435 L 987.3805556182301 217.9244628863435" stroke="rgb(132, 0, 0)" fill="none" stroke-width="2.1211803182380002px" stroke-linecap="round"/><text x="1043.5340690085206" y="227.4697743184145" stroke="rgb(245, 241, 237)" stroke-width="2.1211803182380002px" paint-order="stroke" fill="rgb(15, 15, 15)" font-family="sans-serif" text-anchor="start" dominant-baseline="ideographic" font-size="19.090622864142px">C_L</text><text x="1043.5340690085206" y="259.2874790919845" fill="rgb(15, 15, 15)" font-family="sans-serif" text-anchor="start" dominant-baseline="hanging" font-size="19.090622864142px">10uF</text></g><g data-circuit-json-type="schematic_component" data-schematic-component-id="schematic_component_5"><rect class="component-overlay" x="1111.4696042351532" y="184.515872874095" width="28.63593429621301" height="116.66491750308995" fill="transparent"/><path d="M 1125.2572763037 301.18079037718496 L 1125.2572763037 271.48426592185297" stroke="rgb(132, 0, 0)" fill="none" stroke-width="2.1211803182380002px" stroke-linecap="round"/><path d="M 1125.2572763037 215.272987488546 L 1125.2572763037 184.515872874095" stroke="rgb(132, 0, 0)" fill="none" stroke-width="2.1211803182380002px" stroke-linecap="round"/><path d="M 1111.4696042351532 242.84833162564 L 1111.4696042351532 215.272987488546 L 1140.1055385313662 215.272987488546 L 1140.1055385313662 271.48426592185297 L 1111.4696042351532 271.48426592185297 L 1111.4696042351532 242.84833162564" stroke="rgb(132, 0, 0)" fill="none" stroke-width="2.1211803182380002px" stroke-linecap="round"/><text x="1154.8960357160156" y="228.000069397974" stroke="rgb(245, 241, 237)" stroke-width="2.1211803182380002px" paint-order="stroke" fill="rgb(15, 15, 15)" font-family="sans-serif" text-anchor="start" dominant-baseline="middle" font-size="19.090622864142px">R_L</text><text x="1154.8960357160156" y="261.93895448978196" fill="rgb(15, 15, 15)" font-family="sans-serif" text-anchor="start" dominant-baseline="middle" font-size="19.090622864142px">10kΩ</text></g><g class="schematic-port-hover" data-schematic-port-id="source_port_0"><circle cx="446.47957446754003" cy="184.51587287409495" r="4.2423606364760005" fill="red" opacity="0"/></g><g class="schematic-port-hover" data-schematic-port-id="source_port_1"><circle cx="446.47957446754003" cy="396.633904697895" r="4.2423606364760005" fill="red" opacity="0"/></g><g class="schematic-port-hover" data-schematic-port-id="source_port_2"><circle cx="446.47957446754003" cy="290.574888785995" r="4.2423606364760005" fill="red" opacity="0"/></g><g class="schematic-port-hover" data-schematic-port-id="source_port_4"><circle cx="743.44481902086" cy="322.392593559565" r="4.2423606364760005" fill="red" opacity="0"/></g><g class="schematic-port-hover" data-schematic-port-id="source_port_5"><circle cx="743.44481902086" cy="184.51587287409498" r="4.2423606364760005" fill="red" opacity="0"/></g><g class="schematic-port-hover" data-schematic-port-id="source_port_6"><circle cx="86.40921544663951" cy="300.120200218066" r="4.2423606364760005" fill="red" opacity="0"/></g><g class="schematic-port-hover" data-schematic-port-id="source_port_7"><circle cx="85.34862528752052" cy="185.57646303321397" r="4.2423606364760005" fill="red" opacity="0"/></g><g class="schematic-port-hover" data-schematic-port-id="source_port_8"><circle cx="244.96744423493004" cy="295.3475445020305" r="4.2423606364760005" fill="red" opacity="0"/></g><g class="schematic-port-hover" data-schematic-port-id="source_port_9"><circle cx="244.96744423493004" cy="190.34911874924947" r="4.2423606364760005" fill="red" opacity="0"/></g><g class="schematic-port-hover" data-schematic-port-id="source_port_10"><circle cx="807.080228568" cy="322.392593559565" r="4.2423606364760005" fill="red" opacity="0"/></g><g class="schematic-port-hover" data-schematic-port-id="source_port_11"><circle cx="807.080228568" cy="205.727676056475" r="4.2423606364760005" fill="red" opacity="0"/></g><g class="schematic-port-hover" data-schematic-port-id="source_port_12"><circle cx="1019.1982603918" cy="295.3475445020305" r="4.2423606364760005" fill="red" opacity="0"/></g><g class="schematic-port-hover" data-schematic-port-id="source_port_13"><circle cx="1019.1982603918" cy="190.34911874924947" r="4.2423606364760005" fill="red" opacity="0"/></g><g class="schematic-port-hover" data-schematic-port-id="source_port_14"><circle cx="1125.2572763037" cy="301.18079037718496" r="4.2423606364760005" fill="red" opacity="0"/></g><g class="schematic-port-hover" data-schematic-port-id="source_port_15"><circle cx="1125.2572763037" cy="184.51587287409498" r="4.2423606364760005" fill="red" opacity="0"/></g><rect class="component-overlay" x="423.146590966922" y="439.05751106265495" width="25.454163818856046" height="19.090622864142006" fill="transparent"/><path d="M 423.146590966922 458.14813392679696 L 448.60075478577807 458.14813392679696" stroke="rgb(132, 0, 0)" fill="none" stroke-width="2.1211803182380002px" stroke-linecap="round"/><path d="M 435.87367287635004 458.14813392679696 L 435.87367287635004 439.05751106265495" stroke="rgb(132, 0, 0)" fill="none" stroke-width="2.1211803182380002px" stroke-linecap="round"/><text x="435.87367287635004" y="463.45108472239195" fill="rgb(15, 15, 15)" font-family="sans-serif" text-anchor="middle" dominant-baseline="hanging" font-size="19.090622864142px">GND</text><rect class="component-overlay" x="73.68213353721151" y="321.332003400446" width="25.45416381885599" height="19.090622864142006" fill="transparent"/><path d="M 73.68213353721151 340.422626264588 L 99.1362973560675 340.422626264588" stroke="rgb(132, 0, 0)" fill="none" stroke-width="2.1211803182380002px" stroke-linecap="round"/><path d="M 86.40921544663951 340.422626264588 L 86.40921544663951 321.332003400446" stroke="rgb(132, 0, 0)" fill="none" stroke-width="2.1211803182380002px" stroke-linecap="round"/><text x="86.40921544663951" y="345.725577060183" fill="rgb(15, 15, 15)" font-family="sans-serif" text-anchor="middle" dominant-baseline="hanging" font-size="19.090622864142px">GND</text><rect class="component-overlay" x="1112.530194394272" y="322.39259355956494" width="25.45416381885616" height="19.090622864142006" fill="transparent"/><path d="M 1112.530194394272 341.48321642370695 L 1137.9843582131282 341.48321642370695" stroke="rgb(132, 0, 0)" fill="none" stroke-width="2.1211803182380002px" stroke-linecap="round"/><path d="M 1125.2572763037 341.48321642370695 L 1125.2572763037 322.39259355956494" stroke="rgb(132, 0, 0)" fill="none" stroke-width="2.1211803182380002px" stroke-linecap="round"/><text x="1125.2572763037" y="346.78616721930194" fill="rgb(15, 15, 15)" font-family="sans-serif" text-anchor="middle" dominant-baseline="hanging" font-size="19.090622864142px">GND</text><text x="425.26777128516" y="237.54538083004496" fill="#000000" text-anchor="middle" dominant-baseline="middle" font-family="sans-serif" font-size="23.332983500618003px" transform="rotate(0, 425.26777128516, 237.54538083004496)">H</text><text x="404.05596810278" y="332.998495150755" fill="#000000" text-anchor="middle" dominant-baseline="middle" font-family="sans-serif" font-size="23.332983500618003px" transform="rotate(0, 404.05596810278, 332.998495150755)">L</text></svg>