<svg xmlns="http://www.w3.org/2000/svg" width="800" height="600"><style></style><rect class="boundary" x="0" y="0" fill="#000" width="800" height="600" data-type="pcb_background" data-pcb-layer="global"/><rect class="pcb-boundary" fill="none" stroke="#fff" stroke-width="0.3" x="248.25448229042445" y="103.68062234915641" width="303.4910354191512" height="392.638755301687" data-type="pcb_boundary" data-pcb-layer="global"/><rect class="pcb-pad" fill="rgb(200, 52, 52)" x="294.0995547902236" y="385.8998673631078" width="25.92142049088179" height="110.41951028773569" data-type="pcb_smtpad" data-pcb-layer="top"/><rect class="pcb-pad" fill="rgb(200, 52, 52)" x="345.95292972321784" y="385.8998673631078" width="25.92142049088179" height="110.41951028773569" data-type="pcb_smtpad" data-pcb-layer="top"/><rect class="pcb-pad" fill="rgb(200, 52, 52)" x="397.7799697781354" y="385.8998673631078" width="25.92142049088179" height="110.41951028773569" data-type="pcb_smtpad" data-pcb-layer="top"/><rect class="pcb-pad" fill="rgb(200, 52, 52)" x="449.63334471112967" y="385.8998673631078" width="25.92142049088179" height="110.41951028773569" data-type="pcb_smtpad" data-pcb-layer="top"/><rect class="pcb-pad" fill="rgb(200, 52, 52)" x="501.4603847660472" y="385.8998673631078" width="25.92142049088179" height="110.41951028773569" data-type="pcb_smtpad" data-pcb-layer="top"/><rect class="pcb-pad" fill="rgb(200, 52, 52)" x="294.0995547902236" y="208.0867705893256" width="25.92142049088179" height="110.41951028773569" data-type="pcb_smtpad" data-pcb-layer="top"/><rect class="pcb-pad" fill="rgb(200, 52, 52)" x="345.95292972321784" y="208.0867705893256" width="25.92142049088179" height="110.41951028773569" data-type="pcb_smtpad" data-pcb-layer="top"/><rect class="pcb-pad" fill="rgb(200, 52, 52)" x="397.7799697781354" y="208.0867705893256" width="25.92142049088179" height="110.41951028773569" data-type="pcb_smtpad" data-pcb-layer="top"/><rect class="pcb-pad" fill="rgb(200, 52, 52)" x="449.63334471112967" y="208.0867705893256" width="25.92142049088179" height="110.41951028773569" data-type="pcb_smtpad" data-pcb-layer="top"/><rect class="pcb-pad" fill="rgb(200, 52, 52)" x="501.4603847660472" y="208.0867705893256" width="25.92142049088179" height="110.41951028773569" data-type="pcb_smtpad" data-pcb-layer="top"/><path class="pcb-silkscreen pcb-silkscreen-top" d="M 282.184339204427 467.2943917786245 L 269.738475825386 467.2943917786245 L 269.738475825386 240.2271725380175 L 283.2192999128403 240.2271725380175" fill="none" stroke="#f2eda1" stroke-width="10.368062234915651" stroke-linecap="round" stroke-linejoin="round" data-pcb-component-id="pcb_component_0" data-pcb-silkscreen-path-id="pcb_silkscreen_path_0" data-type="pcb_silkscreen_path" data-pcb-layer="top"/><path class="pcb-silkscreen pcb-silkscreen-top" d="M 539.3049213061481 237.11702343716098 L 551.7455177095757 237.11702343716098 L 551.7455177095757 464.1789757021545 L 538.2673271099274 464.1789757021545" fill="none" stroke="#f2eda1" stroke-width="10.368062234915651" stroke-linecap="round" stroke-linejoin="round" data-pcb-component-id="pcb_component_0" data-pcb-silkscreen-path-id="pcb_silkscreen_path_1" data-type="pcb_silkscreen_path" data-pcb-layer="top"/><path class="pcb-silkscreen pcb-silkscreen-top" d="M 272.5352398771305 483.8774645035144 L 272.1215665012081 487.01962574999254 L 270.908737530387 489.9476539001894 L 268.97940525472995 492.46200867446686 L 266.465050480454 494.3913409501224 L 263.53702233025564 495.604169920945 L 260.39486108377747 496.0178432968659 L 257.2526998372993 495.604169920945 L 254.32467168710096 494.3913409501224 L 251.81031691282496 492.46200867446686 L 249.88098463716796 489.9476539001894 L 248.6681556663468 487.01962574999254 L 248.25448229042445 483.8774645035144 L 248.6681556663468 480.7353032570362 L 249.88098463716796 477.80727510683784 L 251.81031691282496 475.29292033256036 L 254.32467168710096 473.36358805690634 L 257.2526998372993 472.1507590860822 L 260.39486108377747 471.7370857101613 L 263.53702233025564 472.1507590860822 L 266.465050480454 473.36358805690634 L 268.97940525472995 475.29292033256036 L 270.908737530387 477.80727510683784 L 272.1215665012081 480.7353032570362 L 272.5352398771305 483.8774645035144 Z" fill="none" stroke="#f2eda1" stroke-width="10.368062234915651" stroke-linecap="round" stroke-linejoin="round" data-pcb-component-id="pcb_component_0" data-pcb-silkscreen-path-id="pcb_silkscreen_path_2" data-type="pcb_silkscreen_path" data-pcb-layer="top"/><text x="0" y="0" dx="0" dy="0" fill="#f2eda1" font-family="Arial, sans-serif" font-size="103.68062234915651" text-anchor="middle" dominant-baseline="central" transform="matrix(1,0,0,1,398.8899848890677,103.68062234915641)" class="pcb-silkscreen-text pcb-silkscreen-top" data-pcb-silkscreen-text-id="pcb_silkscreen_text_0" stroke="none" data-type="pcb_silkscreen_text" data-pcb-layer="top">unnamed_chip1</text></svg>