<svg xmlns="http://www.w3.org/2000/svg" width="800" height="600"><style></style><rect class="boundary" x="0" y="0" fill="#000" width="800" height="600" data-type="pcb_background" data-pcb-layer="global"/><rect class="pcb-boundary" fill="none" stroke="#fff" stroke-width="0.3" x="291.20624770620634" y="110.99009080469136" width="217.58750458758743" height="378.01981839061716" data-type="pcb_boundary" data-pcb-layer="global"/><rect class="pcb-pad" fill="rgb(200, 52, 52)" x="291.20624770620634" y="415.22715971917444" width="75.47423845998924" height="31.07829093018532" data-type="pcb_smtpad" data-pcb-layer="top"/><rect class="pcb-pad" fill="rgb(200, 52, 52)" x="291.20624770620634" y="359.71812956538736" width="75.47423845998924" height="31.07829093018532" data-type="pcb_smtpad" data-pcb-layer="top"/><rect class="pcb-pad" fill="rgb(200, 52, 52)" x="291.20624770620634" y="304.2372908946646" width="75.47423845998924" height="31.07829093018532" data-type="pcb_smtpad" data-pcb-layer="top"/><rect class="pcb-pad" fill="rgb(200, 52, 52)" x="291.20624770620634" y="248.72826074087752" width="75.47423845998924" height="31.07829093018532" data-type="pcb_smtpad" data-pcb-layer="top"/><rect class="pcb-pad" fill="rgb(200, 52, 52)" x="433.31951383380454" y="248.72826074087752" width="75.47423845998924" height="31.07829093018532" data-type="pcb_smtpad" data-pcb-layer="top"/><rect class="pcb-pad" fill="rgb(200, 52, 52)" x="433.31951383380454" y="304.2372908946646" width="75.47423845998924" height="31.07829093018532" data-type="pcb_smtpad" data-pcb-layer="top"/><rect class="pcb-pad" fill="rgb(200, 52, 52)" x="433.31951383380454" y="359.71812956538736" width="75.47423845998924" height="31.07829093018532" data-type="pcb_smtpad" data-pcb-layer="top"/><rect class="pcb-pad" fill="rgb(200, 52, 52)" x="433.31951383380454" y="415.22715971917444" width="75.47423845998924" height="31.07829093018532" data-type="pcb_smtpad" data-pcb-layer="top"/><path class="pcb-silkscreen pcb-silkscreen-top" d="M 456.38296612878753 220.66082020197194 L 343.6170338712126 220.66082020197194" fill="none" stroke="#f2eda1" stroke-width="11.099009080469141" stroke-linecap="round" stroke-linejoin="round" data-pcb-component-id="pcb_component_0" data-pcb-silkscreen-path-id="pcb_silkscreen_path_0" data-type="pcb_silkscreen_path" data-pcb-layer="top"/><path class="pcb-silkscreen pcb-silkscreen-top" d="M 343.6170338712126 474.384167781503 L 456.38296612878753 474.384167781503" fill="none" stroke="#f2eda1" stroke-width="11.099009080469141" stroke-linecap="round" stroke-linejoin="round" data-pcb-component-id="pcb_component_0" data-pcb-silkscreen-path-id="pcb_silkscreen_path_1" data-type="pcb_silkscreen_path" data-pcb-layer="top"/><path class="pcb-silkscreen pcb-silkscreen-top" d="M 502.68747706204994 480.6934216913136 L 502.4040996221879 482.84588704570103 L 501.5732790067779 484.85166544329843 L 500.2516342677753 486.57406640103386 L 498.52923331005246 487.8957111400239 L 496.52345491242977 488.72653175543394 L 494.37098955804237 489.0099091953085 L 492.2185242036549 488.72653175543394 L 490.2127458060575 487.8957111400239 L 488.4903448483347 486.57406640103386 L 487.168700109332 484.85166544329843 L 486.337879493922 482.84588704570103 L 486.05450205406 480.6934216913136 L 486.337879493922 478.5409563369262 L 487.168700109332 476.5351779393035 L 488.4903448483347 474.81277698158067 L 490.2127458060575 473.49113224260327 L 492.2185242036549 472.66031162719327 L 494.37098955804237 472.376934187306 L 496.52345491242977 472.66031162719327 L 498.52923331005246 473.49113224260327 L 500.2516342677753 474.81277698158067 L 501.5732790067779 476.5351779393035 L 502.4040996221879 478.5409563369262 L 502.68747706204994 480.6934216913136 Z" fill="none" stroke="#f2eda1" stroke-width="11.099009080469141" stroke-linecap="round" stroke-linejoin="round" data-pcb-component-id="pcb_component_0" data-pcb-silkscreen-path-id="pcb_silkscreen_path_2" data-type="pcb_silkscreen_path" data-pcb-layer="top"/><text x="0" y="0" dx="0" dy="0" fill="#f2eda1" font-family="Arial, sans-serif" font-size="110.9900908046914" text-anchor="middle" dominant-baseline="central" transform="matrix(1,0,0,1,398.68909603750586,110.99009080469136)" class="pcb-silkscreen-text pcb-silkscreen-top" data-pcb-silkscreen-text-id="pcb_silkscreen_text_0" stroke="none" data-type="pcb_silkscreen_text" data-pcb-layer="top">unnamed_chip1</text></svg>